<?xml version="1.0" standalone="no"?>
<!DOCTYPE svg PUBLIC "-//W3C//DTD SVG 1.1//EN" "http://www.w3.org/Graphics/SVG/1.1/DTD/svg11.dtd" >
<svg xmlns="http://www.w3.org/2000/svg" xmlns:xlink="http://www.w3.org/1999/xlink" version="1.1">
<metadata>
Created by FontForge 20160407 at Tue May 24 16:52:53 2016
 By Jimmy Wärting
Copyright (c) WC FONTS, 2005. All rights reserved.
</metadata>
<defs>
<font id="WCManoNegraBta" horiz-adv-x="449" >
  <font-face 
    font-family="WC Mano Negra Bta"
    font-weight="400"
    font-stretch="normal"
    units-per-em="1000"
    panose-1="2 0 5 6 0 0 0 2 0 4"
    ascent="800"
    descent="-200"
    x-height="358"
    cap-height="561"
    bbox="-135 -583 1040 881"
    underline-thickness="93"
    underline-position="-226"
    unicode-range="U+0020-FB02"
  />
<missing-glyph horiz-adv-x="500" 
d="M63 0v881h375v-881h-375zM125 63h250v756h-250v-756z" />
    <glyph glyph-name=".notdef" horiz-adv-x="500" 
d="M63 0v881h375v-881h-375zM125 63h250v756h-250v-756z" />
    <glyph glyph-name="NULL" horiz-adv-x="0" 
 />
    <glyph glyph-name="CR" horiz-adv-x="200" 
 />
    <glyph glyph-name="space" unicode=" " horiz-adv-x="299" 
 />
    <glyph glyph-name="exclam" unicode="!" horiz-adv-x="333" 
d="M288 696l18 -3l25 -19l4 -5v-18l-15 -62l-12 -37l-29 -74l-8 -2l-36 -88l-18 -58l-6 -6l-2 -1l4 -4l-6 -8l4 -5l-4 -11l-3 -5l-6 -11l-1 -6l-15 -25l-7 -31l-2 -22l-4 -20h-5l-4 -17l-11 -7l-5 2l-8 -4l-7 13l-5 42l1 46l15 87l18 82l26 88l60 142l7 24l17 16zM95 126
l30 -13h5l2 2v5l10 2l4 -9h4l7 -11l5 4l3 -2l8 -14l5 -10h2l3 5l4 -2l3 -5l9 -11l2 -2l-2 -7l4 -7h-4v-3h2l3 -13l-1 -16l-2 -12l-13 -7l-15 -4l-9 -12l-18 2h-4l-24 8l-25 16l-7 9l-9 2l2 3l-6 6v7l-16 9l-10 5l3 6v5l4 5l-2 7l4 4h5l-4 7l6 3l-4 13l4 1l7 -1l1 1v4l8 9
l7 5z" />
    <glyph glyph-name="quotedbl" unicode="&#x22;" horiz-adv-x="235" 
d="M138 535l8 -1l10 -6l2 -6l4 -2l2 -6l-9 -21l-1 -8l-7 -22l-8 -27l-10 -31l-1 -1l-2 -8l-4 -13l-4 -5l-3 -12l-3 -16l-4 -9l-2 -1l1 -9l2 -2l4 1v-3l-3 -3v-5l-2 -1l-1 -3l-12 -1l-1 -2l-2 1l-8 -4h-3l-7 13l-5 22l-2 31l8 47l13 39l14 35l16 27l6 8l7 3l2 -1zM215 528
l11 -1l3 -1l4 -3l4 1l7 -8l5 -10l-1 -6l-3 -8l-4 -14l-2 -3l-3 -12l-1 -5l-10 -27l-5 -10h-3l-3 -8l-11 -33l-1 -6l-4 -1l-6 -18l-5 -7l-3 -1l1 -5l-1 -2l3 -4l-3 -5l1 -3l-2 -7l-1 -3l1 -8l-3 -7l-9 -1l-11 9l-3 15l-1 27l1 30l3 17l14 50l4 11l4 14l19 46l5 3z" />
    <glyph glyph-name="numbersign" unicode="#" horiz-adv-x="888" 
d="M796 451c3 -5 9 -15 9 -22c0 -5 -6 -6 -13 -6c-5 0 -10 1 -14 1c-31 0 -111 -13 -183 -21c-3 0 -25 -45 -25 -52c0 -6 -9 -12 -12 -18l-2 -13c-2 -4 -5 -8 -5 -13c0 -11 29 -10 47 -10h14c25 2 54 6 86 6c23 0 35 -9 49 -9l9 -6c9 -6 26 -20 26 -27
c0 -11 -110 -25 -144 -30s-125 -3 -125 -68c0 -25 9 -42 14 -60l3 -12c2 -6 8 -22 8 -30c0 -6 -18 -6 -25 -6c-18 0 -35 3 -47 11c-13 8 -25 53 -25 64c0 4 1 8 1 12c0 6 -5 37 -18 37h-3c-19 -10 -76 2 -76 -49c0 -7 5 -14 5 -21c0 -2 -1 -5 -1 -7c0 -6 4 -4 4 -9
c0 -6 -12 -13 -14 -23c-3 -15 4 -38 -11 -44c0 1 -12 4 -12 4c-4 0 -10 -6 -14 -6v4c-11 5 -14 11 -14 19c0 7 3 16 3 25s-5 29 -10 43c0 0 -1 1 -1 2c0 5 3 14 3 18c0 2 -1 2 -3 2c-7 0 -22 -6 -28 -6c-3 0 -5 2 -8 2c-7 0 -17 -2 -24 -2c-25 0 -46 11 -46 39
c0 12 2 19 10 27c21 31 131 43 132 44c1 2 1 44 2 46c1 3 12 23 12 32s-19 14 -31 14c-38 0 -89 -4 -109 -9c-7 0 -14 3 -21 3v23h3c12 49 57 54 128 61c10 2 48 18 64 18h5c3 0 27 46 38 75l4 6c7 21 17 43 33 75c1 2 35 59 59 59c4 0 4 -6 4 -10c-6 -26 -17 -62 -23 -104
c-9 -23 -10 -43 -12 -69c0 -7 0 -14 6 -14c-5 0 43 7 50 13c11 10 13 33 21 47c2 4 6 9 8 14c7 15 8 23 13 33c-4 -11 39 124 59 124c18 0 44 -30 44 -58c0 -11 -2 -23 -5 -30c-6 -9 -7 -33 -34 -73c1 2 -15 -19 -15 -33c0 -9 37 -18 64 -18c24 0 44 8 81 8
c15 0 32 -12 32 -23zM493 346c-1 1 -1 2 -1 4c0 10 14 26 14 33c0 2 -1 4 -6 4c-5 -2 -72 -11 -77 -12c-16 -1 -31 -42 -31 -60c0 -5 0 -9 1 -12c0 -3 -10 -34 -10 -37c1 -7 5 -9 10 -9c7 0 17 5 27 5c4 0 8 -2 12 -2c36 0 42 9 42 23v15c0 11 19 24 19 46v2z" />
    <glyph glyph-name="dollar" unicode="$" horiz-adv-x="432" 
d="M464 533c2 -11 10 -50 8 -50v1s-1 -4 -4 -12c-6 -17 -26 -6 -26 -10c0 -2 1 -2 1 -2c-6 -1 -15 -1 -22 -1c6 0 -27 4 -27 7c0 7 -22 7 -27 10c-3 -2 -7 -2 -12 -2c-4 0 -9 0 -15 2c-9 -2 -21 -3 -38 -7l-2 -2c-1 -45 -3 -83 -6 -114l-5 -56c-2 -23 -4 -49 -6 -77
c18 -13 42 -30 76 -58c13 -15 49 -47 49 -99c0 -24 -2 -45 -14 -66l-34 -35c-14 -8 -50 -15 -84 -16v-19c0 -28 -3 -44 -3 -48c0 -7 2 -25 2 -28c0 -11 -8 -25 -24 -25c-14 0 -31 14 -31 28c0 12 3 23 3 26c-1 25 -1 47 -1 68c-5 1 -11 2 -16 3c-7 1 -25 1 -41 7
c-3 1 -47 8 -50 18l-7 -3c-3 1 -5 3 -7 4l-11 10h-4c-1 0 -3 0 -5 1h-6c0 2 0 2 -1 2h-5c-2 1 -4 4 -7 5l-6 2v4c3 4 6 11 11 21c-1 0 -2 2 -2 2c0 4 19 29 54 29c19 0 34 -10 41 -10h6c8 -2 22 -9 58 -17c1 36 3 82 5 130c-14 9 -33 20 -55 37l-14 17c-31 23 -38 39 -52 98
c2 11 3 15 4 17c-1 2 -1 5 -2 8c0 0 8 38 26 91c0 14 23 27 23 36c11 14 -4 13 51 48c15 11 27 19 36 24c1 34 2 58 2 72s-2 23 -2 34c0 19 5 28 20 28c20 0 31 -9 33 -30c1 -29 1 -57 1 -83c3 1 5 1 8 3c21 8 45 8 75 15c1 0 3 0 5 -1c2 1 5 1 8 1c2 0 5 0 8 -1
c2 1 3 1 5 1c1 0 3 0 4 -1l12 -5c16 -4 24 -14 39 -32zM294 102l-18 10c-1 -29 -1 -60 -1 -92v-6h10c12 0 33 19 33 32h4l10 6l2 8v7l-5 8l-6 6l-12 11l-7 3zM202 281c12 -12 22 -21 31 -28c3 68 6 133 8 180c-7 -6 -12 -13 -21 -22l-5 -7c-13 -18 -32 -36 -32 -78
c0 -13 14 -32 19 -45z" />
    <glyph glyph-name="percent" unicode="%" horiz-adv-x="541" 
d="M178 543l14 -3l18 -10l9 -4l17 -13l3 -8l6 -6l2 -4l3 -13l3 -10l-2 -2l3 -5l-3 -2l7 -10h3v-24l4 -21l-5 -14l1 -4l-5 -8l-3 -4l-2 -8l1 -12l-5 -9l-10 -11l-12 -7l-11 -10l-6 2l-1 -3l-10 -2l-13 -3l-1 -2l-21 -6h-14v-3h-10l-2 2l2 3l-2 2l-8 -3l-12 5l-11 2l-11 10
l-10 7l-5 6l-15 17v1l-6 12l-3 13l-2 15l4 33l8 24l9 16l20 22l26 21l31 20zM469 536h4l4 -7l-4 -10l3 -2l-7 -16l-2 -1v-1l-6 -9l-17 -20l-7 -6l-4 -5l-17 -27l-8 -10l-9 -13l-15 -18l-12 -20l-14 -20l-1 -2l-12 -14l-4 -8l-7 -8l-6 -11l-17 -25v-2l-7 -6l-5 -7v-3l-6 -6
l-2 -4l-6 -3l-5 -10l-11 -18l-10 -14l-5 -6l-9 -16l-15 -24l-9 -12l-5 -10l-8 -14l-3 -8l-12 -21l-26 -57l-8 -23l-10 -30l-8 -33v-6l-6 -12l-4 -11l1 -5l-3 -6l-5 1l-1 -4l-4 -3v-1l-8 -9l-3 2l4 35l12 58l18 59l25 63l28 60l57 108l37 58l19 25l61 77l36 38l19 17l21 20z
M409 249l2 -1l2 -4l4 4l4 -2v-2l5 -2l1 -4l6 -1l2 -7l24 -20l8 -6l-2 -8l5 1l3 -6l-2 -4l6 -9l2 -6v-19h-3l-1 -2l-4 -2l4 -20l6 -12l-5 -8l-2 -5l2 -4v-5l-5 -11l-4 -20l-9 -10l-10 -9l-4 -5v-3h2v-4l-5 -4l-9 -8h-3l-5 -8l-14 -12l-21 -11l-11 -3l-4 -2v-1l-12 -3l-30 -10
l-28 2l-16 9l-6 8l-8 1v4l-7 9l-2 1l-9 14l-3 17l-3 26l4 21l14 39l10 18l-10 4h-3l7 13l36 35l24 18l36 22l16 8h8l11 6zM193 463l-16 -26l-6 -7l-20 -32l-12 -23l6 -3l23 6l13 7l9 22l4 31l2 25h-3zM402 170v-5l-10 -11l-7 -10v-3l-6 -3l-4 -9l-2 -1l-9 -13l-4 -3l-4 -10
l-5 -3v-3l-3 -2l5 -4l-16 -7l3 -2v-2l-3 -2l-2 -10l-7 -4l-6 -18l-4 -4v-5l-3 -4l2 -1l27 8l26 21l21 24l15 32l2 28v6l-3 10v8z" />
    <glyph glyph-name="ampersand" unicode="&#x26;" horiz-adv-x="528" 
d="M442 675c0 0 6 -2 18 -4c4 -3 8 -5 13 -9c4 -5 8 -11 11 -16c2 -6 5 -11 8 -18c1 -5 8 -6 7 -32c-1 -16 -1 -24 -1 -23c1 -1 2 -3 3 -4c0 -10 -6 -25 -17 -46c6 -1 11 -6 15 -10c5 -9 7 -13 7 -13h2c-2 -1 1 -6 4 -12c1 -4 1 -6 1 -9c0 -6 0 -11 -1 -17
c-3 -1 -8 -3 -12 -5l-9 -9c-3 1 -7 1 -10 0c-5 -1 -11 -2 -17 -6c-10 -3 -21 -7 -35 -14c6 -3 -14 -9 -23 -12c-2 -2 -11 -10 -30 -27c-6 -9 -14 -19 -22 -30c-2 -3 -2 -8 -2 -11c-1 -9 -3 -18 -5 -27c10 -3 21 -8 33 -14c4 -1 8 -4 9 -8l-2 -2v-1c-2 -1 -3 -3 -4 -7v-3
c-1 -1 -2 -3 -3 -4l3 -7c-6 -4 -12 -10 -17 -15h-1c-2 -2 -4 -5 -5 -8c1 -3 1 -5 2 -9c-1 -1 -2 -3 -3 -4v-3c2 -2 4 -3 8 -4v-6c-2 -1 -4 -1 -5 -3c0 -5 1 -15 7 -31c1 -5 2 -8 5 -10c7 0 17 2 30 5c12 8 38 5 47 10c-1 -1 -2 -1 -2 -1c-1 -1 2 -1 10 -1c3 0 13 -2 29 -7
c15 -3 23 -6 23 -9c3 -1 5 -1 6 -1h5c14 1 28 1 42 1l-6 -3c-4 -3 -30 -16 -65 -33c-5 -3 -13 -8 -24 -13c-8 -3 -16 -8 -27 -13c-10 -6 -27 -12 -46 -20c-2 -6 -3 -11 -4 -18c-1 -2 -1 -4 -1 -7c1 -3 3 -5 4 -7c-1 -1 -1 -2 -1 -3c1 -6 4 -13 7 -21c3 -12 8 -24 15 -39
c4 -4 7 -8 8 -17c5 -4 9 -13 9 -28c-1 -1 -1 -3 -1 -4v-9c-4 -5 -9 -11 -14 -13h-6c-8 -5 -17 -8 -30 -12c-1 -1 -3 -2 -6 -4c-4 4 -10 9 -18 15c-3 5 -9 11 -14 18c-5 11 -11 25 -19 39c-3 2 -8 14 -15 36s-13 34 -16 38c-5 -1 -12 -4 -20 -7l-1 -1c-4 -1 -9 -3 -14 -6
c-1 -1 -2 -3 -3 -5c-4 -1 -8 -1 -13 -2l-4 -4c-14 -2 -30 -5 -48 -11l-17 -3h-9c-1 0 -2 0 -4 -1c-12 0 -44 8 -47 9c-6 5 -15 11 -22 15c-1 0 -9 17 -12 17c-4 0 -5 21 -9 21c-33 3 -50 23 -50 58c0 23 28 56 84 99l16 14l109 63l2 6l-6 1l-5 -1l-11 -2l-4 -1l-11 1l-1 -3
l-3 -1l-17 1l-13 1l-3 4l-1 12l-4 2l4 14c0 6 0 12 -2 20c-7 13 -11 41 -11 82c0 15 6 27 18 35l35 16c26 10 44 49 74 61c3 3 28 14 32 18c16 20 23 8 46 29c9 10 20 19 34 28c9 8 20 17 32 25c1 0 19 8 20 8s3 0 4 -1zM358 472c0 3 30 65 21 65c-37 0 -106 -69 -141 -89
c-21 -11 -31 -19 -31 -24c0 -10 8 -22 22 -35c19 -17 29 -27 31 -30c12 11 27 24 45 38c5 6 11 14 20 23c13 13 23 27 29 41c3 8 4 11 4 11zM238 261c-6 -5 -11 -10 -18 -16c-4 -1 -10 -4 -15 -7c-11 -9 -20 -17 -26 -22c-10 -8 -21 -17 -35 -28c-9 -6 -23 -16 -37 -29
c0 -4 -5 -9 -18 -26c-1 -1 -1 -3 -2 -5v-6c-1 -2 -3 -4 -4 -7c0 -13 14 -25 26 -25c1 0 17 -6 20 -6c6 -1 11 -2 18 -4c13 2 28 3 46 5c20 8 47 21 81 37c-3 4 -6 17 -11 41c-3 25 -6 40 -10 43c-3 3 -5 13 -8 27c-3 15 -5 25 -7 28z" />
    <glyph glyph-name="quotesingle" unicode="'" horiz-adv-x="150" 
d="M134 523l11 -1l9 -7l9 -13l1 -15l-2 -19l-11 -47l-10 -31l-4 -10l-7 -13l-10 -21l-4 1l-1 -1l-2 -8l-1 -1l-4 1l-2 -6v-3l-6 -12l-2 -1l-5 -1l-14 -8l-1 -1l-6 9l-4 20l-1 24l4 32l7 31l10 29l20 41l12 19z" />
    <glyph glyph-name="parenleft" unicode="(" horiz-adv-x="400" 
d="M359 717l13 -2l3 -1l11 -3l10 -6l4 -11l-3 -14l-3 -12l-12 -22l-17 -27l-23 -42l-18 -43l-27 -57l-11 -27l-23 -48l-11 -31l-7 -22l-8 -21l-12 -22l-5 -19l-8 -42l-3 -20l-4 -31v-69l3 -14l-3 -3l1 -11l6 -22l1 -18l9 -28l28 -55l16 -24v-4l39 -48v-12l3 -6l-7 -12h-17
l-3 -5l-8 3h-3l-6 2l-36 27l-17 18l-31 41l-19 30l-21 41l-11 39l-12 52l-5 67l2 50l6 55l19 71l24 79l25 58l44 83l34 50l27 36l31 30l24 19z" />
    <glyph glyph-name="parenright" unicode=")" horiz-adv-x="376" 
d="M162 707h21l20 -10l14 -12l12 -17l42 -75l24 -61l18 -65v-14l3 -15l10 -65v-25l2 -18l-3 -13l-5 -23v-20l-2 -6l-3 -24l-3 -15l-6 -11l2 -7l-3 -5l-7 -9l-7 -17l4 -4v-3l-10 -21l-6 -11l-12 -17l-7 -10l-9 -17l-8 -15l-19 -28l-2 -8l-12 -3h-3l-5 -12l-17 -21l-21 -25
l-34 -23l-10 -9l-31 -25l-13 -14l-16 -6l-8 -11l-9 -6l-17 -10l-2 28l1 9l14 44l36 66l60 82l26 47l20 44l16 48l11 37l8 44l1 42l-2 35l-8 53l-23 80l-23 69l-13 30l-5 23l-2 18l4 11l7 8h3z" />
    <glyph glyph-name="asterisk" unicode="*" horiz-adv-x="389" 
d="M319 737c-2 -14 -9 -33 -22 -58s-20 -43 -23 -56c6 2 21 13 46 34c21 17 37 26 48 26c14 0 21 -7 21 -20c0 -5 -11 -21 -34 -46c9 -2 22 -6 39 -11c18 -5 27 -11 27 -18c0 -22 -29 -33 -86 -33c-13 0 -48 2 -61 2c0 -15 11 -32 34 -51c14 -12 21 -24 21 -36
c0 -7 -3 -16 -10 -27c-23 1 -42 9 -58 24c-20 19 -37 31 -50 36c-12 -19 -32 -47 -61 -84c-25 16 -37 28 -36 36c0 4 3 11 8 21c2 5 6 12 11 21c-47 -25 -79 -38 -94 -38c-13 0 -16 9 -9 26c5 15 21 27 46 35c29 9 49 20 60 31c-5 2 -29 5 -70 8c-35 3 -54 9 -55 16
c-4 20 12 30 49 30h56l-27 27c-10 13 -12 24 -6 33c10 15 24 22 41 22c7 0 13 -1 20 -4l10 -12c11 -1 31 -7 59 -18c15 20 23 32 24 36c6 15 13 26 21 31c5 3 21 9 46 17h15z" />
    <glyph glyph-name="plus" unicode="+" horiz-adv-x="475" 
d="M313 576c6 -4 6 -12 5 -21c-6 -13 -15 -33 -27 -61c-14 -30 -15 -75 -8 -137l117 19c29 0 41 -10 39 -34c0 -2 -2 -8 -4 -14c-9 -23 -21 -34 -39 -34c-13 0 -24 0 -32 2c-13 1 -25 1 -36 0c-46 -9 -72 -34 -78 -76c-1 -12 -1 -26 -1 -41c1 -20 1 -35 0 -39
c-6 -45 -22 -68 -51 -68c-6 0 -14 2 -23 6c-28 11 -38 34 -34 69c4 13 8 39 15 78c6 29 -11 41 -41 38c-12 0 -39 -7 -54 -7c-21 0 -34 13 -36 40c-1 32 15 52 50 61l109 18c7 2 12 15 13 36c-1 14 -1 38 -1 71c0 10 0 21 1 31c5 41 29 71 77 95c9 -8 23 -17 39 -32z" />
    <glyph glyph-name="comma" unicode="," horiz-adv-x="220" 
d="M52 101l22 -3l51 -16l16 -8l15 -20l10 -27l-2 -28l-8 -21l-10 -20l-17 -14l-22 -27l-25 -16l-12 -12l-6 -5l-18 -18l-12 -6l-5 -6l-32 -16l-33 -21l-14 -4l-4 6l-12 8l46 57l36 52l19 21l17 22l7 19l-8 1l-14 -1l-27 6l-7 16v22l4 18l18 28l14 7z" />
    <glyph glyph-name="hyphen" unicode="-" horiz-adv-x="415" 
d="M237 229l35 1h78l18 -2l7 -4v-5l-14 -4l-1 -5l-5 -1l-14 -8l-2 -7l-11 -5l-13 -11l-26 -8l-15 -5l-3 -4l-15 5l-2 -4l-25 -13l-36 -9l-23 -5l-28 1l-25 -2l-34 4l-19 -4l-11 7v5l-8 9l-4 3l1 17l-2 7l10 18l4 6l19 6l31 3l62 8l36 4z" />
    <glyph glyph-name="hyphen" unicode="&#x2010;" horiz-adv-x="415" 
d="M237 229l35 1h78l18 -2l7 -4v-5l-14 -4l-1 -5l-5 -1l-14 -8l-2 -7l-11 -5l-13 -11l-26 -8l-15 -5l-3 -4l-15 5l-2 -4l-25 -13l-36 -9l-23 -5l-28 1l-25 -2l-34 4l-19 -4l-11 7v5l-8 9l-4 3l1 17l-2 7l10 18l4 6l19 6l31 3l62 8l36 4z" />
    <glyph glyph-name="period" unicode="." horiz-adv-x="220" 
d="M48 126l30 -13h5l2 2v5l11 2l-4 -9l4 -5l1 -2l2 2v5h4l7 -11l5 4l4 -2l12 -24l6 5l3 -2l4 -5l9 -11l1 -2l-1 -7l3 -7h-3v-3h1l4 -13l-2 -16l2 -7l-5 2v-2l1 -5l-12 -7l-16 -4l-9 -12l-18 2h-3l-25 8l-25 16l-7 9l-9 2l2 3l-5 6v7l-16 9l-11 5l2 6h2v5l3 5l-2 7l4 4h5
l-3 7l5 3l-4 13l4 1l7 -1l2 1v4l7 9l7 5z" />
    <glyph glyph-name="slash" unicode="/" horiz-adv-x="409" 
d="M410 692h14l17 -15l1 -12l-1 -12v-12l-16 -32l-27 -49l-32 -54l-22 -34l-27 -43l-119 -217l-5 -20l-10 -10l-27 -56l-10 -26l-6 -8l-13 -32l-9 -4l-6 -13l-28 -68l-10 -19l-10 -29l-7 -11h-3l-14 -17l-8 1l-10 5l-2 17l5 29l10 61l24 87l25 74l43 97l51 103l66 118l52 78
l53 72l25 28l22 15z" />
    <glyph glyph-name="zero" unicode="0" horiz-adv-x="562" 
d="M514 262c0 -12 -3 -34 -6 -66c-5 -16 -7 -37 -23 -66c-1 -4 -2 -7 -5 -12v-4l-7 -9c-5 -6 -12 -16 -16 -26c-6 -8 -13 -18 -21 -28l-22 -22c-13 -11 -36 -28 -66 -48c-18 -10 -41 -18 -69 -25c-23 -3 -32 -4 -26 -4c-13 0 -24 1 -32 3c-2 0 -12 2 -29 6
c-8 3 -18 8 -30 14c-20 6 -36 18 -60 36c-7 10 -15 20 -26 34c-5 8 -12 21 -23 40c-2 4 -8 32 -17 83c1 -8 3 6 3 43c0 15 12 53 12 68c6 21 14 46 24 75c3 9 14 30 32 65c7 13 14 24 22 35c1 5 3 11 7 18c-1 1 -1 2 -1 3c0 4 1 8 2 12c11 10 24 22 41 35c35 21 54 30 57 30
c10 0 26 5 47 15c30 13 46 19 46 19h23c6 -4 15 -9 26 -13c6 -5 14 -11 24 -17c5 -6 11 -13 18 -22c6 -14 14 -26 23 -37c1 -4 5 -10 11 -16c1 -1 1 -3 2 -6h-1c1 -7 8 -20 21 -39c3 -6 6 -15 10 -24c6 -16 13 -41 24 -76c4 -13 5 -38 5 -74zM426 353c0 0 -1 2 -3 8
c-2 2 -6 9 -17 22c-3 6 -22 16 -59 29c-5 2 -14 3 -28 2c-13 -1 -22 -1 -27 0c-5 -6 -10 -11 -13 -17c-14 -15 -15 -8 -35 -24c-10 -7 -16 -10 -18 -10c-5 0 -12 -8 -23 -22c-11 -17 -18 -26 -22 -28c-13 -8 -26 -28 -42 -62c-12 -26 -16 -59 -15 -96l1 -23
c1 -7 4 -15 6 -25c5 -4 11 -8 17 -14c6 -2 12 -4 19 -9c4 -5 29 0 30 -3c1 -2 4 -3 6 -3s8 1 19 5c9 2 13 2 17 1s12 4 25 13c13 11 23 16 28 16c18 0 37 13 57 41c11 15 28 37 50 67c7 10 13 31 19 64c6 28 8 51 8 68z" />
    <glyph glyph-name="one" unicode="1" horiz-adv-x="367" 
d="M412 578v-12l-2 -12l-3 -14l-15 -37l-11 -21l-6 -3l3 -7l-6 -6l-21 -42l-10 -7l-3 -7l-2 -4c-2 -4 -4 -8 -7 -11l-7 -14l2 -9l-9 -23l-5 -6l-4 -13l-17 -30l-5 -18l-3 -10l-5 -9l-1 -1v-3c0 -4 -1 -6 -1 -9l-1 -7l-5 -24v-7l-9 -27l-2 -15l-1 -14l-6 -2l3 -15h-4l2 -6
l-15 -46l-4 -18l-4 -5c-1 -2 -1 -4 -2 -7l1 -3l-4 -9v-1c-1 -3 -2 -7 -3 -10l2 -2l-13 -40c0 -1 0 -1 1 -2c-1 -5 -3 -10 -5 -14v-8l-3 -3l-8 -23l-6 -5l-11 -21l-7 -21l-6 -10l-5 -2l-2 4v0c-2 -4 -4 -7 -7 -7h-1c-3 -1 -5 -1 -7 -3l-11 -10l-5 2c-3 -1 -7 -2 -12 -2
c-8 1 -14 8 -14 17l1 5c10 61 21 123 30 187c16 131 50 254 82 380c-55 -42 -61 -56 -113 -65c-12 -2 -34 -9 -50 -10c-14 2 -24 10 -24 22c-1 25 34 56 52 69l50 42c64 48 167 143 215 143c5 0 10 0 14 -1h4l8 -2c1 -1 2 -1 2 -1l3 -1l1 -1c8 -3 14 -10 16 -19v-1l4 -2
l13 -20l3 -18l-2 -10z" />
    <glyph glyph-name="two" unicode="2" horiz-adv-x="725" 
d="M706 88c-11 -11 -15 -16 -11 -16c-2 0 -6 0 -11 -1h-9c-2 0 -11 -1 -27 -3c-1 -1 -8 -1 -21 -2c-6 -1 -23 -4 -52 -7c-4 0 -7 0 -11 -1l-2 -3h-18c-5 -1 -11 -3 -17 -5c4 0 -5 -2 -26 -7c-8 -1 -16 -2 -26 -3c-49 -9 -100 -18 -157 -32c-20 -3 -45 -8 -75 -14
c-15 -4 -36 -8 -66 -14c-16 -4 -26 -6 -29 -6c-6 0 -19 2 -37 7s-27 8 -27 12c0 3 -1 6 -2 7l-4 2c0 2 0 4 1 6c-2 2 -3 5 -3 9c-1 -1 -1 6 -3 20v6c-1 6 -1 12 -1 21c-1 3 -1 7 -1 12c0 8 2 19 18 48c2 1 5 3 8 7c5 6 11 14 20 25c24 25 75 76 190 192c21 24 64 72 104 126
c13 23 19 35 20 35c0 18 -4 26 -11 26c-3 0 -3 7 -5 7c-16 0 -31 0 -44 -1c-6 0 -16 -2 -31 -6c-1 -1 -4 -2 -6 -3c-13 -4 -28 -9 -46 -15c-20 -12 -45 -24 -75 -37c-17 -1 -27 1 -30 7c-6 4 -14 10 -20 16c-2 9 -3 14 -4 15c3 10 31 34 56 48c38 23 77 42 116 57
c10 0 46 14 59 14h57c13 -2 27 -6 45 -11c24 -15 36 -24 36 -27s1 -7 5 -16c4 -7 5 -12 4 -14c0 -4 0 -13 -2 -29c0 -6 0 -11 -1 -16c1 -6 1 -12 0 -19c1 -11 -1 -24 -5 -42c0 -6 -2 -17 -7 -32c-2 -9 -6 -17 -9 -25c-16 -23 -30 -41 -41 -56c-7 -6 -16 -13 -27 -24
c-2 -3 -4 -7 -7 -12c-3 -1 -15 -14 -36 -37c-11 -7 -29 -25 -55 -53c-11 -8 -25 -19 -41 -33c-3 -4 -7 -9 -11 -15l-10 -10c-12 -12 -27 -27 -42 -45c-4 -2 -8 -6 -14 -9c-1 -2 -1 -4 -1 -5c19 3 35 6 48 7c6 0 15 0 23 1c2 1 5 3 8 4c16 1 35 3 58 6c1 1 2 1 5 2
c6 0 15 0 30 1c18 2 31 3 41 4c4 0 12 0 22 1l5 -2h30c1 1 4 1 7 2h29c4 -1 9 -2 15 -3c4 1 10 2 19 3c35 4 55 5 60 5c14 0 26 -4 35 -10c3 -1 8 -4 14 -9l5 -3c7 -7 15 -15 24 -25v-3z" />
    <glyph glyph-name="three" unicode="3" horiz-adv-x="475" 
d="M292 553l43 1l32 -7l24 -11l17 -16l19 -28l10 -16l2 -24l2 -26v-11l-7 -16l-14 -9l-24 -26l-17 -7l-20 -16l20 13l-11 -5l-3 -7l-20 -15l-6 -6l-19 -20l43 -12l45 -10l40 -38l12 -42l-8 -15l-3 -27v-24l-6 -9l-14 -11l-2 -6l-12 -8l-1 -7l-10 -6l-8 -4l-9 -11l1 -2
l-28 -14l-9 -7l-5 2l-8 -5l-18 -6l-10 -10l-23 -3l-19 -7l-31 -14l-26 -10l-12 -9l-6 2l-10 -3l-55 -22l-75 -30h-10l-20 -9l-6 2l-20 9l-11 -6l-9 -6l-15 7l5 8l-1 10l19 25l26 10l17 11l75 44l120 48l85 50l10 26l-11 32l-50 17l-37 1l-20 5l-22 11l-20 13l9 18l10 23l7 2
l8 12l16 18l69 57l4 3l30 35l14 23v12l-26 11l-34 -4l-24 -13l-57 -16l-40 -7l-31 12l-11 9l-3 15l3 14l21 24l26 13l76 37z" />
    <glyph glyph-name="four" unicode="4" horiz-adv-x="590" 
d="M335 633h6l11 -10l10 -32l-5 -44l8 -7l-6 -31l-16 -65l-40 -141l10 2l21 9l22 4l23 11l43 12l7 3l13 3l64 15l23 6l61 13l55 10h7l4 -5l-1 -7l-8 -17l-18 -11v-15l-100 -37l-17 -9l-57 -23l-3 -6l-66 -25l-102 -43l-3 -7h-7l-11 -13l8 -12l-11 -33l-17 -8l2 -11l-7 -31
l-14 -51l-16 -60l-19 -51l-6 -24l-12 -27l-8 -14l-6 -22l-8 -14l-4 -2l-2 33l-7 -6v45l4 30l11 102l21 118v15l-29 -6l-19 6l-32 2l-31 13l-11 6l-13 12l-14 17l-2 24v23l14 44l33 89l41 108l28 91l5 2l24 21l9 3l8 -4l8 -14l-3 -21l-22 -38l-12 -42l-42 -100l-11 -69v-33
l3 -27l11 -9l40 5l46 11l36 145l38 126l24 61l5 18z" />
    <glyph glyph-name="five" unicode="5" horiz-adv-x="513" 
d="M535 574l-12 -19c-6 -5 -15 -10 -25 -16c-4 -3 -11 -8 -20 -12c-1 -1 -2 -1 -4 -2v-2l-5 -3c-4 -1 -5 -8 -6 -8c0 -4 -4 -9 -10 -15c-8 -1 -18 -1 -29 -1c-7 -1 -22 -2 -45 -3c-18 -2 -35 0 -51 1c-8 1 -21 3 -40 7c-8 -5 -16 -12 -24 -20c-8 -4 -16 -10 -26 -18
c-3 -4 -9 -8 -18 -14c-10 -25 -22 -48 -36 -70c-4 -9 -9 -15 -13 -20c-3 -6 17 -25 27 -25c9 0 39 -7 50 -7c6 -2 22 -7 48 -16c20 -6 44 -21 72 -44c4 -6 8 -12 14 -19c2 -1 6 -11 15 -27c0 -3 1 -7 2 -13c6 -14 10 -27 10 -39c0 -2 -4 -11 -4 -12c-3 -8 -7 -17 -11 -28
c-3 -6 -7 -13 -13 -23c-3 -3 -7 -9 -13 -18l-25 -18l-33 -24c-6 -6 -13 -12 -24 -19c-3 -1 -9 -4 -15 -7c-21 -13 -42 -24 -65 -30c-18 -5 -24 -7 -20 -7c-6 0 -11 1 -14 3c-13 1 -33 7 -61 18c-1 0 -8 5 -23 13c-9 6 -14 10 -14 12s1 4 4 6c-4 2 -5 4 -6 8c0 -2 0 -2 1 -2
c0 0 -1 3 -3 6c-1 -2 -2 -6 -1 -12c-1 -2 0 -6 1 -12l-2 -2c0 2 1 5 5 6v1l7 4c-1 0 2 2 10 7c10 7 19 13 27 17c10 9 21 12 35 21c30 17 58 39 84 65c8 9 23 22 42 41c0 1 2 5 2 6c0 6 9 29 9 35s-3 13 -9 20c-20 11 -37 17 -49 17c-6 0 -20 1 -45 2c-23 2 -38 2 -44 0
c-6 0 -25 5 -30 5c-2 0 -8 5 -19 13c-15 22 -23 36 -23 44c0 13 9 33 24 62c9 13 22 38 41 73c-1 4 -2 10 -2 16c1 1 1 3 2 7c-1 6 -1 13 -1 22c0 3 4 12 12 25c16 25 23 41 23 47c-6 6 -9 12 -9 18c6 6 16 9 28 9l6 -1c4 1 10 1 16 1c6 -1 15 -3 26 -5c1 -1 2 -1 4 -2h13
c1 -1 2 -1 3 -2h6c2 1 4 1 6 2c9 -1 21 -1 35 -2c1 0 3 0 4 1c5 -1 8 -1 11 -1c1 1 3 1 4 1c2 0 4 0 5 -1c1 1 4 1 7 2c4 0 9 0 15 -1l29 3c48 3 68 4 61 4h7c13 0 34 7 38 7s35 -12 39 -15c2 -2 5 -4 8 -8c1 -4 3 -9 4 -13z" />
    <glyph glyph-name="six" unicode="6" horiz-adv-x="434" 
d="M422 668l13 -5l10 -5l2 -16l3 -8l-12 -13v-6l-7 -12l-17 -19l-10 -22l1 -5l-10 -11l3 -4l-13 -5l1 -6l-3 -4l-10 -13v-8l-4 -4l-6 2l-3 -4l-11 -5l-2 -9l-17 -19l-22 -27l-19 -28l-16 -17l-7 -15l-26 -39l11 -5l18 3l22 -7l6 -10h12l14 -6l19 -19l7 -25h1l4 -11h8l1 -15
l3 -1l-4 -6l7 -9l3 -26l5 -3v-16l-3 -3v-15l-1 -11l1 -14l-1 -7h-6l2 -15l-4 -7l2 -7l-7 -4v-20l-18 -13l-9 -22l-13 -8l-8 -11l-18 -17l-13 -11l-23 -15l-6 -10l-18 -8l-16 -4l-9 -9l-41 -14l-31 -1l-39 10l-15 7l-10 10l-20 27l-2 7l-9 20l-9 40l-1 48l7 53l16 51l23 46v4
l39 73l29 49l6 6l7 14l16 21l11 16l24 32l13 15l6 6l17 25l80 81l70 56zM211 255h-13l-9 -6l-7 2l-6 -12v-3l-7 -10l2 -4l-8 -6v-3l-6 -21l-4 -1l-7 -24l3 -5l-4 -6l-6 -21l-5 -13l3 -12l-8 -12l4 -2v-14l-1 -36l8 -25l21 -6l24 12l32 27l29 28l13 26l10 41l-2 59l-9 26
l-12 12l-6 5l-7 -1l-12 7z" />
    <glyph glyph-name="seven" unicode="7" horiz-adv-x="477" 
d="M370 683c8 0 20 -4 35 -10c17 -6 27 -12 30 -16c11 -11 17 -17 17 -16c0 -25 0 -37 1 -36c4 -16 5 -31 5 -44c0 -9 0 -18 -1 -29c1 -4 1 -7 1 -12c0 -1 0 -4 -1 -6c1 -1 1 -4 1 -7c-4 -14 -8 -29 -14 -50v-6c-3 -7 -6 -16 -10 -30l-17 -46c-6 -8 -11 -18 -14 -32
c-5 -8 -11 -19 -17 -32c4 -6 6 -11 10 -16c0 -8 7 -14 22 -15h16c1 0 2 -4 5 -10c1 -5 3 -12 5 -25c1 -1 1 -4 1 -8c0 -11 -18 -36 -28 -40c-3 0 -13 -11 -17 -11c-3 0 -18 -8 -21 -8c-1 0 -4 0 -6 1c-3 -1 -5 -1 -9 -2c-6 -4 -13 -6 -22 -10c-3 -2 -11 -6 -26 -11
c-8 -5 -20 -9 -34 -14c-4 -9 -8 -18 -14 -29c-1 -2 -2 -6 -3 -11c-6 -15 -17 -43 -33 -80c-1 -3 -2 -7 -6 -13c-4 -4 -8 -10 -9 -21c-1 -1 -4 -3 -5 -6l-6 -24c-1 -1 -4 -3 -5 -7c-7 -19 -15 -29 -25 -29c-4 0 -14 -8 -16 -8c-1 0 -2 0 -2 1c-1 -1 -2 -1 -4 -1
c-2 5 -2 9 -1 14v7c1 9 5 24 10 45c3 12 14 48 35 109c-9 -1 -18 8 -29 28s-21 30 -29 28c-4 0 -7 10 -11 10c-3 0 -6 20 -6 60c0 8 4 13 10 12c2 0 23 7 61 22c40 15 66 22 79 24c11 25 29 67 54 124c21 51 33 94 35 130l2 36c2 4 3 7 3 11c0 7 -4 11 -12 11l-45 -9
c-18 0 -58 -8 -120 -25c-10 -1 -25 -5 -40 -8c-11 -2 -23 -3 -38 -6c-13 0 -27 -2 -44 -3c-8 -5 -17 -7 -25 -7c-5 0 -18 28 -18 34s9 15 30 31c13 6 30 14 49 24c20 6 43 13 71 21c14 6 68 21 161 42c10 3 21 4 34 4z" />
    <glyph glyph-name="eight" unicode="8" horiz-adv-x="496" 
d="M553 522h12v-4l-12 -3l-4 -6l-16 -10h-8v-2l2 -4l-2 -10h2l26 -3v-4l-42 -12l-40 -15l-6 -2l-5 -6l-20 -8l-46 -26l-21 -15l-22 -13l-16 -16l-19 -15l-13 -13l-22 -14l-3 -13l-6 -2v-6l-11 -22l-2 -11l13 -12l43 -32l52 -49l28 -40l9 -15l9 -20l4 -16l2 -23l-2 -13l-6 -4
l-25 -25l-19 -12l-39 -27l-15 -8l-12 -4l-23 -12l-48 -13l-63 -7l-61 -5l-15 5h-16l-12 10l-16 7l-3 6l-15 32l3 16v14l6 30l27 70l10 19l12 31l44 78l-12 11l-22 24l-20 30l-8 25v16l10 25l12 19l45 49l66 54l88 54l38 20l18 6l24 6l22 -5l14 -11l17 -31l-6 -12l-4 -6l3 -7
l17 -3l2 5l17 5l3 -1l15 3l38 4l19 3l4 -1l6 4h19v-6l-6 -1zM290 122l-48 41l-40 32l-1 -1l-12 -18l-16 -29l-3 -15l-4 -4l-3 -12l-11 -21l-1 -8l-3 -8l-3 -8l6 -10l3 -13l25 -6h21l4 3h25l13 3l41 6l29 5l16 11l-4 11l-5 9zM391 497v4h-15l-13 2l-8 -2l-9 -3l-9 -1l-15 -6
l-13 -9l-14 -9l-20 -12l-20 -18l-38 -33l-32 -30v-2l-9 -13l-4 -4l-7 -12l5 -11l15 -11l48 51l26 29l60 50l32 20h10v6z" />
    <glyph glyph-name="nine" unicode="9" horiz-adv-x="496" 
d="M475 591l6 -6c7 -8 10 -20 10 -36c0 -7 -2 -21 -7 -43c-3 -20 -7 -34 -11 -40c0 -1 -2 -9 -7 -22c-6 -17 -9 -27 -11 -29c-3 -6 -4 -10 -6 -11c-1 -5 -3 -10 -6 -13c-8 -17 -14 -28 -18 -33l-9 -21v-3l-3 -2c-3 -12 -15 -43 -37 -95c-15 -35 -31 -65 -44 -87v-3
c-13 -23 -24 -41 -33 -51c-18 -33 -33 -57 -46 -75c-14 -11 -18 -17 -16 -17c-1 0 -5 -12 -10 -15l2 -4c-15 -15 -24 -25 -29 -29c-6 0 -10 3 -11 8c-1 7 2 16 12 28c4 4 10 15 17 30c9 21 17 35 20 44c7 15 13 28 17 38c18 53 30 79 34 85c2 6 6 16 12 27c7 16 12 27 13 31
c3 9 8 23 9 31c-1 1 -1 2 -2 4c-6 -4 -13 -8 -22 -10c-10 -8 -18 -13 -24 -14c-10 -4 -19 -5 -25 -6c-1 0 -3 0 -5 1c-13 -4 -27 -6 -40 -6h-46c-4 1 -8 2 -16 6c-1 -1 -3 -1 -6 -1c-6 2 -12 6 -19 9c-3 3 -7 4 -8 5c-9 4 -18 14 -29 30c-6 8 -14 20 -24 37
c-10 24 -14 46 -14 64v18l8 33c10 15 23 39 34 53c42 51 84 85 123 103c43 21 71 32 84 33c21 6 39 9 57 9c27 0 44 -2 50 -7c11 -3 24 -12 42 -25c10 -5 20 -12 34 -23zM377 474c4 6 5 24 5 51c0 21 -21 36 -42 36c-1 0 -25 -7 -69 -21c-3 -2 -6 -4 -11 -6
c-7 -4 -15 -8 -21 -9c-12 -6 -32 -24 -60 -51c-9 -10 -21 -34 -37 -72c-11 -28 -15 -35 -15 -23c-8 -9 22 -57 62 -52c-1 0 5 -1 18 -3c13 -3 22 -3 28 -2c18 4 32 6 43 9c13 6 24 9 32 12c11 11 19 20 24 26c11 16 19 30 28 43c8 24 13 45 15 62z" />
    <glyph glyph-name="colon" unicode=":" horiz-adv-x="225" 
d="M113 371l23 -14h4l2 2v6l8 2l-3 -10l3 -5h3v5h3l5 -12l4 4l3 -2l6 -15l5 -11l3 5l3 -2l2 -5l9 -14l-2 -8l2 -11l3 -14l-2 -18l-1 -13l-10 -8l-12 -4l-7 -13l-14 2h-3l-19 9l-20 17l-5 10l-7 2l1 4l-5 6v8l-12 10l-8 5l2 7v5l4 6l-2 7l3 5h4l-3 7l5 4l-4 14l4 1h7v4l5 10
l6 6zM83 121l23 -14h4l2 2v6l8 2l-3 -10l3 -5h3v5h3l5 -12l4 4l3 -2l6 -15l5 -11l3 5l3 -2l2 -5l9 -14l-2 -8l2 -11l3 -14l-2 -18l-1 -13l-10 -8l-12 -4l-7 -13l-14 2h-3l-19 9l-20 17l-5 10l-7 2l1 4l-5 6v8l-12 10l-8 5l2 7v5l4 6l-2 7l3 5h4l-3 7l5 4l-4 14l4 1h7v4l5 10
l6 6z" />
    <glyph glyph-name="semicolon" unicode=";" horiz-adv-x="199" 
d="M118 63c0 -12 -5 -31 -14 -58c-5 -7 -14 -19 -27 -37c-9 -7 -17 -16 -26 -27c-5 -5 -11 -12 -18 -21c-6 -3 -10 -6 -13 -11c-16 -11 -32 -24 -47 -38c-4 -2 -9 -5 -16 -9l-6 7l-8 7c-1 -1 -3 -1 -8 -1c-1 0 -1 1 -1 2c0 3 2 8 5 17l5 13l55 76c4 8 11 19 20 32
c-3 2 -5 4 -7 6c-7 5 -10 13 -10 24c1 5 2 11 3 18c1 4 3 9 4 14c4 7 8 16 12 25c3 3 8 8 14 15c2 1 7 1 16 1c5 0 34 -10 38 -14c15 -11 24 -24 29 -41zM57 371l23 -14h4l2 2v6l8 2l-3 -10l3 -5h3v5h3l5 -12l4 4l3 -2l6 -15l5 -11l3 5l3 -2l2 -5l9 -14l-2 -8l2 -11l3 -14
l-2 -18l-1 -13l-10 -8l-12 -4l-7 -13l-14 2h-3l-19 9l-20 17l-5 10l-7 2l1 4l-5 6v8l-12 10l-8 5l2 7v5l4 6l-2 7l3 5h4l-3 7l5 4l-4 14l4 1h7v4l5 10l6 6z" />
    <glyph glyph-name="less" unicode="&#x3c;" horiz-adv-x="443" 
d="M437 410c-1 0 -1 -6 -2 -6l1 -2c-1 -4 1 -9 -1 -13c-2 -5 -12 -8 -16 -11c-9 -8 -19 -12 -31 -16c-17 -7 -37 -11 -55 -17c-4 0 -7 -2 -11 -3s-6 -5 -10 -7c-4 -1 -9 1 -13 0c-3 -1 -7 -2 -10 -4c-3 -1 -8 1 -12 0c-7 -4 -14 -15 -21 -19c-4 -2 -14 2 -16 -3
c-2 -6 6 -9 9 -12c8 -7 14 -17 22 -24c24 -24 51 -45 71 -72c1 -2 3 -4 4 -6c4 -5 9 -13 11 -19c8 -22 1 -46 -11 -58c-1 -2 -2 -4 -4 -5c-1 0 0 -1 0 -1c-1 2 -1 5 -3 7l-13 13c-10 12 -23 21 -32 33c-9 9 -18 19 -27 28c-13 17 -28 35 -46 48c-15 12 -32 23 -52 31
c-4 0 -8 0 -12 1c-3 1 -6 5 -9 6c-2 1 -6 -4 -8 -4c-4 2 -7 4 -10 5c-2 1 -3 5 -5 5c-6 4 -13 10 -18 16c-1 3 0 8 -1 11c-1 0 0 3 -1 3c0 5 -3 3 -3 8c1 0 4 1 6 1c1 8 0 16 3 21c8 10 24 18 38 21c6 0 12 -3 18 -2c6 2 12 6 19 8c8 2 16 1 24 3c24 7 45 17 66 26
c3 2 8 0 11 2c3 1 5 7 8 8c2 2 5 0 6 2c12 4 22 12 33 17c3 1 9 -4 12 -3c9 6 16 18 25 24c3 1 8 0 11 2c1 1 2 4 3 5c3 2 7 2 11 4c2 2 5 1 7 3c2 1 3 2 5 3c0 1 4 -3 4 -2h4c-4 4 3 -2 5 -4c7 -10 11 -19 13 -34c1 0 1 -6 2 -6c0 -8 1 -4 1 -12z" />
    <glyph glyph-name="equal" unicode="=" horiz-adv-x="554" 
d="M521 120c-1 0 2 -1 1 -1c-6 -17 -27 -22 -47 -24c0 -2 -6 8 -6 7c-11 0 -5 -7 -16 -7c0 1 -9 -3 -9 -2c-12 1 -25 3 -37 4h-24c-5 0 -10 -2 -15 -2c-15 1 -30 1 -45 1c-6 0 -11 -1 -17 -1c-21 1 -42 9 -63 10c-29 1 -57 -4 -85 -3h-12c-9 1 -26 4 -35 2
c-6 -1 -17 -1 -24 1c-6 3 -13 7 -15 14c-1 3 -2 10 -2 14c4 23 29 32 52 37c5 1 17 8 22 7c8 -2 10 -15 16 -17c23 -1 47 5 71 4c19 -3 39 -6 58 -9c9 0 19 2 28 1c16 1 33 -3 49 -3c7 2 12 1 18 3c6 1 13 2 19 3c8 1 15 6 23 7s16 0 24 1c13 2 34 7 46 3
c6 -2 15 -13 18 -18c2 -3 3 -6 6 -9c1 0 -2 -2 0 -2c0 -7 1 -14 1 -21zM135 269c-28 -5 -50 1 -65 12c-5 4 -6 11 -8 18c-1 5 5 11 8 13c2 3 3 8 5 11c6 4 13 7 19 11c4 1 10 -1 14 1c8 3 15 9 26 11c28 6 62 3 98 3c50 0 99 2 149 2c10 1 18 3 28 4c0 1 1 -3 1 -1
c10 0 19 3 29 3c0 -1 2 -3 2 -5c0 0 -1 0 -1 1l1 -1v0c2 0 4 1 6 1c7 -3 12 -10 16 -16c10 -15 6 -52 -4 -63c-15 1 -30 2 -44 2c-5 1 -10 8 -16 9c-3 0 -7 -8 -11 -8c-2 1 -5 3 -8 4c-5 2 -10 5 -15 6c-9 2 -19 0 -29 1c-15 0 -29 4 -44 4c-11 0 -22 -4 -33 -4
s-22 0 -33 -2c-30 -6 -60 -11 -91 -17z" />
    <glyph glyph-name="greater" unicode="&#x3e;" horiz-adv-x="421" 
d="M417 316c3 -6 -6 -12 -8 -15c-7 -12 -15 -23 -23 -34c-2 -4 -2 -9 -4 -12c-7 -10 -9 -22 -17 -30c-34 -32 -79 -52 -105 -90c-1 -2 1 -6 0 -8c-2 -2 -9 -2 -10 -6c-1 -1 2 -5 2 -7c-2 -3 -5 -5 -7 -8c0 -2 -1 -4 -2 -6c-4 -8 -10 -16 -17 -21c-3 -3 -7 -4 -12 -6
c0 -1 -1 -1 -1 -2c-4 0 -1 2 -5 2c0 1 -4 -1 -4 0c-5 2 -6 3 -9 6c-3 2 -7 3 -9 5c-8 9 -18 31 -13 50c2 3 4 7 6 10c0 2 -1 4 -1 6c3 7 12 11 15 17c15 22 36 37 55 55c7 6 15 13 22 20c8 8 33 28 28 45c-4 14 -24 27 -35 35c-20 14 -43 24 -65 36c-13 8 -27 14 -40 22
c-3 1 -6 3 -10 4c-19 8 -42 22 -47 43c-2 0 3 5 2 5c0 4 -4 3 -4 8h7c2 8 12 21 19 23c10 3 22 -2 31 0c8 2 14 7 22 10c0 1 7 0 7 1h5c0 -1 1 -1 1 -2c5 -1 6 -6 9 -8c5 -4 13 -8 15 -13c1 -4 3 -7 4 -10c1 -2 -2 -6 -1 -7c6 -12 9 -18 17 -27c20 -20 49 -34 77 -46
c3 -1 8 0 12 -1c2 -1 5 2 7 1c4 -1 7 -3 10 -3c3 -2 6 -4 9 -5c4 -1 5 -8 9 -9c2 -1 6 4 8 3c4 -1 4 -9 8 -10c3 -2 9 2 11 1c3 -1 4 -5 6 -6c3 -1 4 -6 7 -7c4 -2 16 -6 18 -9z" />
    <glyph glyph-name="question" unicode="?" horiz-adv-x="481" 
d="M444 575c6 -11 9 -21 10 -32c0 -12 -2 -24 -6 -36c0 -2 -1 -6 -2 -10c-2 -5 -4 -10 -5 -16c-8 -9 -18 -22 -29 -37c-4 -5 -11 -12 -22 -20c-3 -3 -6 -7 -10 -12c-11 -10 -21 -20 -30 -29c-7 -9 -15 -17 -23 -25c-54 -45 -110 -89 -138 -149c-9 -20 -43 -56 -65 -56
c-8 0 -13 3 -13 13c0 2 0 4 1 7c-2 1 -4 4 -4 5c-1 4 13 29 19 40c25 50 50 90 80 127c31 36 93 96 102 134v2c0 14 -2 24 -4 31c-2 3 -3 6 -5 8c-3 3 -6 4 -9 4c-2 3 -4 10 -12 9c1 3 0 5 -1 5l-4 -2c0 1 -1 1 -2 1c-2 3 -4 5 -5 8c-6 2 -13 3 -20 3
c-49 0 -87 -51 -126 -54c-12 0 -19 12 -19 21h-5c-6 0 -11 2 -11 7c0 3 1 6 4 10c-1 1 -1 3 -1 4c0 20 55 69 86 84c50 23 91 43 142 43c53 0 110 -34 127 -88zM159 47c0 -1 0 -1 1 -2l4 -18c0 -2 -1 -4 -2 -6c-4 -15 -10 -30 -20 -46c-9 -5 -23 -14 -40 -28
c-2 -1 -8 -2 -16 -2h-3c-10 2 -16 5 -19 8l-16 16c-3 3 -5 7 -8 12c0 1 -2 3 -3 5l2 6c-5 4 -9 10 -14 16c2 5 9 16 23 33c1 3 1 6 4 11c2 1 6 2 10 4l1 4c4 3 9 7 16 13c4 3 9 6 15 9c2 1 9 0 19 -1c2 0 7 -2 17 -6l4 4c1 -2 1 -2 2 -2l6 -8c1 1 3 1 5 1c6 -8 8 -16 9 -24
c1 1 2 1 3 1z" />
    <glyph glyph-name="at" unicode="@" horiz-adv-x="592" 
d="M431 366h1h-1zM565 260v-1v-3s-1 -1 -1 -1c-2 0 -2 1 -2 1v-5c-1 -31 -18 -72 -30 -100c-8 -18 -24 -53 -74 -86c-15 -10 -25 -28 -42 -34c-4 0 -22 6 -26 6c-10 -1 -22 -4 -32 -5c-4 0 -3 1 -4 3c0 -2 -3 -2 -5 -2l2 -2s-2 1 -3 2c0 0 -2 0 -3 -1c2 0 -56 -10 -73 -10
c-16 0 3 1 -46 1c-70 0 -80 77 -80 107c0 77 91 183 187 183c45 0 75 -14 83 -50c1 -1 4 -4 4 -6c0 -36 -35 -87 -35 -119c0 -16 7 -20 26 -20c53 0 80 52 80 99c0 1 -1 1 -2 4c0 2 2 4 2 7c0 8 -4 15 -4 23c0 5 1 10 1 17c0 3 -1 8 -1 12c1 5 2 10 2 15c0 27 -37 63 -58 72
v-1c-9 5 -32 16 -72 16c-96 0 -184 -56 -231 -141c-5 -5 -9 -14 -14 -19c-1 0 -29 -72 -29 -124c0 -88 61 -122 154 -122c29 0 56 6 81 14c6 4 15 14 29 14c7 0 9 -8 9 -16c0 4 -34 -82 -85 -82c0 0 0 1 -1 1c-2 0 -4 0 -4 -1c-10 0 -1 3 -11 3c-5 0 -10 -3 -11 -3
c-26 0 -89 28 -122 28c-2 0 -2 -1 -3 -1s-12 5 -21 9c-59 22 -81 80 -81 146c0 11 0 22 2 33c32 101 107 302 302 329h3h6c7 2 33 2 44 2h8c0 -3 38 -6 45 -9c49 0 107 -60 125 -110c6 -22 5 -42 9 -59c1 0 3 -4 3 -7s-1 -6 -1 -7v0zM347 183c7 15 14 30 19 44
c0 17 -28 31 -32 31c-46 0 -128 -32 -128 -102c0 -2 1 -2 1 -5c0 -2 -1 -2 -1 -5c0 -9 20 -56 47 -56c10 0 55 11 56 12c9 19 26 54 38 81z" />
    <glyph glyph-name="A" unicode="A" horiz-adv-x="411" 
d="M287 609c16 0 24 -6 46 -11c49 -29 38 -52 48 -83v-36c-3 -18 3 -23 -11 -132c0 -21 -12 -25 -12 -88l-1 -1c-1 -2 -2 -6 -3 -13c1 -1 1 -2 1 -3s-1 -3 -2 -6l-2 -6c0 -4 11 -13 11 -17c-1 -3 -1 -5 -1 -6c1 0 1 0 1 -1c-1 -6 -6 -13 -10 -17c1 -5 1 -8 1 -11
c-1 -1 -1 -3 -2 -5c0 -3 0 -5 1 -8c-1 -4 1 -16 -4 -21c1 -6 0 -13 3 -19c-1 -3 -1 -6 -1 -10c1 -2 1 -5 2 -8c-1 -1 -1 -2 -1 -3c0 -2 0 -4 1 -7c-1 -3 -1 -6 -1 -11c1 -15 6 -36 6 -57v-5c1 -5 1 -11 2 -17c0 -1 0 -4 -1 -7v-6c0 -5 -2 -21 -2 -26c1 -2 1 -5 1 -8
c5 5 -18 -30 -18 -37c0 0 -1 -1 -2 -1c-2 0 -3 1 -5 3l-1 -5l2 -10c-1 -1 -2 -2 -3 -2c-3 0 -11 35 -16 56v3c-8 35 -17 76 -23 121l-9 6c-10 17 -25 32 -50 54c5 2 -32 -7 -32 -7h-1c-16 -1 -35 -4 -57 -7c-14 -30 -22 -61 -33 -94l-3 -9c-1 -1 -1 -3 -2 -6l-4 -13
c-1 -3 -2 -7 -5 -14l-7 -17c-3 -7 -6 -17 -9 -31c-16 -16 -24 -21 -34 -21c-16 0 -34 26 -34 42c0 21 10 43 28 100l17 53c2 6 10 20 12 33c-1 5 -2 11 -3 18c2 11 3 9 11 34v1c10 8 16 11 26 34c1 5 9 29 33 79c26 56 57 112 74 162l4 9c2 4 10 20 23 49c1 3 3 6 6 9
c7 15 28 57 45 57zM275 472c-6 0 -21 -34 -58 -131c-2 -3 -29 -54 -40 -111h22c15 0 40 3 76 5c7 7 8 154 8 166c0 3 0 14 -1 33c0 6 -7 37 -7 37v1z" />
    <glyph glyph-name="B" unicode="B" horiz-adv-x="462" 
d="M307 574l40 -1l22 -5l21 -4l31 -15l26 -18l9 -12l10 -31l1 -12l-4 -7l3 -2v-21l-3 -9l-12 -18l-5 -3l-1 -8l-5 -9l-10 -3l-18 -28l-17 -13l-4 -7l-9 -4l-10 -13l-25 -24l-12 -7l-8 -8l-1 -6l-12 -10l42 -8l35 -12l11 -5l13 -11l8 -18l7 -26l-1 -7l-3 -5l-10 -26l-12 -18
l-6 -4l-1 -3l-22 -27l-4 -2l-1 -6l-7 -3l-4 -5l-15 -11l-5 -7l-12 -4l-10 -11v-2h-8l-5 -4l-1 -10l-11 -6l-14 -3l-3 -6l-16 -5l-15 -1l-9 -9l-5 -1l-7 -5l-10 -5l-10 -1l-7 -8l-6 -3l-3 1l-4 -2l-9 6l-15 -13l-8 1l-1 3l-8 1l-7 -5v-3h-3l-5 4l-5 -1l-3 -11l-8 1l-10 -6
l-13 -6l-3 3l2 6l5 -3l3 11l5 1l1 2l10 2v7l4 7l9 2l3 4l17 12l23 20l8 3l21 17l31 17l20 23l7 4l17 12l19 17l12 6l1 5h4v3l11 10l9 3l8 7l28 26l4 6l-4 7l-36 6l-7 -1h-18h-31l-36 -5l-16 -6l-10 1l-29 -4l-9 -6l-13 -19h-4l-11 -13l-3 -7l-9 -16v-8l-8 -20l-4 -4l-8 -23
l-4 -27l-3 -3l-5 -31l-8 -13l-2 -12l-13 -13l-2 -5l-11 5l-11 2l-13 13v43l24 154v17l7 23v20l5 19l-1 3l4 12l1 10l15 92l-4 9l-10 13l-1 14l-4 8l-1 9l8 9l4 9l-3 3l16 19l8 5l15 18l34 26l6 1l25 15l8 2l16 10l40 12l16 2l6 3l14 3h12zM351 448l-39 -8l-27 -9l-20 -10
l-35 -23l-15 -5l-7 -21l2 -7v-18l-3 -7l-7 -33l20 2l14 5l79 43l18 14l32 23l24 26l8 12l-1 6l-6 5l-15 5h-22z" />
    <glyph glyph-name="C" unicode="C" horiz-adv-x="382" 
d="M462 480l6 -41l-9 5l-1 -17l-2 1l1 -8l-11 11l-1 -6l-18 11c-1 -1 -3 -1 -4 -1c0 -1 -1 -1 -1 -1h-4c-5 -2 -10 -2 -10 -2h-7l-6 5c0 1 -4 5 -8 10l-3 5c-1 1 -2 3 -2 3l-2 1h-1l-5 -4v-3l-9 -1h-1c-1 0 -1 0 -2 -2c-4 -3 -11 -5 -20 -9l-14 -11l-16 -11
c-11 -10 -22 -22 -31 -31l-17 -16l-24 -31l-15 -33l-20 -34l-8 -8l-10 -29l-10 -17l-12 -27l-12 -35l-10 -29l-6 -36v-26l5 -20l12 -17l19 -10l21 -3h27l62 11l3 -4h4l-3 -5l7 -3l-3 -3l2 -4h-4l-3 -4l4 -1l2 -6l-4 -1l-9 -5l-30 -14l-2 1l-31 -13l-73 -6l-36 9l-30 14
l-25 18l-17 20l-17 36l-5 28l2 35l4 11l-1 11l2 4l2 20l6 12l8 26l31 68l3 3l8 12l1 5l10 15c2 2 4 4 5 6c10 24 23 36 34 51l11 15l8 10v2l32 39l7 2l1 7l28 34l12 9l7 7l24 28h5l2 5l16 11l8 9l6 2v-2c3 2 5 2 5 2l-1 1l24 10l51 8h10l12 -4l12 -6l5 -5h1c0 -1 1 -2 2 -2
c1 -1 2 -2 4 -3l11 -5l6 -3l1 -1l6 -7l6 -9l5 -9l8 -15l-3 -2z" />
    <glyph glyph-name="D" unicode="D" horiz-adv-x="496" 
d="M477 318c-1 -15 -3 -29 -11 -46l2 -2c0 -13 -12 -60 -56 -107c-29 -49 -79 -78 -122 -118c-10 -2 -16 -13 -59 -36l-4 -3c-16 -5 -27 -11 -54 -26c0 0 -32 -1 -32 -7l-10 -2c-6 -3 -14 -4 -23 -6c0 0 -4 7 -16 10c-1 -1 -2 -1 -3 -1l-5 1c-1 -1 -3 -1 -5 -1
c-1 1 -2 1 -3 2c-1 -1 -3 -2 -4 -2s-4 2 -7 6v-2h-1c-1 0 -2 0 -2 -1c-3 2 -6 6 -7 10l-1 -1s1 0 1 -1h-3c-1 1 -4 4 -5 4c-1 1 -3 0 -5 -1l-2 -2h-11l-1 2h-4c-3 2 -3 7 -3 13c1 1 2 4 3 6l2 8c5 11 12 24 18 39l3 53v0s0 4 2 14l2 17c8 45 12 59 31 185l3 3l7 30
c-9 -17 16 72 17 72l3 9c0 11 8 28 9 46c3 61 24 52 31 57c0 2 31 32 51 31c3 0 8 0 12 -2c9 2 15 2 32 8c1 0 3 0 5 -1c1 0 2 2 4 3v0s11 -8 48 -20c18 -5 9 6 87 -53c10 -11 26 -13 48 -58c4 -21 -2 18 26 -55c2 -12 14 -36 12 -75zM393 290c1 6 2 12 2 17
c0 10 0 19 -2 26c-1 6 -3 27 -31 79l-18 21c-27 25 -54 29 -106 47c4 0 -39 -17 -39 -29c-1 -3 -1 -8 0 -14c-4 -13 -6 -30 -10 -47l-1 -11c-4 -8 -7 -33 -15 -77l-2 -5l-3 -21c-1 -8 -4 -24 -10 -47c-4 -30 -15 -42 -23 -120l-2 -6l-1 -14c0 -3 -3 -10 -3 -13
c0 -6 1 -15 1 -26c74 29 20 -2 135 69c79 58 118 102 128 171z" />
    <glyph glyph-name="E" unicode="E" horiz-adv-x="488" 
d="M552 528c-12 -12 -41 -14 -53 -15c-7 -3 -17 1 -29 -5c-1 1 -3 1 -4 1l-10 -6c-6 -6 -7 -4 -15 -6c-1 0 -3 0 -5 1c0 -1 -6 -2 -19 -6l-14 -4l-9 -2c-1 1 -3 1 -4 1c-4 -4 -22 -3 -32 -4h-4c-3 0 -11 -4 -12 -4c-48 -10 1 23 -90 -44c-1 -1 -20 -12 -33 -28
c-4 -12 -34 -56 -34 -90c0 -2 1 -4 2 -5l32 2c11 1 24 1 41 2c7 0 13 -1 21 -1c7 0 15 1 23 1c9 -2 16 -2 34 -2l4 -2l27 6h-1c8 0 14 -1 17 -4v-2c1 -1 1 -7 1 -19l-11 -7l-8 -3l-3 -3l-14 -3c-1 -1 -6 -4 -14 -7l-14 -6c-4 -4 -23 -8 -75 -17c-12 -14 -43 -44 -57 -54
c-3 -7 -8 -15 -14 -22c-7 -2 -32 -1 -32 -14c0 -47 15 -63 51 -65l1 -12l5 -4h21l31 4l39 7l18 5l37 9l1 -3c1 -1 1 -2 1 -3c-1 -3 -1 -5 -1 -6l1 -1v-2c0 -2 0 -3 1 -5c-2 -2 -4 -4 -5 -6l-1 2c0 -2 0 -4 1 -6c-5 0 1 -8 -10 -19v-2c-2 -5 0 -8 -12 -22v-4
c-39 -19 -45 -22 -95 -26h-13s-1 -1 -3 -1c-3 0 -9 1 -19 3c-29 5 -18 -6 -66 23l-5 6c-18 18 -30 22 -53 116c1 3 1 6 1 10s-1 13 -2 20c3 22 5 54 12 96c0 27 8 26 38 143l-3 6c-4 8 -7 18 -10 30c3 2 5 4 8 7v3l5 5c-1 1 -1 3 -1 4c2 7 8 16 17 28h2l7 7c7 7 20 16 27 26
c-2 1 -3 6 -3 15c29 19 36 13 46 13c3 -1 6 -1 9 -2h3c3 0 9 -1 10 -1c11 0 30 3 57 3h35c6 -1 12 -1 19 -2h68c5 -1 10 -1 16 -1h-1c0 4 105 -3 123 -21v-6z" />
    <glyph glyph-name="F" unicode="F" horiz-adv-x="433" 
d="M475 537c0 -21 -27 -37 -59 -37h-8c-3 2 -2 21 -27 21c-19 0 -39 -4 -58 -10c-15 -5 -68 -18 -110 -41c-5 -28 -15 -70 -28 -125c-1 -16 -4 -30 -10 -43c0 -17 8 -30 17 -30c2 0 21 5 57 16c13 4 61 26 110 26c16 0 26 -4 26 -24c0 -4 -17 -13 -38 -22
c-42 -16 -21 -10 -132 -40c-13 -3 -36 -2 -62 -42c-28 -111 -28 -207 -76 -207c-3 0 -5 0 -8 1s-44 21 -44 32c0 53 6 64 38 222c-2 4 -3 8 -3 11c0 8 4 14 7 19c0 -18 36 183 55 214c0 5 -1 9 -1 14c0 35 9 55 34 55c47 0 39 -10 56 -10c44 0 194 47 209 47
c18 0 55 -26 55 -47z" />
    <glyph glyph-name="G" unicode="G" horiz-adv-x="558" 
d="M502 294l12 -38v-27l-6 -23l-5 -11l-16 -47l-30 -66l-7 -22l-17 -33l-12 -34l-4 -26l-4 -1l-4 -22l-21 -40l-11 -46l-9 -31l-1 -13l-9 -9l-1 -10l-2 -3h-1l-2 -15l-15 -25v78v146l7 38c-8 3 -17 4 -27 4c-31 0 -127 -32 -157 -32c-78 0 -136 92 -136 189c0 23 2 48 8 70
l7 22l27 58l13 20c53 101 83 120 135 165l34 30l18 6l16 12l19 3c18 7 36 11 55 14l2 2l4 -1l18 5l32 4l10 -3h11l18 -8l-1 -31l5 -7l-4 -11l-17 -17l-16 -6h-3l-7 -3h-17l-7 5c-5 0 -9 -1 -14 -1l-17 -7h-18l-21 -13l-9 -8l-3 -8l-7 -5l-46 -54l-29 -24
c-10 -24 4 -20 -18 -48l-32 -34c0 -5 -6 -44 -13 -52l-13 -17l-2 1c-9 -16 4 -29 -5 -36c-2 -16 5 -21 4 -32c4 -15 5 -13 13 -28c11 -21 -1 -18 16 -26l9 -11l16 -12l27 -6c5 1 9 1 14 2l29 2l49 21l29 10l7 9l31 55l3 16l19 46l15 41l6 5l1 11l10 6l15 15h6l10 -4l6 1
l10 -12l13 -6z" />
    <glyph glyph-name="H" unicode="H" horiz-adv-x="506" 
d="M436 591l10 -4l14 4l17 -12l2 -8l4 -32l-14 -109l-4 -19l-12 -52l-9 -36l-5 -10l1 -1l37 -9l16 -6l13 -4l-2 -8l-8 -1l-4 -4l-15 -6l-8 -8h-13l-25 -3l-12 -11v-10l-8 -8l-6 -23l-12 -24l-5 -24l-5 -32l-6 -16l-2 -14v-19l-6 -12l2 -9l-3 -23h1v-12l-3 -7v-17l-4 -2
l-2 -8l2 -3l-1 -5h-3l-9 -8l-4 2l-2 -7l-5 3l-3 -1v-3l-5 -2l-1 -4l-4 -5l-12 -2l-7 7l-6 11l-5 23l-7 52v45l8 77l12 75l-22 -3h-25l-47 -12l-26 -3l-9 -3l-7 -30l-4 -7l-2 -12l-3 -7l-10 -20l-2 -13l-6 -14l-4 -17l-14 -35l-14 -30l-12 -26l-2 -21l-4 -5l-1 -7l-5 -8
l-3 -12l-3 -4l-1 -2l-21 -18l-2 12l-2 25l-4 16l-1 11v47l6 71l-1 9l4 13l8 63l25 133l15 48l12 27l1 11l15 46l10 19l13 30l13 28l4 4l4 9h4l3 3h5l3 2l13 1l18 -7v-2l6 -2l11 -41l-5 -38l2 -3l-4 -6l-2 -28l-4 -30l-15 -51l-6 -23l-5 -4l-1 -14l-5 -9h49l41 9h15l21 3
l12 50l21 63l2 10l4 4l-1 2l14 44l26 60l10 28h3l2 6l6 1z" />
    <glyph glyph-name="I" unicode="I" horiz-adv-x="237" 
d="M228 561h7l14 -6l8 -11l3 -24l-3 -50l-13 -29l-14 -30l-36 -103l-33 -90l-8 -30l-8 -16l-3 -17l-7 -15l-4 -17l-10 -60l-7 -30l-6 -33l-14 -36l-13 -14l-16 -9l-11 6l-3 46l2 6l-2 8v29l2 23l-2 5l-1 49l1 36l6 28l7 39l7 22l13 61l6 12l11 37l18 53l1 14l9 14l9 21
l13 22l1 7l21 36l5 3l9 17l20 18z" />
    <glyph glyph-name="J" unicode="J" horiz-adv-x="598" 
d="M701 597h14l48 -7l39 -12l7 -5l-14 -10v3l-5 -4l-10 -2l-7 -6l-17 -4l-45 -28l-31 -14l-7 1l-9 -7h-7l-17 -11l-5 1l-10 -5l-2 2l-16 -7l-4 -7l-9 -5l-39 -12l-8 -5l-31 -10l-30 -6l-23 -7l-8 -35l-2 -19l-8 -24l-19 -82l-4 -5l-8 -20v-5l-9 -11v-6l-3 -2v-4l-16 -40v-13
l-5 -16l1 -4l-6 -13l-3 -12l-5 -7v-17l-9 -43l-4 -5l-1 -8l-4 -6l-1 -10l-7 -26l-16 -31l-1 -13l-16 -22h-2l-11 -12l-2 -6l-19 -10l-21 -8h-18l-13 -3l-2 -2l-8 3h-11l-8 -3l-11 3l-42 10l-5 6l-17 5l-9 5l-23 18l-9 16l-8 5v8l-8 19l-6 7l-3 17l-3 2l1 6l-3 4l6 8l-3 3
l-1 5l4 25l7 11l9 28l9 16l2 8l13 22h3l-2 -16l-3 -3l-2 -8l4 -3l1 -9l-5 -12l2 -10l-2 -16l8 -7l5 2v-24l-5 -12h5l3 3l3 -2l14 -21l15 -5l5 -5l14 -7l2 -3h9l23 -12l12 -4l6 -4l31 3l9 6l19 7l10 10l10 43l8 16l12 63v28l10 95l4 8l12 71l4 7l4 34l16 64l-22 -3h-14
l-85 -9l-31 -8h-30l-4 2l-5 10l-2 10h4l1 5l14 14l14 5l74 37l3 -1l15 6l4 -5l4 2l5 8l-4 4l15 4l4 -3l14 4l18 10v3h33l3 3l-1 11l4 1l8 29l3 2l10 -4l-2 10h2l4 -5l4 2l3 16l8 -6l13 -20h12l12 4l19 -2l2 -2l15 2l1 -2l15 2l5 3l14 2v-3l-7 -5l6 -3l23 6l24 2l5 4h12l17 8
l-2 2l2 5l16 7h14l23 5l5 3l12 -1z" />
    <glyph glyph-name="K" unicode="K" horiz-adv-x="572" 
d="M59 -5l-8 4l-2 9l-10 6v20l6 17l16 82l15 63l4 10l2 16l28 79l4 19l17 39l7 10l3 18l13 25l2 19l8 16l1 14l18 34l11 14l14 13l10 2l29 7h21l12 -12l1 -12l-5 -51l-3 -10l-7 -25l-6 -11v-7l-4 -14l-17 -37l62 37l19 7l60 33l4 4l101 65l32 21l12 3l6 5h4l14 6l4 -2l8 1
l45 15l10 -6l1 -10l-20 -21l-14 -10l-17 -17l-16 -25l-16 -19l-28 -22l-31 -23l-32 -25l-67 -44l-32 -12l-8 -5l-19 -9l-6 1l-9 -6l-12 -8l-14 -8l-15 -5l-19 -14l-12 -5l-6 -12l9 -8l27 -17l2 -3l10 -4l64 -39l24 -16l90 -71l11 -18l10 -4l25 -25l16 -26l-1 -14l8 -9l3 -6
h3l1 -4l3 -2l2 -5l-6 -3l-2 -5l-3 1l-4 -6l-8 3h-12l-6 8l-6 -3l-5 3l1 13l-7 -12h-4l-27 15l-18 8l-71 41l-15 6l-142 77l-5 5l-7 3l-29 24l-13 -38l-9 -12l-7 -15l-18 -42l-21 -40l-15 -18h-15v9z" />
    <glyph glyph-name="L" unicode="L" horiz-adv-x="331" 
d="M318 -3h-4l-3 -4l4 -1l1 -7h-4l-9 -5l-31 -11l-2 1l-32 -10l-33 -5l-41 5l-35 12l-28 17l-24 21l-15 22l-3 9h-2v4c-3 4 -5 12 -8 23v4c-1 5 -2 11 -3 17l-2 4c0 3 0 5 1 8l-2 10v11c1 6 1 10 1 11v4c5 27 6 52 21 116c19 93 14 52 66 253c0 1 21 45 21 64
c0 -1 2 42 17 57v10l2 1c2 2 11 12 12 12h5c2 -1 4 -1 6 -1c5 -4 58 -32 58 -85c0 -44 -7 -44 -24 -130c-4 -4 -11 -10 -32 -87v-6c-9 -22 1 -3 -34 -92l-1 -1c-1 -1 -2 -3 -3 -6v-5c-4 -12 -25 -76 -25 -123c0 -2 0 -4 -1 -6l1 -5c0 -1 0 -1 1 -1v-13l10 -40l11 -19l18 -12
l20 -5l27 -2l90 6h6v-10l4 -3l-3 -3z" />
    <glyph glyph-name="M" unicode="M" horiz-adv-x="660" 
d="M579 632c10 0 23 -4 41 -19c16 -12 8 -11 20 -57v-36c-1 -14 -6 -40 -6 -71l-2 -4c-5 -27 -12 -68 -21 -122c-8 -30 -3 -56 -16 -82v-9c-1 -3 -1 -6 -2 -10v-11c-4 -4 2 -22 -9 -56c1 -1 1 -3 1 -6l-1 -4c3 10 -9 -33 -9 -62c0 -3 0 -4 2 -8c-1 -1 -1 -3 -2 -5
c0 -4 0 -8 1 -12c0 -1 0 -4 -1 -7l-1 -7c0 -21 -14 -34 -15 -34l-1 -1c-1 -3 -4 -7 -8 -14l-3 -2l4 -1l-3 -6l-1 -8l-6 -8l-2 -15l-5 -3l2 -1l-3 -1l-2 -3c0 -2 0 -6 -1 -9l-3 -3l-1 -6c-1 -1 -3 -1 -5 -2c0 2 0 4 -1 7v1c-1 3 -2 8 -4 14l-1 8c0 3 -1 11 -2 24v3
c0 1 0 3 -1 6v10l-2 3c1 1 1 4 1 7l-1 43l1 261c0 15 -1 21 -4 32c0 12 1 25 3 39v6c3 13 3 22 3 28l1 4c-2 -1 -5 -4 -9 -7c-4 0 -14 -7 -30 -23l-18 -31c-1 -2 -1 -4 -2 -7l-8 -13c-8 -14 -11 -24 -16 -30l-5 -4c-2 -6 -3 -18 -12 -27v-3l-9 -17c-2 -5 -6 -11 -11 -21
l-3 -5c-1 -1 -13 -25 -19 -25c1 0 -24 -29 -26 -29v0c-3 -2 -5 -4 -8 -5c-22 6 -48 33 -58 35c-30 12 -53 40 -61 96v36c1 7 1 15 1 23c-1 -1 -2 -4 -4 -7l-4 -7l-4 -9c-2 0 -1 -15 -20 -50c-4 0 -9 -13 -22 -47c0 0 -11 -24 -24 -83l-9 -31c-1 -3 -1 -6 -1 -9
c-6 -35 6 44 -22 -107c-6 -14 7 -8 -27 -59l-2 2c-1 -1 -1 -4 -3 -4c-1 0 -2 0 -3 1l-6 3c-2 1 -4 3 -7 4c0 0 1 0 1 1l-4 2v3c-6 22 -11 40 -11 59c0 2 1 9 2 21c21 63 -26 -54 65 317c9 21 17 59 37 101v3c3 4 7 9 10 13l4 4c1 4 3 9 4 13c1 1 14 37 52 37c3 0 9 -1 20 -4
c9 -2 18 3 51 -40c7 -16 12 -14 16 -73v-50c-1 -10 -1 -18 -1 -24v-59c0 -5 1 -18 3 -40c0 0 15 34 43 62l18 33l4 4l9 17c11 19 18 36 52 92l15 24c4 6 11 18 20 33c4 8 26 30 46 65c3 11 12 9 36 44l6 4c4 5 10 7 19 7z" />
    <glyph glyph-name="N" unicode="N" horiz-adv-x="612" 
d="M609 655c0 -1 0 -4 -1 -9l-2 -8c-1 -5 -4 -16 -8 -31v-3c-1 -1 -1 -3 -2 -5c1 -2 2 -4 3 -7c0 -5 0 -13 -2 -26c-7 -48 7 -50 -25 -208c1 -2 2 -5 3 -8c-2 -24 -10 -64 -10 -83v-14c-5 -33 -7 -61 -23 -123c0 -20 -14 -86 -33 -86l-6 -4c-3 -3 -22 -10 -40 -13l-1 -1
c-18 -18 -31 -33 -54 -33c-9 4 -15 0 -38 32c-41 50 -74 87 -109 167l-6 9l-30 66c-3 6 -15 48 -34 52c-4 -13 -9 -33 -15 -60c-4 -11 -14 -40 -26 -92v-6c-5 -12 -15 -41 -32 -127c-11 -11 -3 -51 -47 -80l-1 1c-2 0 -6 -11 -19 -11c-1 0 -2 1 -3 2l-4 4
c-7 3 -11 13 -11 30v0c5 0 -5 20 6 61c14 38 12 50 20 85l7 31c11 50 24 125 46 225c3 15 19 137 50 137h6c3 1 5 1 6 1c22 -2 22 -7 35 -20l21 -26c9 -24 6 -18 60 -126c7 -28 0 11 55 -129c6 -9 18 -23 35 -76l8 -12c2 -5 5 -10 8 -15c7 7 5 4 32 16l8 7c5 19 -1 16 16 67
c7 20 34 167 43 219c2 7 11 71 49 198c0 35 31 43 53 48c9 0 11 -7 12 -16z" />
    <glyph glyph-name="O" unicode="O" horiz-adv-x="564" 
d="M539 234c0 -2 0 -5 -1 -9l-3 -21c1 0 1 0 2 -1c0 -8 -7 -23 -14 -44c-22 -63 -24 -60 -53 -95v-4c-14 -14 -13 -16 -65 -53c-23 -8 -9 -18 -113 -41h-9c-3 0 -10 -3 -13 -3c-45 0 -92 10 -148 49c-18 13 -30 21 -56 63c-3 8 -13 26 -25 85c0 -1 0 -1 1 -1c-3 0 4 22 4 65
l9 36c9 18 10 33 36 78c12 20 40 72 88 120l8 10c2 1 6 4 11 9c16 15 33 22 51 22l11 7c12 0 2 4 61 20l2 2h9c1 1 3 1 5 2c3 0 8 -1 16 -3h10c7 -5 18 -12 30 -22c7 -3 18 -27 44 -45c4 -5 9 -13 17 -17l15 -15c3 -5 7 -11 13 -20l7 -7c2 -5 4 -10 7 -15v-4
c5 -5 7 -15 18 -29l3 -10c2 -9 9 -27 16 -91v-13c0 -1 1 -2 3 -3zM449 249c0 56 -10 96 -53 139l-24 24c-8 5 -20 12 -35 21c-7 -5 -15 -8 -25 -8h-30c-9 0 -28 -21 -49 -41c-15 -8 -28 -32 -63 -91c-6 -19 -44 -76 -44 -134c0 -27 -9 -30 25 -79c4 -5 23 -35 106 -35
c-7 0 35 3 44 5c7 1 47 10 85 48l24 36c2 2 14 21 32 67v6c5 16 7 30 7 42z" />
    <glyph glyph-name="P" unicode="P" horiz-adv-x="419" 
d="M452 398c-5 -6 4 -33 -53 -82l-4 -5c-9 -8 -32 -27 -74 -53l-13 -6c-16 -12 -31 -18 -87 -38l-7 1c-1 -2 -49 -63 -64 -61c-2 -13 -4 -27 -9 -40c-8 -25 1 -6 -25 -87l-3 -7c-7 -15 -13 -32 -20 -50c-1 0 -7 -12 -8 -13h-2c-4 -13 -22 -30 -32 -28c-32 22 -24 67 -21 140
c10 58 41 209 64 305c2 4 17 47 20 75c-1 3 0 8 -1 11l-1 14c-1 8 -2 13 -1 17l1 3c-2 2 -4 7 -5 12c2 7 9 16 24 25c9 8 68 44 105 40c8 -2 32 -2 43 -2c14 -2 23 0 71 -19c50 -29 82 -33 100 -112c-1 -1 -1 -3 -1 -4l3 -7c0 -3 1 -5 1 -9c0 -5 -1 -11 -2 -16
c0 -1 0 -2 1 -4zM391 395c1 13 0 22 -4 30c-2 5 -12 17 -48 40c-17 9 -44 12 -45 12c-4 1 -7 1 -10 0h-22c-9 1 -41 8 -47 -42c0 -5 -1 -10 -1 -18c-3 -11 -3 -25 -5 -42c-6 -25 -11 -35 -26 -126c3 0 12 2 27 6c62 22 71 27 122 66l23 21c6 4 33 32 36 53z" />
    <glyph glyph-name="Q" unicode="Q" horiz-adv-x="577" 
d="M311 601l7 -3l8 -2h18l7 -6l8 -1l5 -7l-10 -12l2 -10l5 -4v-7l-2 -4l-2 -19l-6 -17l-12 -5l-25 -5l-14 -16l-33 -43l-7 -17l-16 -25l-44 -94l-22 -59l-10 -23l-11 -34l-12 -69l-4 -28l8 -19l1 -28l33 -14l34 -3l41 21l12 11l24 13l29 30l47 47l-7 12l-31 44l-14 26
l-15 43l-10 38l-8 40v45l-2 6l20 14h24l3 -8h16l3 -3l8 -29l9 -14l21 -45l9 -14v-5l4 -3l20 -32l6 13l9 38l13 65l2 24l2 5l4 61l-4 39l3 2l8 -22l7 -10l2 -2v-24l5 4l2 -4l-2 -20h6l2 -7l-3 -20v-32l6 -7v-8l-2 -11l6 -6v-14l-5 -20l-5 -7v-6l3 -8l-7 -14l-1 -10l7 -17
l-5 -27l-15 -27l42 -81l26 -46l20 -39l19 -38v-3l1 -18l3 -2l-1 -4l-6 1l-3 -11l-14 -9l-14 8l-5 -4l-8 5l-18 7l-1 6l-5 -2l-29 25l-34 37l-33 43l-3 -2l-2 4l-3 -5h-4l-4 -13l-24 -30l-11 -8l-5 -10l-20 -13l-14 -9l-27 -15l-28 -8l-8 -6l-12 3l-2 -4l-10 1l-12 -6h-9h-33
l-37 15l-23 11l-6 6l-24 30l-16 30l-13 41l-10 56l4 83l7 30l12 33l13 33l69 121l22 29l3 9l29 34l45 49l12 6l6 8l27 22l3 4h13z" />
    <glyph glyph-name="R" unicode="R" horiz-adv-x="532" 
d="M557 75l-2 -2c-4 -4 -17 -4 -24 -11c-5 0 -8 0 -9 1l-2 -3c-3 -1 -5 -1 -8 -1c-1 1 -2 1 -3 1h-5c-8 9 -39 16 -72 32l-18 6c-15 5 -46 20 -91 43l-6 3c-21 9 -46 21 -75 34l-21 7l-9 -3c-21 -13 -36 -26 -64 -31l-3 -13v-8c0 -16 -10 -36 -17 -56v-3
c0 -4 -12 -45 -12 -45v-1c-9 -15 -10 -19 -23 -40l-8 -8c-1 -1 -5 -1 -11 -1c-1 0 -15 7 -30 28l-2 2v14c-1 1 -2 2 -3 5v41c1 3 1 6 1 10s0 8 -1 12c4 12 6 35 8 56v2c0 7 3 20 8 38c14 50 6 38 15 72c14 52 18 80 40 152v6c1 2 3 5 5 9v7c0 7 4 20 12 38c4 9 0 20 51 33
c3 -1 6 -1 10 -2h12c3 1 7 2 14 3c15 9 100 55 122 55c-1 0 46 10 58 10c14 0 29 -3 48 -10c-5 4 63 -25 63 -97c0 -13 -1 -23 -4 -29v-3c-17 -42 -7 -28 -122 -107c3 2 -64 -33 -64 -44c0 -2 1 -3 2 -3l-9 -8c-5 -1 -7 -7 -7 -17v-5c-2 0 -3 -3 -3 -10l-1 -1
c0 -6 65 -32 245 -134c10 -7 12 -25 15 -25v1zM424 479c-2 0 -14 4 -24 6c5 5 -52 -15 -68 -15c-9 -7 -23 -8 -81 -48c-8 -5 -19 -27 -42 -76c-7 -29 -11 -44 -11 -44c19 5 39 10 74 25c15 10 23 -4 117 90c24 24 35 61 35 62z" />
    <glyph glyph-name="S" unicode="S" horiz-adv-x="479" 
d="M461 532c2 -11 10 -50 8 -50v1s-1 -4 -4 -12c-6 -17 -26 -6 -26 -10c0 -2 1 -2 1 -2c-6 -1 -15 -1 -22 -1c6 0 -27 4 -27 7c0 7 -22 7 -27 10c-3 -2 -7 -2 -12 -2c-4 0 -9 0 -15 2c-2 -1 -5 -1 -8 -2c-7 -2 -17 -5 -29 -9l-7 -5c-2 -1 -5 -3 -7 -5l-11 -6
c-1 -1 -2 -4 -4 -5c-21 -16 -26 -27 -38 -45l-4 -7c-10 -20 -25 -39 -20 -82c1 -12 16 -30 23 -43c46 -40 62 -35 156 -100c14 -15 50 -43 56 -94c3 -23 4 -44 -5 -67l-26 -39c-13 -9 -50 -22 -83 -25c-20 -3 -38 -3 -56 -2c-7 0 -23 -1 -38 2c-3 1 -33 4 -44 10
c-3 0 -6 0 -9 1l-1 -1c-2 1 -3 1 -4 2c-5 1 -11 2 -16 4c-3 1 -47 8 -50 18l-7 -3c-3 1 -5 3 -7 4l-11 10h-4c-1 0 -3 0 -5 1h-6c0 2 0 2 -1 2h-5c-2 1 -4 4 -7 5l-6 2v4c3 4 6 11 11 21c-1 0 -2 2 -2 2c0 4 19 29 54 29c19 0 34 -10 41 -10h6c8 -3 24 -11 68 -19
c11 -7 28 -10 51 -10c12 0 33 19 33 32h4l10 6l2 8v7l-5 8l-6 6l-12 11l-7 3l-10 7l-20 11l-8 6c0 4 -11 8 -11 12c0 14 -36 27 -81 62l-14 17c-31 23 -38 39 -52 98c2 11 3 15 4 17c-1 2 -1 5 -2 8c0 0 8 38 26 91c0 14 23 27 23 36c11 14 -4 13 51 48c66 46 60 35 98 48
c21 8 45 8 75 15c1 0 3 0 5 -1c2 1 5 1 8 1c2 0 5 0 8 -1c2 1 3 1 5 1c1 0 3 0 4 -1l12 -5c16 -4 24 -14 39 -32z" />
    <glyph glyph-name="T" unicode="T" horiz-adv-x="483" 
d="M590 520c-1 0 -3 -3 -8 -9c-14 -8 -31 -9 -71 -26h-21c-1 -1 -6 -4 -7 -5h-2c-1 1 -3 1 -5 2c-3 0 -6 0 -11 -1l-3 -3c-3 1 -6 3 -10 4c-3 -1 -8 -2 -13 -3l-6 -3c-6 0 -13 0 -22 -1l-5 -1h-24c-4 0 -8 0 -13 -1h-6c-12 -12 -10 -43 -51 -211c-7 -29 -32 -146 -43 -185
c-2 -7 -12 -33 -12 -47v-21v-3c0 -5 -2 -15 -5 -27v-6c-3 -8 -6 -13 -7 -14s-29 -18 -30 -18h-1c-3 -2 -7 -4 -11 -5h-3c-1 -1 -1 -1 -2 -1h-2c-4 6 -7 58 -7 64c1 2 1 4 2 7c0 3 -2 7 -2 10v28c0 8 3 21 4 35c-1 1 -1 3 -1 5c1 27 4 48 7 73v6c1 4 3 9 4 15c0 1 0 3 -1 5
c2 9 4 19 5 32l2 4c2 27 7 31 19 103c5 15 -1 15 28 121c-4 0 -7 19 -10 19c-5 14 -9 11 -25 13c-1 -1 -3 -1 -6 -1h-25c-41 0 -132 0 -149 57c0 6 16 17 24 17c2 0 5 -1 9 -3c8 3 23 6 46 6h17c5 1 10 2 17 3h3c3 0 5 0 8 1c3 -2 7 -4 12 -5c4 1 9 1 16 2l45 -3
c24 2 47 3 70 3c21 0 34 -2 71 -4h-1s15 2 45 4v0c0 1 10 -1 28 -1h28c3 0 15 0 35 -1c9 0 37 -7 48 -7c3 0 28 -21 28 -23z" />
    <glyph glyph-name="U" unicode="U" horiz-adv-x="551" 
d="M590 496c0 -2 -1 -9 -3 -20l-3 -16c-3 -19 -13 -43 -23 -81l1 2c-2 0 0 -20 -28 -77c-6 -24 -17 -32 -55 -123c-13 -12 -33 -60 -56 -94c-6 -7 -18 -32 -55 -58l-11 -12c-3 -2 -24 -20 -27 -20c-8 -7 -39 -33 -59 -31c-2 1 -4 1 -7 4c-11 -9 -33 -8 -53 -6
c-33 4 -93 41 -126 130c0 6 -13 37 -12 41c0 6 -8 38 -8 47c-2 18 -3 39 -1 59c1 5 11 84 34 144c32 81 66 121 81 119c3 -6 4 -8 4 -9l3 6c0 -3 0 -3 1 -3c0 0 1 0 1 3c-1 0 -2 -3 -3 -4c1 0 4 -5 3 -7c0 -4 -2 -7 -3 -13c0 -4 1 -7 4 -15c-1 -10 -7 13 32 -50
c4 -13 5 -28 6 -45l-2 -19l-6 -24l-1 -12c-2 -5 -3 -20 -6 -40c-1 -10 -2 -25 -2 -34c3 -5 0 -56 3 -57c5 -3 10 -48 20 -49c3 0 7 -31 12 -31h2c5 -1 7 -21 10 -21c1 2 2 3 3 3c3 0 5 -9 8 -9l1 -1c2 -1 11 -7 17 -7c1 0 3 -1 4 -1c1 -1 3 -1 4 -1c19 -2 42 -1 82 78
c-3 -13 48 115 52 169c2 22 -2 22 -12 53l-1 14l1 3c0 3 1 5 4 5l28 56c-2 0 52 71 50 72c3 0 16 9 25 8c1 -1 2 -1 5 -1c4 -1 9 0 12 -1c4 0 5 -3 6 -3c5 -1 21 11 24 10c5 0 5 -12 8 -13c1 0 3 2 3 2c1 0 2 -1 2 -2c0 1 0 1 -1 1v-1c7 -1 9 -13 8 -18z" />
    <glyph glyph-name="V" unicode="V" horiz-adv-x="469" 
d="M512 684c-2 -2 -17 -44 -21 -55l-22 -66c-10 -16 -8 -5 -50 -130l-6 -27c-9 -42 0 -14 -45 -158c-25 -61 31 45 -83 -195c-12 -37 -37 -46 -51 -46c-17 0 -14 1 -41 7l-5 2c8 -2 -42 12 -53 66c-14 58 -9 53 -21 100c-5 42 0 -2 -39 294c-1 5 -9 30 -9 37
c0 19 11 18 19 18c-6 2 77 -22 90 -145l8 -35c6 -26 7 -50 11 -73c-1 -1 -1 -1 -1 -2c4 -26 7 -46 9 -61c0 -7 0 -23 5 -45c5 -21 7 -32 8 -32c16 0 33 59 91 195l5 10c9 25 85 210 93 230c2 4 12 21 22 51c5 9 20 46 27 46c-1 0 39 17 39 17h3s6 1 13 3c1 -1 2 -3 4 -6z
" />
    <glyph glyph-name="W" unicode="W" horiz-adv-x="609" 
d="M700 631l2 -4l-2 -4h-3l1 -5l-6 -6v-6l-8 -9l-2 -9l-8 -20l-11 -44l-5 -6l-18 -46l-12 -16l-7 -27l-35 -90l-9 -12l-7 -18l-10 -33l-13 -24l1 -4l-13 -38l-12 -13l-10 -16l-6 -17l-14 -25l-31 -70l-18 -28l-11 -25l-6 -2l-1 -7l-5 -5l-6 -13l-11 -9l4 -5l-8 -9h-7v-3
l-15 -5h-9l-3 4l-14 4l-6 11l-4 25l-16 63l-10 96l5 55v101l15 136l-4 16l-12 -18h-5l-7 -14l-14 -17l-20 -38l-14 -36l-10 -27l-18 -31l-3 -23l-5 -4l-2 -23l-6 -8l-15 -69l-8 -22l-3 -19l3 -5l-6 -9l2 -15v-35l-5 -22l-6 -12v-6v-16l-7 -13h-11l-13 -7l-11 -12l-20 -2
l-5 3l-30 18l-1 18l-19 56l-24 120l-1 18l3 17l-5 18v33v41l4 40l6 30l10 73l3 8l5 19l13 42l9 9l18 2l15 -4v-3l13 -4v-12l5 -58v-23l5 -23l14 -112v-80l10 45l14 34l28 52l10 15l15 34l21 31l22 39l17 16l1 3l21 21l17 6h32l23 -6l12 -33l3 -19v-15l-7 -96v-43l-2 -31
l-9 -88l3 -5l-5 -6l4 -8l-6 -61l4 -4l-2 -11v-29l10 15l36 75l43 103l13 25l13 17l7 24l15 24l2 10l9 16l15 34l5 4l66 108v16l35 49h3l4 12l7 9v3l27 30l6 -1v-3z" />
    <glyph glyph-name="X" unicode="X" horiz-adv-x="464" 
d="M174 545h2l17 -13l17 -27l23 -42l18 -41l15 -29l48 59l48 49l29 22l2 4l11 5l16 2l16 -1l5 -4l15 -24l5 -15l-2 -21l-3 -3l-8 -22l-13 -27l-12 -16l-1 -4l-8 -9l-41 -58l-6 -4l-30 -43l-2 -14l24 -48l34 -72l50 -92l17 -28l-1 -12l-8 -3h-6l-10 -10l-11 12l-143 163
l-16 6h-5l-54 -67l-44 -50l-18 -25l-15 -14l-20 -30l-3 -2l-24 -34l-12 -3h-8l-12 -6l-3 -4h-19l3 4l9 39l34 87l30 59l46 83l4 4l6 13l43 66v5l-17 33l-17 37l-23 75v39v35l9 12l8 2l10 -6l2 3z" />
    <glyph glyph-name="Y" unicode="Y" horiz-adv-x="411" 
d="M482 630l9 7l14 7l1 -9l-14 -24l-6 -14l-20 -30l-7 -14l-143 -212l-5 -12l-17 -28l-7 -8l-9 -17v-3l-4 -3l-6 -10l-11 -19v-5l-12 -77l-4 -8l-8 -66l1 -9l-8 -49l-3 -6l-1 -12l-4 -14l-6 -15l1 -7l-4 -8l-11 -8l-36 -4l-24 8l-12 26l-6 30v69l4 49l7 32l14 73l3 27
l-47 61l-23 41l-19 29l-9 27l-4 45l8 15l19 18l9 -5l4 -5l6 7l22 -8l13 -13l33 -41l17 -25l32 -54l11 -25l13 15l16 30l20 28l3 2l7 12l55 67l64 73l27 26l29 26l17 8z" />
    <glyph glyph-name="Z" unicode="Z" horiz-adv-x="697" 
d="M454 566c23 0 41 -1 54 -4c2 -2 14 -2 39 -21c5 -10 11 -1 11 -46c1 1 -21 -48 -49 -85l-9 -12c-5 -5 -14 -16 -28 -32l-13 -15c-21 -24 -78 -79 -187 -178c1 -1 2 -1 3 -2c3 1 7 2 11 3c1 -1 2 -1 3 -2c-1 -1 -1 -1 -1 -2c1 -1 2 -1 4 -1h12c2 -1 20 -4 25 -9
c15 5 37 11 67 18c48 8 13 8 123 25l32 5c7 -1 23 2 49 2h17c8 -1 34 3 48 -11c-1 -1 -1 -2 -2 -3l-2 -2c13 1 28 4 45 7c1 0 5 -5 8 -5l-31 -15c-2 -1 -6 -3 -11 -5c1 0 1 0 1 -1s-7 -6 -22 -12c0 2 0 3 -1 3c-10 0 -15 -43 -43 -43c-17 -7 -6 -2 -52 -16l-5 -5
c-9 -2 -15 -5 -44 -12l-99 -36c-12 -8 -32 -18 -89 -32c-14 -9 -58 -25 -142 -45l-13 -4c-16 -2 -26 -3 -30 -3c-5 0 -15 2 -28 5l-24 6c-20 9 -34 24 -44 38l-7 15c0 7 5 17 23 45c48 44 -33 -28 135 132l63 60c10 8 22 20 52 52c35 31 31 21 93 91c9 7 17 14 24 26h-1
c-17 0 -16 8 -43 8c-18 0 -43 -11 -93 -24c-27 -10 -1 -7 -111 -25h-13c-8 2 -20 3 -44 27h1l-4 4c1 3 1 7 1 11l-3 21c-1 6 -1 10 -2 10v-2l20 10c0 3 21 18 26 18c5 1 38 11 135 41c1 0 3 0 4 -1c5 3 33 10 83 20z" />
    <glyph glyph-name="bracketleft" unicode="[" horiz-adv-x="361" 
d="M410 630c-5 -7 -19 -10 -15 -15v-1l-3 -3c-5 -17 -16 -31 -31 -43c-7 -5 -15 -11 -23 -17c-5 -2 -10 -5 -16 -9c-11 -4 -22 -10 -35 -17c-8 -16 -16 -30 -24 -42c-31 -71 -55 -128 -70 -172l-4 -4c-1 -4 -1 -9 -2 -15c-3 -7 -7 -14 -11 -23c-18 -54 -32 -101 -41 -141
c-4 -17 -7 -40 -8 -70c0 -8 5 -21 17 -26c4 -3 12 -8 25 -14c9 -4 14 -7 14 -8c8 -4 27 -18 44 -34l3 -6c-1 -2 -1 -4 -1 -6v-3c-2 -2 -3 -5 -3 -10v-5c-2 -4 -3 -9 -3 -14l-5 -27l-3 -3c-27 -3 -52 3 -75 16c-15 9 -35 26 -58 51c-9 15 -15 33 -17 55c-1 9 -1 20 -1 34
c0 9 5 35 5 43c1 23 12 71 31 144c17 63 31 111 43 142c17 44 36 90 57 139c-1 1 -1 3 0 6l-4 8c0 11 5 23 14 38c1 4 4 10 9 17l8 8c9 7 21 16 36 29c7 9 16 19 29 31c2 1 5 2 9 3h6c2 0 4 0 7 1c7 6 16 9 29 9c12 0 20 -1 23 -4c6 -3 12 -7 19 -11l24 -24c1 -1 1 -4 1 -7z
" />
    <glyph glyph-name="backslash" unicode="\" horiz-adv-x="409" 
d="M129 692l12 -8l20 -15l20 -28l40 -72l39 -78l46 -118l33 -103l25 -97l12 -74l9 -87l-1 -61l1 -29l-5 -17l-11 -5l-9 -1l-11 17h-3l-5 11l-5 29l-8 21l-14 66l-4 13l-9 7l-7 29l-4 8l-6 26l-4 13l-13 43l-8 10l-2 20l-4 16l-4 3l-10 32h-3l-13 43l-46 123l-36 77l-23 54
l-19 49l-9 32l2 12v12l4 12l20 15h13z" />
    <glyph glyph-name="bracketright" unicode="]" horiz-adv-x="359" 
d="M201 673c2 3 4 5 5 6l32 8h22c13 3 39 -17 43 -30c2 -2 4 -3 5 -4l6 -3c3 -3 5 -6 6 -8c5 -16 9 -30 10 -41c7 -19 12 -33 16 -43l3 -11c1 -9 0 -15 -1 -19c1 -17 -1 -31 -6 -40l-8 -5c-1 -3 -2 -4 -3 -5c-5 -53 -12 -102 -20 -149c-5 -33 -17 -81 -34 -144
c-19 -73 -34 -120 -45 -141c-8 -17 -14 -30 -17 -39c-7 -13 -13 -22 -18 -29c-13 -19 -27 -32 -42 -39c-35 -11 -62 -16 -81 -16c-23 0 -46 8 -68 24l-1 4l9 26c3 5 4 9 5 14l2 4c3 4 4 7 3 10l1 3c3 3 4 6 8 9c11 3 23 5 34 6c9 1 16 2 21 2c11 1 22 0 32 -1c1 1 6 1 13 0
c13 -1 23 6 27 14c14 27 23 49 28 65c12 39 24 87 35 142c1 10 2 19 2 26c3 5 5 10 6 14l-1 5c9 45 17 107 25 184v49c-7 13 -15 23 -22 32c-3 6 -6 11 -9 16c-4 9 -8 17 -11 26c-6 15 -9 25 -9 31l3 21l-1 5c1 2 2 4 2 5c1 1 -8 13 -7 16z" />
    <glyph glyph-name="asciicircum" unicode="^" horiz-adv-x="765" 
d="M286 323l49 -2l23 -5l14 -7l9 -15l10 -24l-1 -11l-3 -15l-7 -11l-3 -3l-33 -48l-74 -81l-9 -8l-9 -6l-19 -18l-3 -10l89 33l65 18l83 13l76 4l75 -5l41 -5l78 -15l51 -14l52 -13l9 -12l1 -8l-20 -6l-4 -2l-13 -3l-29 7l-24 2l-34 -1l-14 4l-4 -6l-68 6l-8 -4l-51 3
l-18 -5l-23 -1l-10 -3h-12l-32 -6l-25 -2l-34 -9l-16 -5l-34 -11l-12 -3l-42 -17l-76 -27l-66 -27l-44 -17l-37 -9l-21 1l-13 -3l-11 5l-1 11l-4 3l-3 10l3 14l9 23l25 24l231 248l-66 -9l-76 -16l-92 -28l-24 -3l-8 9l-9 -2l-10 10l-3 8l1 19l12 19l13 7l12 6l10 10l12 1
l98 29l72 12z" />
    <glyph glyph-name="underscore" unicode="_" horiz-adv-x="500" 
d="M502 -173l2 -6l-10 -5l-14 -5l-10 -1l1 -5l-9 2l-2 -4l-15 1l-14 -5l-1 -5h-4l-1 -3l-36 1l-8 -1l-3 1l-3 -4l-19 -1l-14 3l-1 -4l-28 2l-13 -1l-17 -5l-11 -2l-7 -2h-2l-4 1h-10l-10 -1l-7 3l-7 -1l-14 -1l-5 2l-14 -6l-8 1l-9 -2l-15 1l-14 -3l-14 1l-4 -2l-16 -1
l-8 -3l-26 -7l-15 4l-24 10l-14 -9l-5 3l-8 4l-8 9l-1 9l-6 17l2 11v9l12 12l6 11l8 2l5 -2l41 11l23 5l11 -2l31 3h22l27 3h10l2 2l4 -1l15 -1l35 -3l57 -4l147 -22z" />
    <glyph glyph-name="grave" unicode="`" horiz-adv-x="337" 
d="M287 570c-1 -5 -1 -7 -2 -8l-2 -2h-3l-3 -3h-2c-3 -2 -7 -3 -13 -3c-7 0 -16 2 -27 7c-3 1 -11 4 -24 10c-15 7 -32 16 -49 29c-27 20 -42 31 -45 33c-6 5 -13 11 -22 18c-4 5 -9 11 -16 18c-1 1 -4 7 -9 17c-5 8 -7 15 -7 22l1 1c1 11 5 16 10 16c17 0 24 1 21 2
c2 0 5 0 9 -1l6 -2c2 -1 4 -2 7 -3c1 -1 2 -1 3 -2l5 -2c2 -1 4 -3 5 -5c17 -15 43 -37 78 -68c14 -13 28 -25 41 -38c25 -23 38 -35 38 -36z" />
    <glyph glyph-name="a" unicode="a" 
d="M429 299c0 -3 -8 -17 -8 -22c-1 -7 -2 -17 -4 -32c-16 -16 -30 -87 -51 -138c-7 -16 -13 -43 -19 -81l-13 -83c-1 -5 -1 -10 -1 -16c0 -7 0 -15 2 -24c-3 5 -10 13 -21 24c-21 21 -24 34 -24 67c0 29 3 48 7 59c-3 4 -6 6 -9 6c-11 0 -23 -20 -88 -75
c-7 -21 -25 -32 -93 -67c-13 -15 -26 -23 -41 -23c-2 0 -31 13 -39 39c-11 38 -37 48 -37 86c0 11 3 28 10 53c8 3 17 10 28 21c4 25 6 23 62 111c23 17 17 33 56 67c55 74 98 123 133 123c11 0 24 -8 41 -25c24 0 14 -13 65 -27c-1 1 44 -17 44 -43zM316 283
c-1 0 -8 -3 -9 -3c1 -1 3 -3 6 -4c1 1 2 4 3 7zM300 264c0 8 -3 12 -10 12c-5 0 -16 -7 -31 -20c-23 -14 -51 -46 -130 -138c-8 -12 -65 -94 -65 -111c0 -6 2 -8 7 -8c15 0 44 38 87 72c7 12 18 19 71 72c0 10 34 63 51 76c12 30 19 45 20 45v0z" />
    <glyph glyph-name="b" unicode="b" horiz-adv-x="413" 
d="M421 173c-3 0 -9 -2 -12 -2c0 5 3 7 9 7c2 -2 3 -4 3 -5zM439 234c0 -15 0 -17 -18 -22c3 -3 5 -7 5 -12c0 1 -1 2 -3 4v-11c0 -3 -1 -4 -3 -4c-2 1 -4 1 -6 1l3 3s-1 -1 -4 -3l-11 -8c3 1 7 2 14 2c-8 -3 -12 -19 -14 -19c-1 0 -2 2 -3 2c0 0 -1 -2 -1 -4h8
c0 -1 0 -1 -1 -1c3 -1 4 -3 4 -6c0 -1 -1 -3 -2 -4c0 1 -1 2 -3 4c-1 -1 -3 -5 -7 -12l-3 5l4 4l-7 -2c0 -3 4 -8 4 -10c0 -1 -1 -2 -2 -3c1 0 1 -1 1 -2c0 -5 -12 -15 -12 -20c-2 -1 -43 -43 -83 -83c-17 -10 -33 -22 -48 -35c1 -3 1 -8 1 -14c-5 -3 -24 -16 -59 -40
c-11 -5 -31 -22 -59 -26c-3 -3 -13 -10 -20 -10c-4 0 -10 1 -19 2l-23 3c-1 0 -19 26 -30 27c-3 7 -8 16 -15 26c5 0 23 -10 29 -10c7 0 14 9 22 9c31 0 65 13 100 40c16 12 51 39 85 84c38 34 102 96 113 153c5 5 7 7 7 8c0 2 -1 5 -2 8l-4 9c-1 1 -3 2 -6 2l2 4
c1 2 2 4 2 5v2c-1 0 -2 -3 -3 -3c1 0 -1 3 -4 3c-2 0 -3 0 -5 -1l5 -3c-1 0 -1 0 -1 -1s0 -3 1 -4c-3 0 -11 -3 -15 -3s-16 6 -20 6c-24 0 -48 -7 -85 -21c-85 -61 -84 -22 -124 -123c0 0 1 -1 1 -2c0 -2 -1 -4 -2 -8c-32 -46 -61 -76 -84 -119c1 -2 1 -6 1 -11
c-7 -10 -13 -15 -18 -15c-7 0 -21 8 -41 24c1 3 2 5 3 5c-9 7 -13 14 -13 19v27c0 21 53 88 53 101c0 24 1 38 3 43l6 6c1 9 8 23 19 41c35 56 56 214 64 238c0 3 9 8 9 15c0 3 -1 5 -3 7c1 4 10 18 10 25c0 3 -1 5 -3 8c1 3 17 18 17 25c0 2 -1 4 -2 6c19 13 35 39 60 89
v16c1 12 8 35 23 70l-2 -238c0 -3 -7 -9 -7 -13v-10c0 -31 -15 -130 -25 -168c-1 -4 -12 -25 -12 -29c0 -5 3 -10 9 -14c55 49 105 73 152 73c55 0 53 -9 89 -82l1 -10c2 -2 7 1 7 -15zM350 286c-2 1 -4 1 -5 1c-3 0 -5 -2 -5 -6c2 0 5 2 10 5z" />
    <glyph glyph-name="c" unicode="c" horiz-adv-x="331" 
d="M364 55l-14 -5c-7 -5 -27 -19 -59 -43c-35 -26 -143 -85 -171 -85c-25 0 -35 -1 -64 50c-24 28 -73 83 -63 177c2 23 6 41 11 56c0 1 23 16 31 45c17 15 31 39 34 72c16 14 0 -20 69 86c36 2 38 4 45 14c24 -10 61 -32 103 -81l-2 -17c-4 0 -17 -4 -22 -4
c-7 0 -25 9 -32 9c-27 0 -59 -38 -97 -114c-33 -65 -50 -108 -52 -129c-8 -74 -1 -96 59 -96c52 0 132 41 178 72c9 7 35 20 54 69l10 -46z" />
    <glyph glyph-name="d" unicode="d" horiz-adv-x="507" 
d="M558 505c-5 -42 -3 -50 -61 -171c-64 -137 -67 -120 -102 -184c-5 -36 -20 -70 -20 -74c0 -34 17 -51 50 -51c5 0 17 2 22 2c7 0 12 -1 16 -4c5 0 11 2 17 7c0 -5 1 -14 4 -27c-2 1 -4 2 -7 4c0 -2 -1 -5 -3 -8c-68 -26 -63 -18 -86 -18c-33 0 -33 22 -74 107
c-1 1 -3 1 -5 1c-3 0 -6 -1 -10 -5c-43 -39 -91 -89 -159 -126c-7 -3 -5 6 -26 -20h-5c-9 0 -56 -3 -70 30c-7 9 -25 30 -25 52c0 29 8 49 23 62c4 33 36 77 61 109c8 5 13 -3 34 41c27 11 20 23 69 69c11 6 25 18 42 36c-2 0 -4 0 -4 1c0 4 54 16 55 16c7 0 20 -2 39 -7
c9 -9 17 -12 55 -21c22 53 10 16 61 147c5 18 13 68 33 68c4 0 20 -8 24 -8c3 0 5 1 6 2c8 -14 34 -30 45 -30h1zM359 275v7c-6 3 -10 5 -11 5c-5 0 -10 -2 -16 -6l-12 -8c-15 -6 -48 -32 -99 -77c-15 -14 -17 -24 -30 -32c-85 -85 -124 -159 -124 -169c0 -4 5 -9 5 -10h6
c76 31 29 -1 144 88c3 4 7 9 12 15l15 10c2 4 5 8 10 13c19 8 23 22 56 58c15 9 25 20 33 75c1 5 11 30 11 31z" />
    <glyph glyph-name="e" unicode="e" horiz-adv-x="423" 
d="M399 297c0 -122 -160 -135 -175 -135c-51 0 -83 6 -98 18c-25 -41 -38 -73 -38 -95c0 -6 5 -15 14 -28c18 -25 19 -25 55 -29c5 -3 16 -15 45 -15c21 0 53 9 94 28c45 21 82 53 88 53c3 0 5 -1 7 -2c-1 -9 -4 -21 -9 -34c-5 -5 -86 -113 -204 -113c-44 0 -102 61 -131 97
c-33 42 -42 111 -42 137c4 8 8 23 13 44c0 11 12 2 21 40c18 11 5 22 37 48l18 15c10 13 26 31 49 54l31 17c11 5 17 13 19 23h8c4 0 17 -14 22 -15c45 -7 69 -11 70 -11c44 -11 106 -60 106 -97zM271 312c-8 8 -14 12 -18 12l-29 -18c-51 -29 -66 -63 -97 -104
c13 -4 20 -6 21 -6c7 0 23 8 50 25c66 42 66 68 73 91z" />
    <glyph glyph-name="f" unicode="f" horiz-adv-x="422" 
d="M281 253c-3 -1 -5 -2 -7 -2c0 5 1 9 4 10c2 -1 3 -4 3 -8zM532 683l-10 -54c1 -4 4 -6 8 -6h2c-8 -16 -24 -31 -47 -45c3 3 4 5 4 8c0 6 -5 13 -16 22c-20 -9 -30 -20 -30 -31c0 1 -40 -55 -40 -58c0 -2 3 -5 3 -6c-13 -13 -14 -13 -27 -26c1 -1 2 -2 2 -5
c0 -5 0 -11 -5 -20c-12 -2 -12 -2 -34 -27c5 -3 10 -4 15 -4c-12 -12 -11 -14 -40 -56l10 -5v-7c-5 -2 -11 -5 -20 -10c1 -2 1 -5 1 -9c-1 -1 -3 -2 -6 -5c1 -1 2 -3 2 -6c0 -8 -12 -22 -25 -36c1 -2 2 -5 2 -9c0 -3 -35 -44 -35 -52c0 -1 3 -4 9 -8c5 1 9 3 12 8
c0 0 6 -3 6 -5s-1 -4 -4 -6l4 -3c5 2 12 5 22 9c6 17 29 17 33 29c-2 0 48 29 48 49c0 2 -1 3 -3 5c29 -26 28 -27 28 -49c0 -8 -1 -14 -2 -18c4 12 -65 -106 -90 -111c0 7 2 10 5 10c-21 7 -1 31 -22 31c-5 0 -21 -8 -49 -24c-64 -36 -42 -30 -57 -67
c-20 -10 -5 -47 -40 -77c1 -1 1 -3 1 -4c0 -3 -3 -10 -10 -21c5 -1 11 -4 20 -8v-5c-47 -8 -60 -104 -77 -181c-20 -12 -35 -34 -45 -65c-2 -1 -4 -2 -7 -2c-9 0 -13 2 -13 7c0 12 21 98 21 123c0 59 -8 115 -24 166c-1 4 -15 12 -41 24c-5 10 -13 13 -44 34c1 9 9 26 22 49
c5 -6 10 -9 16 -9c4 0 19 5 24 5c4 0 2 -2 6 -2c7 0 33 12 49 17c13 4 78 10 105 34v3c0 4 0 8 1 13c19 34 26 55 26 67c19 6 19 39 28 79c5 4 27 20 27 33c0 8 -2 15 -2 17c0 0 24 18 24 42c0 4 -3 10 -7 11c18 18 30 44 56 103c11 4 17 11 17 20c0 2 0 4 -1 7
c20 31 46 77 78 140c5 3 14 9 26 16c17 -11 27 -17 32 -17h3c0 1 1 1 3 1h-1c0 -3 22 -11 73 -23zM145 -61h-3l-3 6l3 1zM344 185c-16 -13 -24 -23 -24 -28c0 -1 0 -2 1 -3c5 7 13 18 23 31zM263 217c0 3 -1 5 -3 7c-2 -2 -5 -5 -9 -8c1 0 3 0 6 1h6zM114 85h-9
c-23 -4 -49 -23 -49 -43c0 -2 0 -4 1 -5c-3 -4 -5 -6 -6 -6v4c1 1 2 -43 2 -53s-10 -5 -10 -33c0 -15 3 -26 10 -33c9 7 14 26 25 54v19c0 7 3 13 10 18c-1 2 -2 4 -2 6c0 10 15 22 28 72z" />
    <glyph glyph-name="g" unicode="g" horiz-adv-x="481" 
d="M-29 80v0v0zM385 395c-1 0 -1 0 -1 1c0 0 1 0 1 -1zM482 51l1 -6l-16 -18l-2 -1l-2 -4l-11 -10l-9 -8l-1 -3l-19 -16l-14 -11l-12 -8l-17 -12l-10 -6l-27 -16l-6 -2l-17 -10l-25 -14l-5 -4h-2c-13 -37 -14 -55 -21 -64c3 -4 -12 -46 -12 -49c0 -7 -9 -21 -10 -25
c1 -10 -3 -18 -3 -18c-6 -6 -32 -49 -39 -67c-5 -2 -29 -43 -32 -44c-41 -81 -73 -110 -133 -171c-26 -9 -64 -47 -83 -47c-20 0 -34 3 -42 8c-1 7 -2 16 -2 24c0 17 2 35 7 55v4c0 8 2 21 6 36c72 129 138 223 197 283c19 39 65 63 71 96l2 1c-1 11 -1 24 2 39
c1 5 15 31 15 35c0 5 -3 9 -7 13c-8 -2 -19 -10 -35 -24c-51 -46 -83 -56 -120 -56c-48 0 -66 -8 -100 83l-7 7c0 3 2 5 8 8c0 1 -12 13 -12 17l16 14c0 1 -1 1 -3 1c-5 0 -6 -2 -7 -2l9 18c4 -5 7 -7 10 -7c1 1 1 4 1 9c8 -7 3 1 7 1c-1 -1 -4 -4 6 1l-4 5c-10 5 6 6 -4 6
v15l3 -2c3 -1 5 -2 7 -2c6 0 8 0 8 -1c0 1 1 2 2 4c0 2 5 6 0 6l4 3l2 18c8 0 13 16 14 18c0 1 3 5 2 7v8c8 2 7 9 9 16c5 19 22 32 54 60c12 22 42 32 44 49c7 3 16 10 26 19c-1 3 -1 6 -1 10c40 31 86 71 122 76c3 1 19 14 24 14h47c18 0 34 -7 48 -14
c-3 -1 -20 -19 -33 -19c-4 0 -5 2 -8 2c-61 0 -102 -58 -175 -136c-14 -17 -51 -69 -130 -186c-4 -12 -8 -31 -15 -56c1 -1 2 -2 2 -3c0 -3 -4 -9 -4 -10c4 0 7 14 8 14c2 -1 5 -6 11 -14c3 0 4 1 4 2l-2 4h8c49 0 60 5 168 75c44 20 29 41 72 109c39 88 48 66 75 118
c-1 2 -1 6 -1 11c1 5 8 13 22 23c10 -8 25 -17 42 -27c-4 -3 -6 -6 -6 -8c0 -9 10 -16 10 -21c0 -3 -2 -10 -7 -23c-11 -35 -9 -40 -31 -69c-48 -63 -15 -49 -51 -116c-2 -7 -4 -20 -19 -58h1c-1 0 -1 -1 -1 -1c-5 -13 -12 -29 -20 -49l5 2l43 20l14 8l9 3l7 6l8 3l7 4
l29 15l13 8l14 10l4 1l19 11zM137 -280c1 5 62 145 62 145c-14 -3 -107 -112 -112 -127c-25 -2 -37 -37 -68 -118c-33 -49 -45 -78 -45 -84c3 -21 9 -32 18 -32c3 0 60 64 68 77c15 22 75 130 77 139z" />
    <glyph glyph-name="h" unicode="h" horiz-adv-x="517" 
d="M558 41c-6 -14 -2 -50 -61 -59c-22 -7 -33 -12 -33 -12v0c-73 0 -108 70 -108 90c0 4 2 8 4 11v0s-4 53 -10 85v2c0 1 -1 1 -4 1c-17 0 -14 -29 -17 -33c-2 2 -5 4 -10 8c-13 -14 -36 -76 -53 -108c-15 -44 -15 -32 -48 -93h-13c-9 0 -61 51 -63 61v22c-2 2 -5 5 -10 6
c-8 18 -19 64 -19 94v13c-1 1 -4 1 -6 1l-37 -23c-2 1 -4 3 -8 5c-6 -2 -2 -6 -18 -25c-1 1 -3 1 -6 1c-13 0 -26 -11 -58 -40c-6 4 -11 9 -17 15c2 36 50 61 127 135c16 11 26 17 58 56c0 3 -2 7 -2 10c0 14 5 22 14 41c-2 4 -3 10 -4 17l19 74c9 30 19 54 30 75
c1 1 1 3 1 6c0 8 -3 24 -3 27c0 6 6 17 18 34c5 16 7 22 36 55c-1 4 -1 10 -1 17c3 14 25 55 63 121c18 13 33 31 71 48c4 0 7 -3 10 -9h10l16 12l14 -8c9 14 16 21 20 21c2 0 44 -25 45 -25c5 0 3 2 7 2c21 0 40 -49 40 -83c-20 -35 -49 -81 -86 -143c-6 -3 -14 -8 -24 -14
c-3 -8 2 -13 -28 -25c0 -4 11 -10 11 -11c-3 -1 -5 -1 -6 -1s-4 0 -5 1c-8 -5 -13 -12 -13 -22c0 -3 0 -6 1 -9c-11 0 -34 -15 -34 -27c0 -2 2 -4 3 -6h-22c-3 -15 -3 -18 -31 -56c-8 -22 -106 -144 -113 -191l-18 -120c0 -2 -1 -8 -1 -19c0 -10 -8 -55 20 -55
c30 0 17 77 84 171c36 24 17 53 90 123c5 14 28 30 41 30c5 0 55 -19 59 -23c-19 -106 -49 -204 -49 -228s8 -36 33 -36c6 0 15 1 26 4c7 13 39 42 57 58c4 -14 7 -31 11 -49zM430 670c-11 -2 -22 -7 -34 -16c-13 -22 -94 -98 -106 -123c2 -3 2 -4 2 -6
c0 -1 -24 -60 -66 -186c22 26 82 97 146 212c36 22 52 102 58 119z" />
    <glyph glyph-name="i" unicode="i" horiz-adv-x="254" 
d="M318 453c0 -4 -13 -24 -14 -29c-23 -21 -39 -32 -48 -32c-18 0 -46 71 -46 97c0 19 11 67 24 67c12 0 68 -58 70 -68c1 -7 14 -28 14 -35zM197 227v-9c0 -40 -14 -47 -47 -99c-17 -67 -4 -46 -76 -185c-29 0 -54 59 -60 99c-2 12 -16 9 -16 38c0 25 17 20 26 60
c13 43 11 41 58 88c5 5 8 12 9 22c20 13 33 20 40 20c3 0 17 -6 66 -34z" />
    <glyph glyph-name="j" unicode="j" horiz-adv-x="272" 
d="M295 439c-13 -5 -23 -7 -30 -7c-6 0 -58 46 -72 64c0 7 -4 16 -13 28c5 5 10 8 14 8c26 0 42 -1 48 -3c16 -6 50 -49 50 -65c0 -1 -1 -2 -1 -3c3 -7 4 -11 4 -12v-10zM220 338v1c-1 0 -3 -10 -8 -30c1 -9 1 -17 1 -26c-2 -34 -18 -117 -37 -174c-8 -23 -18 -61 -50 -125
c-5 -14 6 -14 -44 -117c0 -15 -12 -39 -28 -78c0 -12 6 -22 -19 -41c1 -7 2 -13 2 -18c0 -10 -12 -21 -21 -40h1v-11c0 -6 -1 -9 -4 -9c-1 0 -9 27 -10 27s-1 -1 -1 -4v-10c4 1 8 2 11 2v-8c-7 -4 -27 -38 -34 -41c5 -9 8 -15 8 -20c0 0 -17 -34 -17 -39h-9
c-26 0 -58 14 -58 42c0 5 0 8 1 9c11 19 11 62 12 69c8 15 13 19 31 78c8 30 10 48 43 112c0 17 11 24 23 74c11 17 6 19 39 97c4 4 19 1 19 11c0 3 -11 13 -11 17s13 32 13 36c0 5 -4 8 -11 8c-2 0 -12 -7 -28 -23l-24 -24c-15 -11 -40 -25 -75 -41c-1 0 -2 2 -2 5
c0 4 8 13 8 16s-8 8 -8 12c0 5 5 13 15 23l18 14c-1 1 -1 2 -2 4c4 5 22 27 88 96c6 1 57 59 77 110c4 35 30 33 60 33c3 -1 14 -7 31 -17z" />
    <glyph glyph-name="k" unicode="k" horiz-adv-x="419" 
d="M277 588h5l13 -13l2 -31l-10 -29l-10 -17l-9 -25l-15 -27l-24 -58l-11 -22l-18 -46l-8 -20l48 25l44 15h19l26 -15l5 -14l-3 -28l-10 -14l-2 -8l-25 -18l-44 -31l-24 -12l-20 -15l-51 -27l163 -97l53 -37l5 -6l16 -12l53 -38l13 -18l1 -8l-6 -2l5 -6v-7l-13 5l-8 -1
l-11 6l-15 3l-46 20l-160 77l-84 53l-3 -8l-23 -68l-1 -13l-3 -4v-21l-5 -23l-4 -2v-9l-22 -7v-9l-13 -7l-6 3l-15 2l-3 10l-13 13l-2 14l5 13l11 53l4 8l3 16l10 36l6 26l16 46l5 28l11 25l3 13l9 23l17 50l3 3l49 113l42 77l45 68l16 18z" />
    <glyph glyph-name="l" unicode="l" horiz-adv-x="318" 
d="M423 647c1 -7 2 -15 2 -23c0 -17 -2 -35 -7 -55v-5c0 -8 -2 -20 -6 -36c-72 -129 -138 -223 -197 -283c-19 -39 -65 -62 -71 -95c-11 -16 -40 -21 -40 -61c0 -8 1 -17 4 -23l4 -10c17 -20 53 -33 87 -33c22 0 43 5 59 17c8 -1 7 -1 7 -5c12 5 23 8 27 8
c18 0 29 -10 33 -30c0 -3 0 -6 -1 -8l-1 -4c-9 7 -19 10 -32 10c-6 0 -28 -5 -67 -15c-31 -16 -59 -18 -88 -19l-18 -1l-7 2c-29 3 -66 14 -83 52c-6 14 -7 30 -11 31c-10 0 -30 -13 -35 -13h-1c-17 -7 -49 -26 -59 -30h-14c-11 0 -19 5 -22 14c16 9 42 26 79 44v-1
c5 7 19 11 38 27c11 10 17 26 25 34l7 40l4 12c1 5 3 10 5 17c3 11 1 21 20 63l1 7c3 6 7 14 11 25l11 29l6 8c2 15 9 29 20 41c5 19 18 46 36 74l4 12l13 25c2 0 3 1 5 3l5 13l53 62c3 8 9 15 19 23l8 -1c15 20 30 38 45 54c26 9 48 13 67 13c20 0 47 -3 55 -9zM317 453
c33 49 45 78 45 84c-3 21 -9 32 -18 32c-3 0 -60 -65 -68 -77c-15 -23 -75 -130 -77 -139c-1 -6 -62 -145 -62 -146c14 4 107 113 112 128c25 2 37 36 68 118z" />
    <glyph glyph-name="m" unicode="m" horiz-adv-x="673" 
d="M659 247c0 -2 0 -4 -1 -7c-28 -33 -84 -161 -84 -196c0 -12 9 -21 27 -26v-11c-3 -1 -32 -34 -34 -34c-19 0 -24 46 -82 94c-75 -56 -102 -85 -120 -85c-7 0 -25 18 -46 61c5 -4 -45 48 -47 74c2 15 3 38 3 69l-5 5c-12 -13 -25 -28 -36 -45l-49 -82
c-37 -47 -47 -81 -139 -152c-7 1 -11 10 -13 25c-9 65 -31 55 -31 75c0 3 10 49 31 138c3 3 8 9 13 16c24 69 52 142 75 191c-2 -4 25 55 44 55c17 0 46 -25 46 -42c0 -2 -3 -10 -10 -25c-16 -32 -22 -78 -66 -186v-8v-1c0 0 1 -1 5 -1c9 0 18 5 25 14c32 60 -2 15 144 187
c19 0 34 20 47 20c1 0 73 -14 73 -64v-5l-55 -192c0 -8 4 -12 11 -12c11 0 95 92 107 111c1 1 24 74 40 74c5 0 3 -3 8 -3s31 12 38 12c-1 0 81 -27 81 -44z" />
    <glyph glyph-name="n" unicode="n" horiz-adv-x="398" 
d="M456 8c2 -2 -2 -7 -1 -10c-1 -6 0 -14 -6 -21s-10 -13 -21 -22c-12 -9 -10 -11 -22 -20s-12 -8 -24 -17c-7 -5 -8 -1 -16 -5c-8 -3 -11 -6 -21 -9c-11 -3 -21 -6 -29 -8c-8 -1 -15 -3 -19 -3c-10 0 -21 6 -30 14c-10 7 -16 20 -25 35c-10 15 -18 29 -22 43
c-3 15 -8 30 -7 44c0 3 0 5 1 8l-4 12l2 5l-2 14v55l-5 3l8 20l-1 8l3 4v30l1 -14c0 8 1 17 1 30c1 11 10 20 9 25c-1 6 -7 5 -10 5c-5 0 -12 -3 -21 -14c-5 -7 -11 -15 -18 -25l-27 -53l-2 -9l-12 -22v-8l-6 -8l-14 -30l-11 -15l-8 -2l-2 -2v-3h-3c-2 -2 -4 -4 -4 -5
c-16 -24 -28 -42 -40 -54c-13 -12 -23 -15 -32 -15c-5 0 -5 4 -7 12s-11 18 -9 26c3 15 9 31 14 52c4 21 8 46 14 74c0 2 -1 9 0 19c2 10 13 22 16 40c1 12 4 23 6 33s-3 20 -1 28c3 13 14 23 19 36c6 13 12 25 20 39c9 16 15 31 23 39s15 15 22 15c5 0 5 -7 6 -15
c1 -9 4 -21 2 -37c-5 -23 -6 -23 -11 -45c-5 -23 -9 -22 -13 -45c-4 -16 3 -30 3 -38s-1 -12 3 -12c2 0 9 4 18 13c8 9 20 23 35 41c20 27 32 52 46 69s27 27 34 35c17 18 30 34 42 43s23 14 32 14c3 0 3 -8 5 -13s7 -10 6 -15c-9 -35 -7 -35 -16 -71c-9 -35 -8 -35 -16 -71
c-3 -13 -8 -27 -7 -42c0 -15 7 -30 11 -46c5 -21 11 -50 17 -74c5 -25 5 -45 6 -47c5 -10 10 -20 17 -25s3 -14 12 -14c5 0 11 6 18 7c7 2 17 1 26 4c10 3 11 7 18 9s13 -4 18 -4c4 0 9 6 11 5z" />
    <glyph glyph-name="o" unicode="o" horiz-adv-x="472" 
d="M457 232c0 -33 -7 -63 -22 -92c-17 -78 -60 -111 -205 -185c-2 -1 -11 -2 -28 -4c-19 -22 -45 -33 -80 -33c-17 0 -28 2 -32 5l-37 31h-3c-41 0 -39 65 -44 72c3 5 5 9 5 12c0 4 -6 10 -6 13c0 12 6 43 6 55c5 1 25 8 25 21c0 4 -5 22 -5 25c26 22 26 31 61 87
c16 25 146 154 160 154c4 0 13 -3 17 -3c5 0 14 9 27 28c3 -1 10 -7 21 -16l30 -7c8 -4 20 -9 36 -15c66 0 74 -81 74 -148zM345 245v11c-4 1 -8 4 -11 7c2 3 3 6 3 11c0 12 -8 32 -19 32c-9 0 -30 -14 -63 -43c-79 -69 -110 -115 -146 -161c-4 -4 -21 -55 -21 -62
c0 -11 15 -27 26 -27c37 0 79 16 125 47c11 3 23 8 38 16c5 5 15 24 31 55c4 8 16 71 25 76c0 23 4 35 12 38z" />
    <glyph glyph-name="p" unicode="p" horiz-adv-x="438" 
d="M426 265c0 -4 -13 -29 -14 -33c-1 -12 -7 -44 -17 -82c-12 -19 -33 -75 -74 -102v1s-2 3 -5 6c-3 -3 -5 -6 -5 -10c-1 1 -5 14 -8 14c-10 0 -39 -21 -86 -62c-18 -4 -33 -17 -66 -37c-9 0 -23 -2 -41 -6c1 0 -21 -31 -33 -86c-1 -8 -11 -44 -36 -96c1 -3 2 -7 2 -12
c0 -2 -1 -4 -1 -6v3c0 6 -2 15 -7 29c-3 0 -5 -13 -7 -39c-32 -56 -26 -126 -69 -126c-13 0 -19 10 -19 30c0 7 5 29 8 36c7 20 8 60 17 111c-1 4 -1 10 -1 19c25 106 63 225 112 357c10 16 15 30 26 68c5 5 20 27 20 55c0 1 -1 1 -4 1c-1 1 -6 -4 -18 -13
c-47 -35 -85 -47 -86 -47c-9 0 -13 13 -13 39c0 48 29 63 53 87c56 19 86 29 90 29c3 0 5 -2 8 -2c4 0 22 14 27 14c4 0 6 -5 10 -5s11 3 14 3c17 0 108 -4 155 -47c35 0 58 -44 62 -77c0 -3 6 -10 6 -14zM330 160c-2 0 -11 -2 -11 -3h1c1 0 7 3 10 3zM347 300
c-17 11 -27 16 -29 17c-4 0 -3 -3 -7 -3c-3 0 -47 14 -67 14c-9 0 -17 -3 -24 -10c-13 -56 -25 -115 -48 -195c-12 -25 -27 -61 -45 -118l5 -6c11 8 19 10 43 22c14 14 21 23 21 26c0 2 -1 4 -2 6l-3 2c13 11 32 27 58 48c6 2 12 1 17 11c-8 4 -12 8 -12 11
c13 6 26 15 40 26c-4 2 -6 5 -6 10c0 6 17 5 29 57c8 14 30 56 30 82z" />
    <glyph glyph-name="q" unicode="q" horiz-adv-x="409" 
d="M386 273c0 -3 -2 -10 -6 -23c-10 -35 -8 -40 -28 -69c-42 -63 -13 -49 -45 -116c-2 -10 -5 -31 -38 -118c1 -3 1 -8 1 -14c-9 -15 -35 -121 -44 -134c2 -4 3 -8 3 -11c0 -7 -8 -21 -9 -25c1 -10 2 -14 2 -14v0c-5 -6 -10 -18 -16 -36c-20 -12 -24 -47 -39 -108
c1 -5 1 -12 1 -21c-6 -27 -13 -51 -22 -72l7 283c1 0 3 3 6 9c-1 8 -2 20 -2 35c5 20 8 51 20 123c1 5 13 31 13 35c0 5 -2 9 -6 13c-7 -2 -17 -10 -31 -24c-45 -46 -73 -56 -106 -56c-43 0 -59 -8 -89 83c-1 1 -3 4 -6 7c0 3 2 5 7 8c0 1 -10 13 -10 17s14 10 14 14
c0 1 -1 1 -3 1c-4 0 -5 -2 -6 -2c2 5 5 11 8 18c3 -5 6 -7 9 -7c1 1 1 4 1 9c7 -7 12 -11 16 -11c1 1 6 5 16 11v6c-9 5 -19 7 -28 7v15l3 -2c2 -1 4 -2 6 -2c13 0 16 1 21 9c0 2 -1 4 -5 4c-1 0 -3 -1 -4 -1c0 4 2 14 2 18c16 0 13 9 24 24c0 1 0 2 -1 3l-16 8
c8 2 13 7 15 14c5 19 20 32 48 60c11 22 37 32 39 49c6 3 14 10 23 19c-1 3 -1 6 -1 10c35 31 76 71 108 76c3 1 17 14 21 14h42c16 0 30 -7 43 -15c0 3 -17 -18 -30 -18c-3 0 -4 2 -7 2c-54 0 -107 -70 -172 -148c-12 -17 -45 -69 -115 -186c-3 -12 -7 -31 -13 -56
c1 -1 2 -2 2 -3c0 -3 -4 -9 -4 -10v0c4 0 6 14 7 14c2 -1 5 -6 10 -14c3 0 4 1 4 2c-1 1 -1 3 -2 4h7c43 0 70 5 165 75c39 20 26 53 64 121c35 88 43 66 67 118c-1 2 -1 6 -1 11c1 5 7 13 19 23c9 -8 22 -17 37 -27c-3 -3 -5 -6 -5 -8c0 -9 9 -16 9 -21zM-6 135
c0 -3 -3 -10 -3 -13c0 -1 0 -2 1 -3c-4 0 -13 3 -14 3zM6 -42v9c-1 1 -3 2 -5 2s-4 -1 -7 -2c3 -6 7 -9 12 -9z" />
    <glyph glyph-name="r" unicode="r" horiz-adv-x="278" 
d="M383 383c2 -4 1 -8 1 -13c-1 -4 -6 -6 -15 -8c-8 -3 -20 -6 -33 -11c-11 -6 -11 -6 -21 -12c-11 -7 -10 -9 -21 -14c-5 -2 -21 -6 -44 -23c-22 -16 -51 -43 -83 -86c-7 -8 -12 -18 -17 -29c-6 -11 -9 -23 -12 -35c-1 -3 -5 -8 -8 -19c-3 -10 -6 -25 -10 -45
c-2 -11 -5 -21 -8 -30c-2 -9 -5 -17 -8 -25c-1 -2 -1 -2 -2 -5c0 -2 1 -2 0 -5c0 -4 -1 -4 -1 -9c0 -4 2 -4 2 -8c-2 -11 -3 -11 -6 -22c-2 -10 -2 -10 -5 -21c-1 -2 -2 -1 -3 -3s0 -6 -2 -5c-6 2 -5 5 -10 8c-4 4 -3 10 -9 7c-7 -4 -3 -7 -6 -15c-2 -7 0 -9 -4 -15
c-2 -3 -4 0 -7 -1s-3 -3 -6 -2c-3 0 -2 2 -5 3c-2 1 -3 0 -5 2c-2 1 0 2 0 4c-1 1 -1 1 -2 3c-4 7 -4 7 -9 14c-4 7 -5 6 -8 14c-2 3 0 4 -1 7c-1 4 -3 3 -3 7c0 1 1 1 1 3c0 1 0 1 -1 3c0 1 1 1 0 2s-2 0 -2 1l-2 6s-2 3 -3 6c0 2 2 2 3 4s1 2 1 4c-1 3 0 6 0 9
c0 4 1 7 1 10c7 27 11 50 16 70s10 36 13 50c2 5 1 6 2 11l4 12c0 0 0 1 1 1v-1c2 6 4 10 5 13s0 3 1 5c1 5 2 12 3 21c1 8 1 18 2 29c2 11 4 21 5 30c1 8 2 15 3 21c1 8 4 17 9 25c4 9 10 18 18 26c0 1 1 1 1 2c1 2 -1 2 0 3c5 7 5 6 11 13c5 6 4 7 10 13c3 2 3 2 6 3
c3 2 2 3 6 4s4 -2 9 -2c4 0 5 3 9 1c3 -1 3 -2 5 -5c2 -2 1 -3 4 -5s7 -3 11 -6c3 -3 6 -7 10 -11c6 -6 11 -12 16 -15c4 -3 9 -4 13 -4c3 0 10 4 20 9s25 11 41 20c19 9 36 17 50 21c15 4 27 5 36 5c4 0 7 -1 11 -2s8 -2 11 -4c5 -3 9 -6 11 -9z" />
    <glyph glyph-name="s" unicode="s" horiz-adv-x="338" 
d="M375 401c0 -29 -13 -56 -39 -81c-26 -20 -112 -72 -112 -142c0 -2 5 -29 15 -81l15 -81c0 -6 -5 -22 -15 -48c-22 -58 -29 -47 -36 -47c-27 0 -56 -1 -99 11c-15 25 -60 19 -82 87c-3 9 -10 13 -22 13c-11 0 -80 -67 -112 -73c3 11 9 26 18 45c17 27 122 79 130 82
c50 39 103 74 128 119c0 13 1 33 2 62c0 7 11 37 33 88c12 28 19 52 20 72c12 9 30 24 54 44c-3 3 71 -57 96 -57h6v-13zM191 27v42c0 17 -9 48 -27 93l-135 -104c10 -7 18 -10 25 -10c5 0 19 6 24 6c4 0 16 -14 21 -14c3 0 6 3 10 3c9 0 60 -19 71 -19c4 0 10 3 11 3z" />
    <glyph glyph-name="t" unicode="t" horiz-adv-x="348" 
d="M431 377c-1 -3 -33 -18 -37 -22c1 -3 4 -4 8 -4h6c3 1 5 1 6 1c-5 -10 -52 -27 -56 -30c-9 0 -5 -16 -40 -24c-5 -14 -44 -9 -106 -43c-8 -21 -12 -33 -41 -87c0 -7 -5 -19 -16 -36l-7 -20c0 -3 -1 -8 -3 -13c-9 -15 -28 -70 -34 -74c-5 -11 -8 -20 -8 -28
c1 -7 1 -12 1 -16s0 -7 -1 -9c-5 -5 -16 -55 -41 -84c-3 21 -4 42 -4 63c1 7 2 17 4 30c-2 2 -4 5 -6 10c0 8 5 26 5 34c-1 2 -2 5 -3 8c0 6 4 80 38 153c1 7 6 28 25 66c0 8 -23 31 -72 88c11 5 10 9 25 9c17 0 43 -1 80 -4c7 7 8 12 23 43c0 18 10 26 34 106
c14 14 22 53 30 93h8h1c4 0 28 24 36 17c4 0 25 -14 29 -14c6 0 18 -25 21 -30l-7 -10c-1 -7 -4 -15 -8 -25c-28 -53 -40 -101 -65 -158c0 1 1 1 1 1c1 0 2 -3 4 -9c14 -2 27 -3 40 -3c44 0 63 5 123 21h7z" />
    <glyph glyph-name="u" unicode="u" horiz-adv-x="385" 
d="M392 86c0 6 -12 -44 -41 -44c-10 0 -28 3 -53 10c-10 2 -30 41 -36 41c-3 0 -6 -2 -9 -6c-32 -60 -58 -99 -77 -116c-2 -1 -68 -26 -70 -26c-9 0 -25 4 -48 12c-12 23 -66 68 -66 84c0 28 -4 77 17 132c14 11 21 19 37 71c9 4 7 24 41 73c0 8 31 88 45 88
c13 0 26 -28 26 -44c0 -5 -9 -27 -9 -32c0 -3 -1 -13 -2 -31c3 -5 6 -13 7 -24c-8 -16 -18 -41 -30 -74c-2 -1 -5 -2 -8 -4c1 -3 2 -6 2 -9c0 -12 -44 -84 -44 -137c0 -4 23 -12 24 -15h6c5 6 15 11 30 19c38 22 45 45 58 75l71 167c4 0 13 3 17 3s36 -28 45 -28
c4 0 7 1 8 2c4 -4 13 -32 13 -39c0 -6 -3 -26 -9 -59l-10 -57c0 -11 5 -16 16 -16v0c0 1 14 6 44 16c3 -12 5 -23 5 -32z" />
    <glyph glyph-name="v" unicode="v" horiz-adv-x="446" 
d="M599 444l-13 -8l2 -5l-2 -5l-18 -11l2 -1l-15 -7l-1 -1l4 -1l2 1l5 -3h-1l2 -1l-7 -3l-7 -4l2 -5l-2 -5l-15 -9l-6 -12s-56 -45 -83 -66l-20 -18l-16 -12v-6l-21 -16v-3l-118 -116l-29 -21l-25 -18c-30 -25 -62 -54 -76 -68c-10 -11 -15 -26 -15 -26s-30 -35 -34 -41
c-4 -4 1 -13 1 -13s-2 -16 -8 -18c-6 -1 -18 1 -18 1s-16 10 -18 18c-10 33 -11 29 -11 29s-5 57 -5 118l-4 26l4 89l16 77l9 54l17 61l3 3c6 22 10 37 14 39c0 0 4 -3 11 -8l9 3l6 -2l6 2l17 -3l8 -6l1 -5l6 -8l3 -64l-25 -159c4 -3 145 108 251 158c21 9 74 40 87 48
c12 8 86 47 111 51h2l7 3z" />
    <glyph glyph-name="w" unicode="w" horiz-adv-x="532" 
d="M615 586h1l-7 -20v-6l-3 -3l1 -12l-7 -19l-18 -26l2 -9l-22 -49l-19 -47l-3 -19l-9 -18l3 -6l-3 -13l-17 -42l-9 -35l-12 -22l-4 -15l1 -10l-9 -21l2 -11l-7 -18l-5 -4l-9 -31l-29 -71l-23 -45l-10 -8l-27 -22l-11 -5h-30l-30 15l-22 28l-15 41l-19 55v157h-4l-10 -19
l-21 -72v-17l-13 -47l1 -16l-15 -60l-24 -70l-19 -12h-15l-23 16l-15 15l-15 29l-13 42v130v104l9 97l16 23l9 6h18l17 -19l12 -22v-79l-2 -19l3 -29v-35l-3 -13v-41l43 118l25 42l17 18l41 12h23l15 -12l12 -13l10 -20l9 -34l3 -18v-74v-6v-60l5 -32l4 -8h4l73 151l67 151
l24 44l22 36l14 32l16 25l14 17v6l20 24z" />
    <glyph glyph-name="x" unicode="x" horiz-adv-x="348" 
d="M388 417h2l7 -17l2 -29l-1 -5l-22 -31h-3l-33 -39l-37 -38l-56 -65l-9 -8l-4 -9l-4 -2l-5 -13l31 -84l38 -83l12 -18l3 -10l3 -1l4 -18l-1 -3l11 -18l6 -11h-4l-4 6h-4l7 -11l-18 6l-10 2l-3 -3l-9 5l-6 12l-8 -3l-57 69l-61 94l-20 -21l-2 -5l-49 -61l-11 -16l-29 -33
l-4 -1l-13 -21h-5l-6 -10l-4 2l-12 -10l-13 -3l-3 5l-3 16l5 18l21 40l15 19l45 65l60 79l-23 66l-21 87v37v34l6 11l14 14l15 5h11l6 5l12 -14l19 -39l14 -34l21 -76l57 68l54 55l39 35l15 7h13l4 -2z" />
    <glyph glyph-name="y" unicode="y" horiz-adv-x="472" 
d="M440 318c0 -4 -8 -15 -8 -22c-1 -6 -1 -41 -18 -122c-7 -28 -17 -83 -58 -169c-3 -15 -8 -30 -23 -64c0 -2 1 -4 1 -7c0 -20 -8 -31 -28 -73c-2 -10 0 -10 -18 -37c1 -2 1 -6 1 -11c-5 -11 -14 -31 -26 -62c-1 -1 -1 -2 -2 -2s-5 10 -6 10c-7 0 -20 -16 -20 -16
c2 -5 3 -9 3 -11c0 -4 -10 -6 -11 -13c2 -3 3 -6 3 -9c0 -10 -33 -10 -33 -21c0 -3 4 -6 11 -9c0 2 -4 -24 -34 -54c2 -3 4 -9 6 -18c-6 -8 -10 -22 -13 -41c-2 -1 -14 -1 -37 -1c-10 0 -38 13 -38 48c0 2 1 5 3 8l3 7c2 17 6 41 12 73c1 3 36 90 42 90c3 0 9 -4 12 -4
c2 0 6 3 30 72c13 21 35 88 40 98l22 72c5 2 14 6 25 12v6c-3 1 -8 5 -14 10c6 6 13 19 13 39c0 4 -1 7 -3 10h-7c-112 -112 -143 -103 -172 -110c-38 33 -94 90 -94 132c0 3 6 6 6 9c3 13 4 26 4 38c0 6 0 11 -1 17c4 2 10 7 18 14c-1 3 -1 7 -1 11c0 12 23 43 48 78
c2 2 39 62 84 62c17 0 36 -24 36 -43s-38 -52 -45 -63c0 -22 -29 -73 -49 -128c-1 -7 -11 -19 -11 -30s3 -17 10 -17c31 0 113 69 120 75l2 5c3 9 13 16 28 28l10 10c2 2 5 4 8 4c1 0 2 -1 3 -1c3 15 43 63 46 68c30 42 3 80 68 80c8 -1 12 -2 12 -2v0c5 -2 18 -8 40 -18v-8
z" />
    <glyph glyph-name="z" unicode="z" horiz-adv-x="504" 
d="M256 128l-4 -42c3 -11 17 -4 19 -13l-8 -19c1 -2 17 3 17 1c0 -3 13 -9 13 -12c0 -11 44 -24 44 -37c0 -2 -1 -5 -2 -8l74 30l11 3l8 6l53 22l32 18l35 14l1 -6l-19 -18l-3 -1l-2 -4l-24 -18l-1 -3l-40 -27l-34 -20l-44 -22l-8 -2l-58 -28c-16 -37 -36 -93 -44 -102
c3 -4 4 -8 4 -11c0 -7 -10 -21 -12 -25c2 -10 3 -14 3 -14c-7 -6 -58 -50 -66 -68c-26 -9 -18 -28 -30 -45c-38 -55 -95 -118 -95 -135c0 0 2 1 4 5c-46 -59 -109 -98 -161 -98c-24 0 -42 11 -52 16c-1 7 -2 16 -2 24c0 17 2 35 8 55v4c0 8 3 21 8 36
c86 129 165 223 235 283c23 39 78 63 85 96c3 0 2 29 5 40c1 5 -38 31 -38 35l2 12c5 -1 8 -2 10 -2c4 0 5 1 5 3c0 16 -75 83 -80 83v0l36 46l96 29c12 2 70 40 75 45c11 15 10 11 20 21c2 3 2 7 5 10c19 19 19 1 19 47c0 4 -3 10 -3 11h-42c-17 0 -48 -9 -93 -27l-40 -9
c-13 0 -1 0 -30 1c-7 0 -37 11 -88 33c-28 12 -52 19 -72 20c-9 12 -24 30 -44 54c1 0 50 37 50 61v6h13c29 0 56 -13 81 -39c20 -26 44 -67 114 -67c2 0 29 5 81 15l81 15c6 0 22 -5 48 -15c42 -16 48 -24 48 -30c0 -27 1 -67 -12 -113c-25 -15 -77 -68 -145 -90zM150 -246
c1 4 59 141 59 141c-16 -4 -128 -112 -134 -127c-26 -18 -44 -38 -81 -118c-39 -49 -61 -90 -61 -96c2 -10 6 -13 11 -13c6 0 12 3 18 3c3 -1 71 64 81 77c18 23 105 122 107 133z" />
    <glyph glyph-name="braceleft" unicode="{" horiz-adv-x="329" 
d="M425 753l3 -10c-1 0 -4 2 -6 2c-2 -10 -6 -17 -18 -17c-8 0 -18 3 -27 3c-33 0 -50 -26 -69 -39l-9 2c-9 -6 -25 -2 -25 -19c0 -19 10 -45 20 -56c7 -10 31 -6 31 -23c0 -20 -20 -33 -20 -36c0 -4 4 -11 4 -13l-34 -33c-26 -34 -57 -65 -81 -101l-33 -36
c-6 -10 -4 -26 -10 -37c0 -3 5 -9 5 -13c0 -1 -2 -6 -2 -6c-1 -4 -23 -8 -27 -15l13 -34c-1 -3 -1 -5 -1 -8c1 -14 16 -42 28 -56c12 -15 35 -22 35 -44c0 -6 -3 -15 -3 -21v-4l-11 -14c-5 -21 -3 -48 -12 -67c0 -2 1 -3 1 -5c0 -5 -17 -1 -18 -6l-1 -13c-1 -2 -1 -3 -1 -5
c0 -4 1 -8 1 -11c0 -10 0 -20 -2 -44l-3 -29l10 -34v-7c0 -11 -3 -22 -3 -33c0 -4 0 -8 2 -11l11 -6c1 -4 8 -7 8 -10c0 -4 -3 -8 -3 -11v-1l5 -5l-2 -19l18 -20c4 -12 23 -23 23 -37c0 -21 -45 -26 -45 -33l-8 4l-8 -13c-37 9 -61 46 -69 85l2 18c0 7 11 14 11 20
c0 5 -5 11 -6 16c-9 47 -20 93 -25 139l4 24v43l-15 8v2c0 17 18 37 21 50c0 5 -13 20 -14 24c-1 6 -1 10 -4 14l-5 18l1 11c-1 1 -10 0 -11 2c-8 19 -8 40 -15 59l6 14l-10 10c-3 16 -13 29 -15 45l1 1c0 6 3 6 3 11v5c1 8 7 14 10 21c0 3 -4 8 -4 12c0 2 0 3 2 3
c3 0 7 -1 9 -1c1 0 35 64 44 72l15 21l17 18c9 6 22 27 22 44c0 11 -6 24 -6 36c0 8 14 12 14 21c0 5 -4 11 -4 17l1 13c1 6 14 8 16 14c1 3 -9 10 -9 13v1l18 7v12c1 2 -11 8 -11 10c21 46 60 77 102 101c5 10 33 30 54 33l12 -5h9c0 -1 0 -1 1 -1v1h-1c-1 0 -3 2 -5 3
c13 0 15 -6 24 -9l15 4c13 0 8 -7 14 -11l11 2l5 -6c9 -4 22 -13 25 -21h4z" />
    <glyph glyph-name="bar" unicode="|" horiz-adv-x="622" 
d="M442 779c6 0 4 -7 4 -12c-2 0 -4 1 -5 1c-10 -19 -8 -43 -11 -68c0 -8 1 -16 1 -24c-2 -13 -7 -26 -9 -39c0 -5 1 -10 1 -15c0 -21 -10 -51 -14 -72c-9 -79 -17 -153 -37 -236c0 -28 -14 -69 -14 -100v-15c0 -22 -14 -56 -14 -78v-15c0 -27 -17 -74 -17 -93
c-6 -24 -3 -46 -10 -68c0 -39 -23 -99 -23 -127c0 -7 2 -15 3 -21c0 -36 -9 -50 -53 -50v5c-25 2 -31 24 -38 24c0 26 7 44 11 83c1 17 6 94 16 163c2 17 17 43 17 79c0 26 10 40 15 56c0 2 1 35 11 65c2 14 21 97 27 150c12 47 18 116 28 174c0 8 -2 17 -2 25
c2 13 7 27 7 40v20c0 22 7 43 7 63v15c0 10 3 17 6 26c6 39 0 74 56 74c0 -2 -1 -5 -1 -7c14 -2 35 -11 38 -23z" />
    <glyph glyph-name="braceright" unicode="}" horiz-adv-x="346" 
d="M-89 -237l-3 10c1 0 4 -2 6 -2c2 10 6 17 18 17c8 0 18 -3 27 -3c33 0 50 26 69 39l9 -2c9 6 25 2 25 19c0 19 -10 45 -20 56c-7 10 -31 6 -31 23c0 20 20 33 20 36c0 4 -4 11 -4 13l34 33c26 34 57 65 81 101l33 36c6 10 4 26 10 37c0 3 -5 9 -5 13c0 1 2 6 2 6
c1 4 23 8 27 15l-13 34c1 3 1 5 1 8c-1 14 -16 42 -28 56c-12 15 -35 22 -35 44c0 6 3 15 3 21v4l11 14c5 21 3 48 12 67c0 2 -1 3 -1 5c0 5 17 1 18 6l1 13c1 2 1 3 1 5c0 4 -1 8 -1 11c0 10 0 20 2 44l3 29l-10 34v7c0 11 3 22 3 33c0 4 0 8 -2 11l-11 6c-1 4 -8 7 -8 10
c0 4 3 8 3 11v1l-5 5l2 19l-18 20c-4 12 -23 23 -23 37c0 21 45 26 45 33l8 -4l8 13c37 -9 61 -46 69 -85l-2 -18c0 -7 -11 -14 -11 -20c0 -5 5 -11 6 -16c9 -47 20 -93 25 -139l-4 -24v-43l15 -8v-2c0 -17 -18 -37 -21 -50c0 -5 13 -20 14 -24c1 -6 1 -10 4 -14l5 -18
l-1 -11c1 -1 10 0 11 -2c8 -19 8 -40 15 -59l-6 -14l10 -10c3 -16 13 -29 15 -45l-1 -1c0 -6 -3 -6 -3 -11v-5c-1 -8 -7 -14 -10 -21c0 -3 4 -8 4 -12c0 -2 0 -3 -2 -3c-3 0 -7 1 -9 1c-1 0 -35 -64 -44 -72l-15 -21l-17 -18c-9 -6 -22 -27 -22 -44c0 -11 6 -24 6 -36
c0 -8 -14 -12 -14 -21c0 -5 4 -11 4 -17l-1 -13c-1 -6 -14 -8 -16 -14c-1 -3 9 -10 9 -13v-1l-18 -7v-12c-1 -2 11 -8 11 -10c-21 -46 -60 -77 -102 -101c-5 -10 -33 -30 -54 -33l-12 5h-9c0 1 0 1 -1 1v-1h1c1 0 3 -2 5 -3c-13 0 -15 6 -24 9l-15 -4c-13 0 -8 7 -14 11
l-11 -2l-5 6c-9 4 -22 13 -25 21h-4z" />
    <glyph glyph-name="asciitilde" unicode="~" horiz-adv-x="589" 
d="M394 620h31l19 -3l26 -16l23 -26l10 -14l13 -26l2 -25l-4 -13l-11 -19l-25 -29h-2l-7 -7l-33 -40l-21 -17l2 -8l-34 -23v-4l-4 -7l-13 -4v-8l-29 -25l14 -28l17 -27l17 -26l9 -10l24 -39l49 12l57 18l72 7l-2 -2l-21 -15l-4 -6l-17 -9l-3 -4l-16 -10l2 -7l-25 -13l2 -6
l-5 -4l-4 -13h4l-26 -21l39 -50l30 -38l-2 -4h-10l-3 6l-6 -2l-6 -12l-15 -11h-6l-11 -10h-10l-13 4l-41 46l-14 20l-11 -12l-13 -1l-15 -10l-6 -9l-28 -9l-24 -11l-16 -15l-24 -9l-30 -6l-42 5h-76l-25 10l-4 4l-5 -2l-16 9l-21 15l-20 25l-10 19l-4 21l2 31l14 34l32 46
l49 57l126 123v97l7 37l8 26l23 34l27 25l26 17l31 14zM391 518l-13 -2l-21 -5l-29 -16l-23 -22l-3 -28v-23h3l91 89v7h-5zM267 221l-2 -2l-19 -6l-8 -9v-6h-7v-6l-6 -4v-3l-32 -27l-12 -17l-13 -13l-6 -12l-1 -13l33 2l44 10l38 13l22 2l26 17l-4 9l-9 -2v13l-18 31l-9 8v9
l-6 8z" />
    <glyph glyph-name="Adieresis" unicode="&#xc4;" horiz-adv-x="399" 
d="M287 609c11 0 23 -2 37 -7c1 -1 4 -3 9 -4c5 -3 11 -7 18 -11c11 -13 18 -24 21 -33c2 -5 4 -10 6 -16c0 -3 0 -8 1 -14c0 -3 1 -6 2 -9v-36c-1 -6 -1 -15 -1 -28c-1 -5 -1 -11 -1 -18c-2 -11 -3 -27 -4 -48c-1 -11 -3 -23 -5 -38c0 -3 0 -7 -1 -12c-2 -7 -4 -16 -5 -26
c-3 -7 -4 -21 -5 -40c-1 -3 -1 -7 -1 -10l-1 -1c-1 -2 -2 -6 -3 -13c1 -1 1 -2 1 -3s-1 -3 -2 -6l-2 -6c0 -1 1 -3 3 -5c5 -5 8 -9 8 -12c-1 -3 -1 -5 -1 -6c1 0 1 0 1 -1c-1 -5 -4 -9 -7 -13c-1 -1 -2 -3 -3 -4c1 -5 1 -8 1 -11c-1 -1 -1 -3 -2 -5c0 -3 0 -5 1 -8
c-1 -4 -1 -9 -1 -16c0 -1 -1 -3 -3 -5c1 -5 1 -10 2 -15c0 -1 0 -2 1 -4c-1 -3 -1 -6 -1 -10c1 -2 1 -5 2 -8c-1 -1 -1 -2 -1 -3c0 -2 0 -4 1 -7c-1 -3 -1 -6 -1 -11c1 -13 3 -29 5 -47c1 -3 1 -6 1 -10v-5c1 -5 1 -11 2 -17c0 -1 0 -4 -1 -7v-6c0 -5 -2 -21 -2 -26
c1 -2 1 -5 1 -8c-1 -1 -1 -2 -2 -3c-1 -5 -2 -10 -5 -16c0 -6 -12 -17 -11 -18c-3 -1 -5 0 -7 2l-1 -5l2 -10c-1 -1 -3 -2 -4 -1c-4 12 -9 30 -15 55v3c-3 13 -7 27 -11 44c-1 5 -1 10 -2 16c-3 14 -6 28 -8 43c-1 5 -1 11 -2 18l-9 6c-3 5 -8 10 -13 15c-6 8 -13 15 -20 22
c-3 4 -9 10 -17 17c-3 -1 -6 -2 -10 -3c-6 -1 -13 -2 -21 -3c-1 0 -1 0 -1 -1h-1c-16 -1 -35 -4 -57 -7c-5 -11 -9 -21 -10 -31c-8 -20 -16 -41 -23 -63l-3 -9c-1 -1 -1 -3 -2 -6l-4 -13c-1 -3 -2 -7 -5 -14l-7 -17c-3 -7 -6 -17 -9 -31c-2 -2 -4 -5 -6 -8
c-12 -9 -21 -13 -28 -13c-6 0 -12 3 -19 10c-10 10 -15 21 -15 32s3 23 9 38c4 14 10 35 19 62l17 53c1 4 3 10 6 18c3 4 5 9 6 15c-1 5 -2 11 -3 18c1 5 3 11 5 17c1 2 3 8 6 17v1c5 4 11 9 18 15c2 5 5 12 8 19c1 3 8 21 22 54c1 1 3 7 7 19c1 0 2 2 4 6
c26 55 50 108 71 157c1 1 2 2 3 5l4 9c2 4 10 20 23 49c1 3 3 6 6 9c7 15 17 32 30 50c3 1 4 1 5 2c5 3 8 5 10 5zM275 472c-4 0 -15 -23 -33 -68c-3 -5 -11 -26 -25 -63c-3 -5 -10 -24 -23 -57c-5 -12 -9 -25 -14 -40c-1 -4 -2 -9 -3 -14h22c15 1 40 2 76 5c1 1 1 2 2 3
c0 12 1 32 2 59c3 48 4 83 4 104c0 3 0 14 -1 33c0 4 0 11 -1 22c-5 10 -7 15 -6 16zM232 761h2l8 -3l9 -4l8 1l-1 -7l10 -4l14 -13l6 -7l14 -33l1 -7v-12l-7 -12l-7 -8l-1 -2l-15 -2l-17 -2l-18 7l-8 4l-2 2l-24 17l-11 10l-2 5v13l-2 11l2 13l8 16l18 14zM387 759l22 -7
l9 2l12 -15l14 -12l9 -24v-27l-13 -14l-5 -3l-10 -3l-26 4l-20 10l-21 19l-1 15l-4 6l11 34l10 7l10 3z" />
    <glyph glyph-name="Aring" unicode="&#xc5;" horiz-adv-x="399" 
d="M287 609c11 0 23 -2 37 -7c1 -1 4 -3 9 -4c5 -3 11 -7 18 -11c11 -13 18 -24 21 -33c2 -5 4 -10 6 -16c0 -3 0 -8 1 -14c0 -3 1 -6 2 -9v-36c-1 -6 -1 -15 -1 -28c-1 -5 -1 -11 -1 -18c-2 -11 -3 -27 -4 -48c-1 -11 -3 -23 -5 -38c0 -3 0 -7 -1 -12c-2 -7 -4 -16 -5 -26
c-3 -7 -4 -21 -5 -40c-1 -3 -1 -7 -1 -10l-1 -1c-1 -2 -2 -6 -3 -13c1 -1 1 -2 1 -3s-1 -3 -2 -6l-2 -6c0 -1 1 -3 3 -5c5 -5 8 -9 8 -12c-1 -3 -1 -5 -1 -6c1 0 1 0 1 -1c-1 -5 -4 -9 -7 -13c-1 -1 -2 -3 -3 -4c1 -5 1 -8 1 -11c-1 -1 -1 -3 -2 -5c0 -3 0 -5 1 -8
c-1 -4 -1 -9 -1 -16c0 -1 -1 -3 -3 -5c1 -5 1 -10 2 -15c0 -1 0 -2 1 -4c-1 -3 -1 -6 -1 -10c1 -2 1 -5 2 -8c-1 -1 -1 -2 -1 -3c0 -2 0 -4 1 -7c-1 -3 -1 -6 -1 -11c1 -13 3 -29 5 -47c1 -3 1 -6 1 -10v-5c1 -5 1 -11 2 -17c0 -1 0 -4 -1 -7v-6c0 -5 -2 -21 -2 -26
c1 -2 1 -5 1 -8c-1 -1 -1 -2 -2 -3c-1 -5 -2 -10 -5 -16c0 -6 -12 -17 -11 -18c-3 -1 -5 0 -7 2l-1 -5l2 -10c-1 -1 -3 -2 -4 -1c-4 12 -9 30 -15 55v3c-3 13 -7 27 -11 44c-1 5 -1 10 -2 16c-3 14 -6 28 -8 43c-1 5 -1 11 -2 18l-9 6c-3 5 -8 10 -13 15c-6 8 -13 15 -20 22
c-3 4 -9 10 -17 17c-3 -1 -6 -2 -10 -3c-6 -1 -13 -2 -21 -3c-1 0 -1 0 -1 -1h-1c-16 -1 -35 -4 -57 -7c-5 -11 -9 -21 -10 -31c-8 -20 -16 -41 -23 -63l-3 -9c-1 -1 -1 -3 -2 -6l-4 -13c-1 -3 -2 -7 -5 -14l-7 -17c-3 -7 -6 -17 -9 -31c-2 -2 -4 -5 -6 -8
c-12 -9 -21 -13 -28 -13c-6 0 -12 3 -19 10c-10 10 -15 21 -15 32s3 23 9 38c4 14 10 35 19 62l17 53c1 4 3 10 6 18c3 4 5 9 6 15c-1 5 -2 11 -3 18c1 5 3 11 5 17c1 2 3 8 6 17v1c5 4 11 9 18 15c2 5 5 12 8 19c1 3 8 21 22 54c1 1 3 7 7 19c1 0 2 2 4 6
c26 55 50 108 71 157c1 1 2 2 3 5l4 9c2 4 10 20 23 49c1 3 3 6 6 9c7 15 17 32 30 50c3 1 4 1 5 2c5 3 8 5 10 5zM275 472c-4 0 -15 -23 -33 -68c-3 -5 -11 -26 -25 -63c-3 -5 -10 -24 -23 -57c-5 -12 -9 -25 -14 -40c-1 -4 -2 -9 -3 -14h22c15 1 40 2 76 5c1 1 1 2 2 3
c0 12 1 32 2 59c3 48 4 83 4 104c0 3 0 14 -1 33c0 4 0 11 -1 22c-5 10 -7 15 -6 16zM259 730c0 5 1 11 2 18c2 5 4 10 7 17v5c1 1 3 3 4 5c11 21 21 35 31 42c5 3 13 7 24 12c4 1 10 3 17 5c3 -1 12 -3 26 -6c3 -3 7 -6 12 -9l9 -9c1 -1 3 -3 6 -4c3 -3 8 -9 13 -16
c2 -1 4 -3 6 -6c5 -10 8 -17 9 -20c2 -11 3 -16 3 -13c0 -18 -2 -33 -7 -46l-6 -6c-8 -8 -19 -16 -33 -25c-25 -15 -42 -21 -51 -16c-3 0 -12 -2 -15 -2c-7 0 -31 9 -35 13c-20 20 -22 28 -22 61zM376 748c0 19 -7 29 -21 29c-2 0 -6 -3 -13 -10l-11 -12c-1 -1 -1 -2 -2 -3
c-11 -7 -17 -18 -17 -34c0 -12 3 -18 9 -18c0 2 10 8 30 19c17 9 25 18 25 29z" />
    <glyph glyph-name="Ccedilla" unicode="&#xc7;" horiz-adv-x="377" 
d="M448 474l5 -35l-10 6v-17h-3l1 -8l-11 12v-6l-18 11c-1 -1 -3 -1 -4 -1c-1 -1 -2 -1 -2 -1h-4c-5 -2 -10 -2 -10 -2h-7l-5 5c-1 1 -5 6 -8 10l-24 4l-17 -24l-15 -17l-4 -9l-21 -13l-8 -14l-10 -10l-42 -55l-14 -25l-30 -45l-8 -23l-17 -35l-11 -24l-3 -22l-6 -19v-29
l2 -15l12 -20l20 -11l48 -11l46 4l11 -1l7 2l9 -4l1 -11l-2 -8v-8h-2l-10 -5l-29 -9h-3l-15 -4l-1 -2l-16 -2l-38 -3l-4 -12v-7l31 -11l12 -6l13 -15l10 -25l-2 -8h-8l-6 -9l-18 -10l-29 -15l-82 -32l-12 -1l-7 3h-7l-3 4h-5l-3 3l8 5l92 46l16 13h-5l-23 -5l-16 -1v3l-5 5
l-7 1l-1 2l-10 6l-2 22l21 38l2 15l-17 5l-21 10l-41 33l-17 22l-17 38l-1 13l-4 16v34l9 46l6 11l2 10l5 16l26 48l5 10l4 5c2 2 4 4 5 6c11 23 23 37 35 52l20 24l-1 2l34 40l6 6l1 4l28 34l13 9l31 35l5 1l3 4l16 11l7 10l6 1l1 -2c2 2 4 2 4 2l24 11l51 8h10l24 -12
l6 -4c0 -1 4 -5 6 -6l10 -5l8 -4l12 -17l12 -25l-3 -1z" />
    <glyph glyph-name="Eacute" unicode="&#xc9;" horiz-adv-x="528" 
d="M552 528c-1 -1 -2 -3 -3 -5c-19 -5 -36 -9 -50 -10c-2 -1 -4 -1 -7 -2c-5 0 -10 0 -17 -1c-1 -1 -3 -1 -5 -2c-1 1 -3 1 -4 1l-10 -6c-1 -1 -2 -3 -3 -4c-3 -1 -7 -1 -12 -2c-1 0 -3 0 -5 1c0 -1 -6 -3 -19 -6l-14 -4h-5l-4 -2c-1 1 -3 1 -4 1c-1 -1 -3 -1 -5 -2
c-9 -1 -18 -1 -27 -2h-4c-3 0 -11 -4 -12 -4c-5 -1 -10 -1 -17 -1c-5 -2 -13 -4 -22 -5c-1 -2 -3 -4 -5 -6c-8 -4 -23 -15 -46 -32c-2 -2 -9 -8 -21 -17c-4 -3 -8 -6 -12 -11c-1 -3 -3 -5 -6 -8c-5 -11 -10 -24 -15 -38c-2 -7 -4 -16 -7 -25c0 -3 -6 -15 -6 -19
c0 -2 1 -4 2 -5h3l29 2c11 1 24 1 41 2c13 -1 27 -1 44 0c5 -1 12 -1 19 -1c3 -1 8 -1 15 -1l4 -2c20 4 29 6 26 6c8 0 14 -1 17 -4v-2c1 -1 1 -7 1 -19l-11 -7l-5 -3h-3l-3 -3l-14 -3c-1 -1 -6 -4 -14 -7l-14 -6c-2 -2 -17 -6 -44 -12c-4 -1 -14 -2 -31 -5
c-7 -8 -17 -16 -28 -25c-2 -2 -5 -4 -8 -5c-7 -11 -14 -19 -21 -24c-3 -7 -8 -15 -14 -22c-8 -2 -19 -4 -32 -6c-1 -23 2 -40 7 -51c8 -14 23 -21 44 -22v-5l1 -7l5 -3l8 -1h13l31 4l11 3l28 4l18 5l16 3l21 6l1 -3c1 -1 1 -2 1 -3c-1 -3 -1 -5 -1 -6l1 -1c-1 -3 0 -5 1 -7
c-2 -2 -4 -4 -5 -6l-1 2c0 -2 0 -4 1 -6c-1 1 -4 -5 -8 -18c-1 0 -1 0 -2 -1v-2c-1 -3 -2 -7 -5 -13c-1 -1 -3 -4 -7 -9v-4c-8 -4 -16 -8 -25 -13c-3 -1 -7 -2 -12 -4c-1 0 -2 0 -3 -1c-10 -2 -21 -4 -34 -7c-2 0 -9 0 -21 -1h-13c-2 -1 -9 0 -22 2s-20 3 -22 3
s-13 4 -32 13c-3 1 -7 4 -12 7l-5 6c-5 5 -11 12 -20 21c-2 3 -4 7 -7 11c-1 1 -2 1 -3 2c-3 7 -7 17 -12 30c-2 11 -5 25 -10 41c0 3 0 7 -1 11c1 3 1 6 1 10c0 1 0 2 -1 3c0 5 0 11 -1 17c1 7 2 15 2 24c1 7 2 15 2 24c3 14 5 30 8 48c0 4 5 18 5 21c0 4 2 11 2 14
c2 5 4 10 5 17c1 3 2 9 3 17c5 13 10 30 16 52c1 0 1 0 1 1c2 6 4 13 6 21l-3 6c-4 8 -7 18 -10 30c3 2 5 4 8 7v3l5 5c-1 1 -1 3 -1 4c2 7 8 16 17 28h2l7 7c6 6 13 12 21 19c2 2 4 4 6 7c-2 1 -3 6 -3 15c23 15 23 11 34 12c5 1 9 1 12 1c3 -1 6 -1 9 -2h3
c8 -1 11 -1 10 -1c11 1 30 2 57 3h35c6 -1 12 -1 19 -2h68c5 -1 10 -1 16 -1c-5 -1 14 -1 57 -1c5 0 14 -1 26 -4c13 -3 20 -5 22 -8c5 -2 9 -4 14 -7c1 0 2 0 3 -1v-6zM503 854h4l5 -3l1 -4l-4 -1l-3 -8l1 -3l-5 -2l-8 -5v-3l3 -4l-4 -4l2 -8l-4 -3v-3l12 2v-1l-14 -11
l-3 -10l-7 -11l-6 -7l-12 -11l-11 -8l-40 -24l-36 -16l-7 -1h-17l-12 4h-8l-6 3v4l-4 4l-5 14l1 5l-2 6l2 4l6 6v2l30 27l14 10l41 30l30 18l29 7z" />
    <glyph glyph-name="Ntilde" unicode="&#xd1;" horiz-adv-x="667" 
d="M609 655c0 -1 0 -4 -1 -9l-2 -8c-1 -5 -4 -16 -8 -31v-3c-1 -1 -1 -3 -2 -5c1 -2 2 -4 3 -7c0 -5 -1 -13 -2 -26c-1 -7 -2 -21 -4 -40c-1 -17 -3 -42 -6 -76c-2 -15 -6 -38 -11 -71c-1 -4 -2 -11 -4 -21c1 -2 2 -5 3 -8c-1 -9 -1 -19 -2 -31c-4 -21 -7 -38 -8 -52v-14
c-3 -20 -7 -43 -10 -70c-1 -1 -3 -10 -7 -27c-4 -16 -6 -25 -6 -26c0 -7 -3 -21 -3 -26c-1 -14 -5 -29 -13 -45c-13 -10 -18 -15 -17 -15l-6 -4c-3 -3 -8 -4 -13 -4c-3 -2 -6 -3 -10 -4c-5 -3 -10 -4 -17 -5l-1 -1c-1 -1 -3 -2 -5 -3c-11 -16 -21 -20 -34 -29
c-5 -1 -10 -1 -15 -1c-5 2 -10 5 -17 9c-3 3 -7 5 -10 7c-1 1 -4 6 -11 16c-18 22 -34 43 -49 63c-17 23 -34 52 -53 88c-1 3 -4 9 -7 16l-6 9l-30 66c-3 7 -9 20 -17 37c-3 8 -8 13 -17 15c-4 -13 -9 -33 -15 -60c-3 -9 -9 -30 -18 -64c-2 -6 -5 -15 -8 -28v-6
c-3 -7 -8 -25 -13 -54c-1 -3 -2 -11 -5 -24c-5 -13 -8 -23 -9 -32c0 -1 0 -2 -1 -3c-1 -4 -3 -9 -4 -14c-1 -1 -3 -2 -5 -3c-3 -10 -7 -24 -12 -42c-3 -7 -8 -15 -16 -26c-3 -2 -8 -5 -14 -9c-1 1 -2 1 -3 0c-1 -7 -7 -10 -17 -10c-1 0 -2 1 -3 2l-4 4c-7 3 -11 13 -11 30
c1 -2 1 9 1 34c0 7 2 16 5 27c5 14 7 23 8 27c3 17 7 36 12 58l7 31c10 50 25 125 46 225c5 22 13 55 23 100c1 3 4 10 9 23c0 3 1 5 2 6c4 5 9 8 16 8h6c3 1 5 1 6 1c11 -1 19 -4 24 -7c3 -3 6 -8 11 -13l21 -26c3 -8 8 -17 13 -28c3 -5 6 -10 9 -13c1 -6 4 -13 7 -22
c7 -14 17 -35 31 -63c1 -4 9 -20 23 -49c0 0 11 -27 32 -80c3 -5 7 -15 14 -29c3 -8 9 -21 17 -39c1 -2 3 -5 4 -8l8 -12c2 -5 5 -10 8 -15c3 3 7 5 12 6c2 1 9 5 20 10l8 7c2 9 4 19 7 31c0 5 3 17 9 36c7 19 10 30 10 35c0 11 6 38 6 49c2 8 4 18 6 30c2 7 4 15 7 25
c3 18 8 45 14 80c1 4 8 41 21 110c6 18 12 39 18 63c3 7 7 15 10 25c0 3 2 10 6 21s7 16 8 16c4 0 24 7 27 6c3 3 7 4 12 5c9 0 11 -7 12 -16zM495 817c-2 -5 -4 -8 -6 -11l1 -1c-3 -6 -9 -15 -19 -27c-1 -3 -3 -7 -6 -13l-2 -1v-3c-2 -5 -5 -10 -9 -16v-3c0 -1 0 -2 1 -3
c-3 -5 -6 -10 -10 -16c1 1 1 1 1 0c-1 0 -1 -1 -1 -2c-3 -2 -7 -5 -13 -10l-1 -1c-5 -5 -9 -8 -11 -9c-12 -5 -21 -6 -40 -6c-23 2 -47 10 -71 23c-2 2 -7 5 -14 9c-3 3 -7 5 -12 8c-3 0 -17 8 -18 8c1 -3 -12 1 -14 -23c-6 -16 -20 -16 -22 -16s-5 0 -8 1h-4
c-2 1 -4 1 -7 2h-4c-4 1 -6 3 -10 10c-1 1 -3 5 -6 13c1 1 1 2 2 3c-1 1 -1 2 -1 4c0 4 1 11 4 22c10 22 18 36 25 42c15 13 26 18 35 17c3 1 6 1 10 1c5 -1 13 -2 23 -4c3 -1 6 -3 9 -4c8 -5 17 -11 28 -18c6 -6 13 -13 21 -22c1 -1 2 -3 3 -5v-1c2 -5 5 -11 9 -17l1 -1
l6 -2h7c16 3 17 6 24 11c9 11 22 26 39 46c12 13 20 19 24 19c15 0 22 0 21 1c3 0 6 -1 10 -2c1 -1 3 -2 5 -3z" />
    <glyph glyph-name="Odieresis" unicode="&#xd6;" horiz-adv-x="586" 
d="M539 234c0 -2 0 -5 -1 -9l-3 -18v-3c1 0 1 0 2 -1c-1 -8 -6 -23 -14 -44c-5 -15 -9 -26 -13 -33c-8 -17 -15 -29 -21 -37c-2 -3 -5 -7 -8 -13c-3 -3 -7 -7 -11 -12v-4c-1 -1 -2 -3 -3 -5c-5 -4 -13 -9 -23 -16c-3 -4 -9 -10 -16 -17c-1 -1 -3 -2 -4 -4
c-5 -3 -12 -6 -19 -11c-3 -1 -8 -4 -14 -7c-3 -2 -6 -4 -11 -7c-7 -2 -15 -5 -26 -9c-1 -1 -3 -2 -5 -3c-10 -4 -22 -7 -37 -10c-4 -1 -11 -3 -20 -5h-9c-3 0 -10 -3 -13 -3c-21 0 -44 3 -67 9c-25 7 -52 20 -81 40c-11 8 -24 20 -38 36c-2 2 -8 11 -18 27
c-1 3 -6 13 -13 28c-3 13 -7 32 -12 57c1 -6 2 9 2 45c0 4 3 15 3 19l9 36c4 9 8 20 13 33c5 10 12 25 23 45c7 11 19 30 34 55c12 16 26 34 41 54c3 3 8 6 13 11l8 10c2 1 6 4 11 9c16 15 33 22 51 22l6 5l5 2c1 0 12 6 13 6c3 1 7 1 12 1c6 4 18 8 36 13l2 2h9
c1 1 3 1 5 2c3 0 8 -1 16 -3h10c4 -3 10 -6 17 -10c4 -4 8 -8 13 -12c2 -1 5 -2 8 -3c0 -1 1 -3 2 -4c1 -4 4 -8 8 -13c1 -3 2 -6 4 -9c6 -5 13 -10 22 -16c3 -4 7 -9 12 -14c1 -1 3 -2 5 -3l15 -15c3 -5 7 -11 13 -20l7 -7c2 -5 4 -10 7 -15v-4c1 -1 3 -2 4 -3
c1 -4 4 -9 7 -16c2 -3 4 -6 7 -10l3 -10c1 -4 1 -9 2 -15c1 -1 2 -1 3 -2c1 -4 2 -8 3 -11c2 -14 5 -35 8 -63v-13c0 -1 1 -2 3 -3zM449 249c0 27 -3 49 -10 66c-3 10 -7 21 -12 34c-3 5 -6 10 -9 16c-6 7 -13 14 -22 23l-24 24c-8 5 -20 12 -35 21c-7 -5 -15 -8 -25 -8h-30
c-9 0 -28 -21 -49 -41c-9 -5 -24 -24 -46 -57c-3 -6 -6 -13 -9 -21c-3 -4 -5 -8 -8 -13c-3 -9 -8 -19 -15 -31c-9 -17 -18 -40 -27 -68c-1 -17 -2 -28 -2 -35c0 -15 1 -28 4 -40c2 -4 4 -9 6 -15c1 -3 6 -11 15 -24c3 -4 14 -12 34 -24c12 -7 36 -11 72 -11c-1 0 5 1 20 2
c11 1 19 2 24 3s17 6 34 13c5 3 10 6 17 10c11 5 22 13 34 25l24 36c1 1 7 13 18 34c3 7 8 18 14 33v6c5 16 7 30 7 42zM232 761h2l8 -3l9 -4l8 1l-1 -7l10 -4l14 -13l6 -7l14 -33l1 -7v-12l-7 -12l-7 -8l-1 -2l-15 -2l-17 -2l-18 7l-8 4l-2 2l-24 17l-11 10l-2 5v13l-2 11
l2 13l8 16l18 14zM387 759l22 -7l9 2l12 -15l14 -12l9 -24v-27l-13 -14l-5 -3l-10 -3l-26 4l-20 10l-21 19l-1 15l-4 6l11 34l10 7l10 3z" />
    <glyph glyph-name="Udieresis" unicode="&#xdc;" horiz-adv-x="521" 
d="M232 761h2l8 -3l9 -4l8 1l-1 -7l10 -4l14 -13l6 -7l14 -33l1 -7v-12l-7 -12l-7 -8l-1 -2l-15 -2l-17 -2l-18 7l-8 4l-2 2l-24 17l-11 10l-2 5v13l-2 11l2 13l8 16l18 14zM387 759l22 -7l9 2l12 -15l14 -12l9 -24v-27l-13 -14l-5 -3l-10 -3l-26 4l-20 10l-21 19l-1 15
l-4 6l11 34l10 7l10 3zM563 548c0 -2 0 -9 -1 -20l-1 -17c-2 -17 -5 -39 -10 -69c-1 -3 -3 -8 -4 -14c0 4 -1 -3 -4 -24c-1 -7 -3 -17 -6 -29c-3 -6 -6 -14 -9 -24c-2 -9 -9 -31 -20 -66c-3 -7 -8 -22 -13 -38c-3 -8 -7 -14 -10 -24c-1 -1 -4 -6 -9 -13
c-7 -27 -20 -56 -37 -86c-3 -6 -7 -12 -13 -20c-3 -4 -6 -6 -10 -10c-4 -6 -10 -13 -17 -22c-1 -4 -4 -8 -8 -11l-10 -14c-4 -3 -10 -8 -18 -16c-3 -3 -6 -6 -7 -6c-9 -14 -25 -22 -46 -36c-3 -1 -6 -1 -9 -1c-2 1 -4 1 -7 3c-9 -8 -24 -10 -41 -10c-3 -1 -7 -1 -11 -1
c-7 0 -13 1 -17 5c-13 0 -22 2 -29 8c-3 1 -5 2 -7 5c-9 1 -18 9 -29 20c-9 7 -16 14 -21 21c-14 16 -26 36 -37 57c0 6 -16 35 -16 39c0 6 -12 37 -12 46c-5 20 -8 45 -7 71c1 23 3 84 18 134c1 4 3 7 4 12c3 13 6 27 10 37c6 16 12 30 19 38c17 27 29 40 36 40
c3 -6 4 -8 4 -9l3 7c0 -4 1 -4 2 0c-1 0 -2 -3 -3 -4c1 -1 2 -3 3 -6c1 -1 0 -6 -1 -14c0 -4 2 -7 6 -14c0 -2 2 -5 7 -10c0 -4 7 -8 30 -37c5 -12 8 -27 10 -44v-19l-3 -24v-12c-1 -6 -1 -21 -2 -41c0 -11 1 -25 2 -34c3 -3 4 -15 5 -30s2 -26 4 -27c3 -2 6 -9 10 -24
c5 -15 10 -22 15 -22c2 0 4 -5 7 -16c3 -10 6 -15 9 -14c5 5 10 -19 13 -19c1 2 1 2 2 2c3 3 8 -12 11 -8c1 -1 3 -3 6 -3c5 -3 10 -4 16 -3c5 -1 12 0 20 3c4 0 11 4 22 12c11 13 23 37 36 71c1 5 4 16 10 34c3 20 9 48 16 88c5 27 8 45 8 52c-1 11 -4 22 -8 33
c-3 1 -6 8 -10 18l-3 14l1 3c0 3 1 5 4 5l22 58c1 0 8 13 21 38c13 26 20 39 21 39c3 1 14 11 23 11c4 -4 20 3 23 -2c1 -5 20 12 24 12c3 0 5 -3 6 -8c1 0 1 -2 2 -3c0 -1 1 -1 3 0c1 1 2 1 3 -1c-1 1 -1 1 -1 0c7 0 10 -12 10 -17z" />
    <glyph glyph-name="aacute" unicode="&#xe1;" 
d="M436 590h4l5 -3l1 -4l-4 -1l-3 -8l1 -3l-5 -2l-8 -5v-3l3 -4l-4 -4l2 -8l-4 -3v-3l12 2v-1l-14 -11l-3 -10l-7 -11l-6 -7l-12 -11l-11 -8l-40 -24l-36 -16l-7 -1h-17l-12 4h-8l-6 3v4l-4 4l-5 14l1 5l-2 6l2 4l6 6v2l30 27l14 10l41 30l30 18l29 7zM429 299
c0 -3 -8 -17 -8 -22c-1 -7 -2 -17 -4 -32c-16 -16 -30 -87 -51 -138c-7 -16 -13 -43 -19 -81l-13 -83c-1 -5 -1 -10 -1 -16c0 -7 0 -15 2 -24c-3 5 -10 13 -21 24c-21 21 -24 34 -24 67c0 29 3 48 7 59c-3 4 -6 6 -9 6c-11 0 -23 -20 -88 -75c-7 -21 -25 -32 -93 -67
c-13 -15 -26 -23 -41 -23c-2 0 -31 13 -39 39c-11 38 -37 48 -37 86c0 11 3 28 10 53c8 3 17 10 28 21c4 25 6 23 62 111c23 17 17 33 56 67c55 74 98 123 133 123c11 0 24 -8 41 -25c24 0 14 -13 65 -27c-1 1 44 -17 44 -43zM316 283c-1 0 -8 -3 -9 -3c1 -1 3 -3 6 -4
c1 1 2 4 3 7zM300 264c0 8 -3 12 -10 12c-5 0 -16 -7 -31 -20c-23 -14 -51 -46 -130 -138c-8 -12 -65 -94 -65 -111c0 -6 2 -8 7 -8c15 0 44 38 87 72c7 12 18 19 71 72c0 10 34 63 51 76c12 30 19 45 20 45v0z" />
    <glyph glyph-name="agrave" unicode="&#xe0;" 
d="M412 436c-1 -5 -1 -7 -2 -8l-2 -2h-3l-3 -3h-2c-3 -2 -7 -3 -13 -3c-7 0 -16 2 -27 7c-3 1 -11 4 -24 10c-15 7 -32 16 -49 29c-27 20 -42 31 -45 33c-6 5 -13 11 -22 18c-4 5 -9 11 -16 18c-1 1 -4 7 -9 17c-5 8 -7 15 -7 22l1 1c1 11 5 16 10 16c17 0 24 1 21 2
c2 0 5 0 9 -1l6 -2c2 -1 4 -2 7 -3c1 -1 2 -1 3 -2l5 -2c2 -1 4 -3 5 -5c17 -15 43 -37 78 -68c14 -13 28 -25 41 -38c25 -23 38 -35 38 -36zM429 299c0 -3 -8 -17 -8 -22c-1 -7 -2 -17 -4 -32c-16 -16 -30 -87 -51 -138c-7 -16 -13 -43 -19 -81l-13 -83
c-1 -5 -1 -10 -1 -16c0 -7 0 -15 2 -24c-3 5 -10 13 -21 24c-21 21 -24 34 -24 67c0 29 3 48 7 59c-3 4 -6 6 -9 6c-11 0 -23 -20 -88 -75c-7 -21 -25 -32 -93 -67c-13 -15 -26 -23 -41 -23c-2 0 -31 13 -39 39c-11 38 -37 48 -37 86c0 11 3 28 10 53c8 3 17 10 28 21
c4 25 6 23 62 111c23 17 17 33 56 67c55 74 98 123 133 123c11 0 24 -8 41 -25c24 0 14 -13 65 -27c-1 1 44 -17 44 -43zM316 283c-1 0 -8 -3 -9 -3c1 -1 3 -3 6 -4c1 1 2 4 3 7zM300 264c0 8 -3 12 -10 12c-5 0 -16 -7 -31 -20c-23 -14 -51 -46 -130 -138
c-8 -12 -65 -94 -65 -111c0 -6 2 -8 7 -8c15 0 44 38 87 72c7 12 18 19 71 72c0 10 34 63 51 76c12 30 19 45 20 45v0z" />
    <glyph glyph-name="acircumflex" unicode="&#xe2;" 
d="M455 434c0 -3 -2 -10 -6 -20c-4 -2 -7 -3 -10 -3c-7 0 -13 1 -16 3c-3 3 -18 23 -43 62c-5 7 -12 18 -22 33c-4 5 -8 8 -13 9c-1 -1 -4 -2 -8 -3c-1 -1 -12 -13 -33 -37c-2 -3 -5 -7 -9 -12c-1 -2 -14 -17 -39 -46c-9 -7 -14 -14 -16 -23c-9 -5 -15 -8 -20 -8
c-7 1 -12 3 -14 6c-6 3 -11 12 -16 25c0 1 0 1 1 2c0 7 3 13 19 36c7 9 15 19 24 31c15 19 33 40 54 64c5 4 10 9 17 16c4 3 8 6 13 11c1 1 4 3 9 5c11 0 19 -2 24 -7c3 -2 7 -4 12 -7c7 -5 14 -12 23 -19c3 -5 7 -10 12 -16l33 -66c5 -9 10 -17 16 -24v-1c2 -3 5 -7 8 -11z
M429 299c0 -3 -8 -17 -8 -22c-1 -7 -2 -17 -4 -32c-16 -16 -30 -87 -51 -138c-7 -16 -13 -43 -19 -81l-13 -83c-1 -5 -1 -10 -1 -16c0 -7 0 -15 2 -24c-3 5 -10 13 -21 24c-21 21 -24 34 -24 67c0 29 3 48 7 59c-3 4 -6 6 -9 6c-11 0 -23 -20 -88 -75
c-7 -21 -25 -32 -93 -67c-13 -15 -26 -23 -41 -23c-2 0 -31 13 -39 39c-11 38 -37 48 -37 86c0 11 3 28 10 53c8 3 17 10 28 21c4 25 6 23 62 111c23 17 17 33 56 67c55 74 98 123 133 123c11 0 24 -8 41 -25c24 0 14 -13 65 -27c-1 1 44 -17 44 -43zM316 283
c-1 0 -8 -3 -9 -3c1 -1 3 -3 6 -4c1 1 2 4 3 7zM300 264c0 8 -3 12 -10 12c-5 0 -16 -7 -31 -20c-23 -14 -51 -46 -130 -138c-8 -12 -65 -94 -65 -111c0 -6 2 -8 7 -8c15 0 44 38 87 72c7 12 18 19 71 72c0 10 34 63 51 76c12 30 19 45 20 45v0z" />
    <glyph glyph-name="adieresis" unicode="&#xe4;" 
d="M244 532h2l8 -3l9 -4l8 1l-1 -7l10 -4l14 -13l6 -7l14 -33l1 -7v-12l-7 -12l-7 -8l-1 -2l-15 -2l-17 -2l-18 7l-8 4l-2 2l-24 17l-11 10l-2 5v13l-2 11l2 13l8 16l18 14zM399 530l22 -7l9 2l12 -15l14 -12l9 -24v-27l-13 -14l-5 -3l-10 -3l-26 4l-20 10l-21 19l-1 15
l-4 6l11 34l10 7l10 3zM429 299c0 -3 -8 -17 -8 -22c-1 -7 -2 -17 -4 -32c-16 -16 -30 -87 -51 -138c-7 -16 -13 -43 -19 -81l-13 -83c-1 -5 -1 -10 -1 -16c0 -7 0 -15 2 -24c-3 5 -10 13 -21 24c-21 21 -24 34 -24 67c0 29 3 48 7 59c-3 4 -6 6 -9 6c-11 0 -23 -20 -88 -75
c-7 -21 -25 -32 -93 -67c-13 -15 -26 -23 -41 -23c-2 0 -31 13 -39 39c-11 38 -37 48 -37 86c0 11 3 28 10 53c8 3 17 10 28 21c4 25 6 23 62 111c23 17 17 33 56 67c55 74 98 123 133 123c11 0 24 -8 41 -25c24 0 14 -13 65 -27c-1 1 44 -17 44 -43zM316 283
c-1 0 -8 -3 -9 -3c1 -1 3 -3 6 -4c1 1 2 4 3 7zM300 264c0 8 -3 12 -10 12c-5 0 -16 -7 -31 -20c-23 -14 -51 -46 -130 -138c-8 -12 -65 -94 -65 -111c0 -6 2 -8 7 -8c15 0 44 38 87 72c7 12 18 19 71 72c0 10 34 63 51 76c12 30 19 45 20 45v0z" />
    <glyph glyph-name="atilde" unicode="&#xe3;" 
d="M495 511c-2 -5 -4 -8 -6 -11l1 -1c-3 -6 -9 -15 -19 -27c-1 -3 -3 -7 -6 -13l-2 -1v-3c-2 -5 -5 -10 -9 -16v-3c0 -1 0 -2 1 -3c-3 -5 -6 -10 -10 -16c1 1 1 1 1 0c-1 0 -1 -1 -1 -2c-3 -2 -7 -5 -13 -10l-1 -1c-5 -5 -9 -8 -11 -9c-12 -5 -21 -6 -40 -6
c-23 2 -47 10 -71 23c-2 2 -7 5 -14 9c-3 3 -7 5 -12 8c-3 0 -17 8 -18 8c1 -3 -12 1 -14 -23c-6 -16 -20 -16 -22 -16s-5 0 -8 1h-4c-2 1 -4 1 -7 2h-4c-4 1 -6 3 -10 10c-1 1 -3 5 -6 13c1 1 1 2 2 3c-1 1 -1 2 -1 4c0 4 1 11 4 22c10 22 18 36 25 42c15 13 26 18 35 17
c3 1 6 1 10 1c5 -1 13 -2 23 -4c3 -1 6 -3 9 -4c8 -5 17 -11 28 -18c6 -6 13 -13 21 -22c1 -1 2 -3 3 -5v-1c2 -5 5 -11 9 -17l1 -1l6 -2h7c16 3 17 6 24 11c9 11 22 26 39 46c12 13 20 19 24 19c15 0 22 0 21 1c3 0 6 -1 10 -2c1 -1 3 -2 5 -3zM429 299c0 -3 -8 -17 -8 -22
c-1 -7 -2 -17 -4 -32c-16 -16 -30 -87 -51 -138c-7 -16 -13 -43 -19 -81l-13 -83c-1 -5 -1 -10 -1 -16c0 -7 0 -15 2 -24c-3 5 -10 13 -21 24c-21 21 -24 34 -24 67c0 29 3 48 7 59c-3 4 -6 6 -9 6c-11 0 -23 -20 -88 -75c-7 -21 -25 -32 -93 -67c-13 -15 -26 -23 -41 -23
c-2 0 -31 13 -39 39c-11 38 -37 48 -37 86c0 11 3 28 10 53c8 3 17 10 28 21c4 25 6 23 62 111c23 17 17 33 56 67c55 74 98 123 133 123c11 0 24 -8 41 -25c24 0 14 -13 65 -27c-1 1 44 -17 44 -43zM316 283c-1 0 -8 -3 -9 -3c1 -1 3 -3 6 -4c1 1 2 4 3 7zM300 264
c0 8 -3 12 -10 12c-5 0 -16 -7 -31 -20c-23 -14 -51 -46 -130 -138c-8 -12 -65 -94 -65 -111c0 -6 2 -8 7 -8c15 0 44 38 87 72c7 12 18 19 71 72c0 10 34 63 51 76c12 30 19 45 20 45v0z" />
    <glyph glyph-name="aring" unicode="&#xe5;" 
d="M244 505c0 5 1 11 2 18c2 5 4 10 7 17v5c1 1 3 3 4 5c11 21 21 35 31 42c5 3 13 7 24 12c4 1 10 3 17 5c3 -1 12 -3 26 -6c3 -3 7 -6 12 -9l9 -9c1 -1 3 -3 6 -4c3 -3 8 -9 13 -16c2 -1 4 -3 6 -6c5 -10 8 -17 9 -20c2 -11 3 -16 3 -13c0 -18 -2 -33 -7 -46l-6 -6
c-8 -8 -19 -16 -33 -25c-25 -15 -42 -21 -51 -16c-3 0 -12 -2 -15 -2c-7 0 -31 9 -35 13c-20 20 -22 28 -22 61zM361 523c0 19 -7 29 -21 29c-2 0 -6 -3 -13 -10l-11 -12c-1 -1 -1 -2 -2 -3c-11 -7 -17 -18 -17 -34c0 -12 3 -18 9 -18c0 2 10 8 30 19c17 9 25 18 25 29z
M429 299c0 -3 -8 -17 -8 -22c-1 -7 -2 -17 -4 -32c-16 -16 -30 -87 -51 -138c-7 -16 -13 -43 -19 -81l-13 -83c-1 -5 -1 -10 -1 -16c0 -7 0 -15 2 -24c-3 5 -10 13 -21 24c-21 21 -24 34 -24 67c0 29 3 48 7 59c-3 4 -6 6 -9 6c-11 0 -23 -20 -88 -75
c-7 -21 -25 -32 -93 -67c-13 -15 -26 -23 -41 -23c-2 0 -31 13 -39 39c-11 38 -37 48 -37 86c0 11 3 28 10 53c8 3 17 10 28 21c4 25 6 23 62 111c23 17 17 33 56 67c55 74 98 123 133 123c11 0 24 -8 41 -25c24 0 14 -13 65 -27c-1 1 44 -17 44 -43zM316 283
c-1 0 -8 -3 -9 -3c1 -1 3 -3 6 -4c1 1 2 4 3 7zM300 264c0 8 -3 12 -10 12c-5 0 -16 -7 -31 -20c-23 -14 -51 -46 -130 -138c-8 -12 -65 -94 -65 -111c0 -6 2 -8 7 -8c15 0 44 38 87 72c7 12 18 19 71 72c0 10 34 63 51 76c12 30 19 45 20 45v0z" />
    <glyph glyph-name="ccedilla" unicode="&#xe7;" horiz-adv-x="457" 
d="M430 143c0 -1 -13 -11 -13 -15c1 -4 -4 -10 -4 -11c0 -3 0 -5 1 -5c-4 -1 -8 -8 -11 -20c-3 -1 -6 -3 -9 -5c-1 -3 -2 -6 -4 -9c-5 -3 -10 -7 -17 -12c-3 -3 -7 -6 -13 -11c-3 -2 -13 -7 -28 -16c-2 -2 -6 -4 -12 -5c-23 -15 -39 -23 -47 -23c0 -3 1 -6 3 -9
c-1 -2 -1 -4 0 -7c-1 -1 -1 -3 -1 -4s0 -3 1 -5v-4c0 -5 -3 -19 -3 -24v-15c1 -2 1 -5 1 -10c0 -1 2 -6 6 -14c5 -9 6 -14 4 -17c1 -3 2 -7 1 -12c1 -11 -5 -25 -17 -42c-7 -2 -19 -6 -34 -11c-4 0 -17 -4 -21 -4c-5 -1 -7 -1 -6 -1h-7c-4 -1 -9 -1 -15 -2c-5 1 -16 3 -31 4
c-1 1 -12 -1 -33 -4h-2c-1 0 -1 1 -10 0h-9l-2 1c1 4 3 6 4 5c11 -4 23 -5 36 -4h-3l-2 1l-1 3h-3l6 3c21 1 37 7 46 16c11 5 24 14 41 25c1 1 1 4 2 9c1 4 1 8 0 13s-5 9 -10 12c0 8 -8 16 -23 24h-4l-18 -1c-19 -1 -45 16 -58 25c-3 7 -7 16 -12 27c-3 5 -4 14 -3 27
c1 15 2 24 1 27c-1 0 -1 1 -2 2c-4 4 -8 9 -11 16c0 4 -13 15 -13 18c0 2 -3 8 -9 17c-5 10 -8 16 -8 18c-3 6 -5 13 -8 22c-1 4 -1 9 -1 15c-1 1 -1 2 -1 3c0 17 5 40 16 71c13 19 25 47 69 88c22 21 40 33 55 37c1 0 5 4 8 4c1 0 9 3 23 8c15 6 23 8 25 7
c7 -1 15 -4 26 -10c6 -3 13 -9 20 -20c2 -1 4 -4 6 -7c6 0 12 -1 17 -2l8 -2v-3c-3 -3 -5 -4 -6 -4c0 1 -1 2 -3 4c1 -1 1 4 1 13c4 3 8 7 12 11c0 4 -1 6 -2 6c-3 0 -7 -14 -8 -15c-3 -5 -6 -11 -11 -18c-5 -4 -11 -10 -18 -17c-12 -5 -20 -9 -24 -13c-3 -1 -7 -2 -11 -4
c-7 -3 -13 -6 -20 -10c-11 -11 -21 -26 -31 -46c-7 -9 -15 -20 -22 -32c-1 -4 -7 -14 -17 -31c-9 -17 -14 -28 -14 -33c0 -41 0 -54 -1 -38c1 -19 12 -29 35 -29c13 0 27 2 41 6c18 5 48 15 89 28c16 6 41 18 74 35c1 1 6 2 14 2c5 0 26 9 31 9l1 -1l2 -4z" />
    <glyph glyph-name="eacute" unicode="&#xe9;" horiz-adv-x="423" 
d="M399 297c0 -13 -4 -30 -13 -51c-8 -21 -17 -34 -27 -41c-9 -6 -23 -13 -40 -22c-51 -14 -83 -21 -95 -21c-51 0 -83 6 -98 18c-25 -41 -38 -73 -38 -95c0 -6 5 -15 14 -28c9 -12 16 -19 21 -22s16 -5 34 -7c3 -2 11 -6 22 -12c3 -2 11 -3 23 -3c21 0 53 9 94 28
c42 19 69 36 82 52c5 1 10 1 13 -1c-1 -9 -4 -21 -9 -34c-7 -8 -30 -31 -71 -68c-13 -12 -34 -22 -62 -31c-27 -9 -51 -14 -71 -14c-15 0 -29 5 -42 14c-35 25 -65 53 -89 83c-12 15 -21 32 -26 50c-11 37 -16 66 -16 87c4 8 8 23 13 44c0 4 5 10 15 19c1 1 3 8 6 21
c3 2 7 5 12 10c1 6 4 14 9 24c3 3 8 7 16 14l18 15c10 13 26 31 49 54l31 17c11 5 17 13 19 23h8c4 0 17 -14 22 -15c45 -7 69 -11 70 -11c20 -5 41 -17 64 -34c28 -21 42 -42 42 -63zM271 312c-8 8 -14 12 -18 12l-29 -18c-21 -12 -35 -24 -44 -35c-17 -21 -34 -44 -53 -69
c13 -4 20 -6 21 -6c7 0 23 8 50 25s42 29 46 35c14 23 23 42 27 56zM352 591h4l5 -3l1 -4l-4 -1l-3 -8l1 -3l-5 -2l-8 -5v-3l3 -4l-4 -4l2 -8l-4 -3v-3l12 2v-1l-14 -11l-3 -10l-7 -11l-6 -7l-12 -11l-11 -8l-40 -24l-36 -16l-7 -1h-17l-12 4h-8l-6 3v4l-4 4l-5 14l1 5l-2 6
l2 4l6 6v2l30 27l14 10l41 30l30 18l29 7z" />
    <glyph glyph-name="egrave" unicode="&#xe8;" horiz-adv-x="423" 
d="M399 297c0 -13 -4 -30 -13 -51c-8 -21 -17 -34 -27 -41c-9 -6 -23 -13 -40 -22c-51 -14 -83 -21 -95 -21c-51 0 -83 6 -98 18c-25 -41 -38 -73 -38 -95c0 -6 5 -15 14 -28c9 -12 16 -19 21 -22s16 -5 34 -7c3 -2 11 -6 22 -12c3 -2 11 -3 23 -3c21 0 53 9 94 28
c42 19 69 36 82 52c5 1 10 1 13 -1c-1 -9 -4 -21 -9 -34c-7 -8 -30 -31 -71 -68c-13 -12 -34 -22 -62 -31c-27 -9 -51 -14 -71 -14c-15 0 -29 5 -42 14c-35 25 -65 53 -89 83c-12 15 -21 32 -26 50c-11 37 -16 66 -16 87c4 8 8 23 13 44c0 4 5 10 15 19c1 1 3 8 6 21
c3 2 7 5 12 10c1 6 4 14 9 24c3 3 8 7 16 14l18 15c10 13 26 31 49 54l31 17c11 5 17 13 19 23h8c4 0 17 -14 22 -15c45 -7 69 -11 70 -11c20 -5 41 -17 64 -34c28 -21 42 -42 42 -63zM271 312c-8 8 -14 12 -18 12l-29 -18c-21 -12 -35 -24 -44 -35c-17 -21 -34 -44 -53 -69
c13 -4 20 -6 21 -6c7 0 23 8 50 25s42 29 46 35c14 23 23 42 27 56zM386 433c-1 -5 -1 -7 -2 -8l-2 -2h-3l-3 -3h-2c-3 -2 -7 -3 -13 -3c-7 0 -16 2 -27 7c-3 1 -11 4 -24 10c-15 7 -32 16 -49 29c-27 20 -42 31 -45 33c-6 5 -13 11 -22 18c-4 5 -9 11 -16 18
c-1 1 -4 7 -9 17c-5 8 -7 15 -7 22l1 1c1 11 5 16 10 16c17 0 24 1 21 2c2 0 5 0 9 -1l6 -2c2 -1 4 -2 7 -3c1 -1 2 -1 3 -2l5 -2c2 -1 4 -3 5 -5c17 -15 43 -37 78 -68c14 -13 28 -25 41 -38c25 -23 38 -35 38 -36z" />
    <glyph glyph-name="ecircumflex" unicode="&#xea;" horiz-adv-x="423" 
d="M399 297c0 -13 -4 -30 -13 -51c-8 -21 -17 -34 -27 -41c-9 -6 -23 -13 -40 -22c-51 -14 -83 -21 -95 -21c-51 0 -83 6 -98 18c-25 -41 -38 -73 -38 -95c0 -6 5 -15 14 -28c9 -12 16 -19 21 -22s16 -5 34 -7c3 -2 11 -6 22 -12c3 -2 11 -3 23 -3c21 0 53 9 94 28
c42 19 69 36 82 52c5 1 10 1 13 -1c-1 -9 -4 -21 -9 -34c-7 -8 -30 -31 -71 -68c-13 -12 -34 -22 -62 -31c-27 -9 -51 -14 -71 -14c-15 0 -29 5 -42 14c-35 25 -65 53 -89 83c-12 15 -21 32 -26 50c-11 37 -16 66 -16 87c4 8 8 23 13 44c0 4 5 10 15 19c1 1 3 8 6 21
c3 2 7 5 12 10c1 6 4 14 9 24c3 3 8 7 16 14l18 15c10 13 26 31 49 54l31 17c11 5 17 13 19 23h8c4 0 17 -14 22 -15c45 -7 69 -11 70 -11c20 -5 41 -17 64 -34c28 -21 42 -42 42 -63zM271 312c-8 8 -14 12 -18 12l-29 -18c-21 -12 -35 -24 -44 -35c-17 -21 -34 -44 -53 -69
c13 -4 20 -6 21 -6c7 0 23 8 50 25s42 29 46 35c14 23 23 42 27 56zM356 469c0 -3 -2 -10 -6 -20c-4 -2 -7 -3 -10 -3c-7 0 -13 1 -16 3c-3 3 -18 23 -43 62c-5 7 -12 18 -22 33c-4 5 -8 8 -13 9c-1 -1 -4 -2 -8 -3c-1 -1 -12 -13 -33 -37c-2 -3 -5 -7 -9 -12
c-1 -2 -14 -17 -39 -46c-9 -7 -14 -14 -16 -23c-9 -5 -15 -8 -20 -8c-7 1 -12 3 -14 6c-6 3 -11 12 -16 25c0 1 0 1 1 2c0 7 3 13 19 36c7 9 15 19 24 31c15 19 33 40 54 64c5 4 10 9 17 16c4 3 8 6 13 11c1 1 4 3 9 5c11 0 19 -2 24 -7c3 -2 7 -4 12 -7c7 -5 14 -12 23 -19
c3 -5 7 -10 12 -16l33 -66c5 -9 10 -17 16 -24v-1c2 -3 5 -7 8 -11z" />
    <glyph glyph-name="edieresis" unicode="&#xeb;" horiz-adv-x="423" 
d="M399 297c0 -13 -4 -30 -13 -51c-8 -21 -17 -34 -27 -41c-9 -6 -23 -13 -40 -22c-51 -14 -83 -21 -95 -21c-51 0 -83 6 -98 18c-25 -41 -38 -73 -38 -95c0 -6 5 -15 14 -28c9 -12 16 -19 21 -22s16 -5 34 -7c3 -2 11 -6 22 -12c3 -2 11 -3 23 -3c21 0 53 9 94 28
c42 19 69 36 82 52c5 1 10 1 13 -1c-1 -9 -4 -21 -9 -34c-7 -8 -30 -31 -71 -68c-13 -12 -34 -22 -62 -31c-27 -9 -51 -14 -71 -14c-15 0 -29 5 -42 14c-35 25 -65 53 -89 83c-12 15 -21 32 -26 50c-11 37 -16 66 -16 87c4 8 8 23 13 44c0 4 5 10 15 19c1 1 3 8 6 21
c3 2 7 5 12 10c1 6 4 14 9 24c3 3 8 7 16 14l18 15c10 13 26 31 49 54l31 17c11 5 17 13 19 23h8c4 0 17 -14 22 -15c45 -7 69 -11 70 -11c20 -5 41 -17 64 -34c28 -21 42 -42 42 -63zM271 312c-8 8 -14 12 -18 12l-29 -18c-21 -12 -35 -24 -44 -35c-17 -21 -34 -44 -53 -69
c13 -4 20 -6 21 -6c7 0 23 8 50 25s42 29 46 35c14 23 23 42 27 56zM151 563h2l8 -3l9 -4l8 1l-1 -7l10 -4l14 -13l6 -7l14 -33l1 -7v-12l-7 -12l-7 -8l-1 -2l-15 -2l-17 -2l-18 7l-8 4l-2 2l-24 17l-11 10l-2 5v13l-2 11l2 13l8 16l18 14zM306 561l22 -7l9 2l12 -15l14 -12
l9 -24v-27l-13 -14l-5 -3l-10 -3l-26 4l-20 10l-21 19l-1 15l-4 6l11 34l10 7l10 3z" />
    <glyph glyph-name="iacute" unicode="&#xed;" horiz-adv-x="235" 
d="M139 266l10 -3l5 3h3l13 -11l6 -3l12 -23l1 -16v-16l-14 -31l-23 -74l-5 -46l-1 -17l10 -3l28 2l38 9l-7 -12v-5l-10 -16l-6 -7l2 -5l-12 -8h-3l-3 -6l-13 -5l-3 -3l-29 -18l-11 -8l-21 -3l-4 -2l-4 3l-20 8l-24 18l-14 18l-7 16l-6 35v44l6 26l19 48l29 50l26 34l18 21z
M316 552h4l5 -3l1 -4l-4 -1l-3 -8l1 -3l-5 -2l-8 -5v-3l3 -4l-4 -4l2 -8l-4 -3v-3l12 2v-1l-14 -11l-3 -10l-7 -11l-6 -7l-12 -11l-11 -8l-40 -24l-36 -16l-7 -1h-17l-12 4h-8l-6 3v4l-4 4l-5 14l1 5l-2 6l2 4l6 6v2l30 27l14 10l41 30l30 18l29 7z" />
    <glyph glyph-name="igrave" unicode="&#xec;" horiz-adv-x="235" 
d="M139 266l10 -3l5 3h3l13 -11l6 -3l12 -23l1 -16v-16l-14 -31l-23 -74l-5 -46l-1 -17l10 -3l28 2l38 9l-7 -12v-5l-10 -16l-6 -7l2 -5l-12 -8h-3l-3 -6l-13 -5l-3 -3l-29 -18l-11 -8l-21 -3l-4 -2l-4 3l-20 8l-24 18l-14 18l-7 16l-6 35v44l6 26l19 48l29 50l26 34l18 21z
M318 360c-1 -5 -1 -7 -2 -8l-2 -2h-3l-3 -3h-2c-3 -2 -7 -3 -13 -3c-7 0 -16 2 -27 7c-3 1 -11 4 -24 10c-15 7 -32 16 -49 29c-27 20 -42 31 -45 33c-6 5 -13 11 -22 18c-4 5 -9 11 -16 18c-1 1 -4 7 -9 17c-5 8 -7 15 -7 22l1 1c1 11 5 16 10 16c17 0 24 1 21 2
c2 0 5 0 9 -1l6 -2c2 -1 4 -2 7 -3c1 -1 2 -1 3 -2l5 -2c2 -1 4 -3 5 -5c17 -15 43 -37 78 -68c14 -13 28 -25 41 -38c25 -23 38 -35 38 -36z" />
    <glyph glyph-name="icircumflex" unicode="&#xee;" horiz-adv-x="235" 
d="M139 266l10 -3l5 3h3l13 -11l6 -3l12 -23l1 -16v-16l-14 -31l-23 -74l-5 -46l-1 -17l10 -3l28 2l38 9l-7 -12v-5l-10 -16l-6 -7l2 -5l-12 -8h-3l-3 -6l-13 -5l-3 -3l-29 -18l-11 -8l-21 -3l-4 -2l-4 3l-20 8l-24 18l-14 18l-7 16l-6 35v44l6 26l19 48l29 50l26 34l18 21z
M335 407c0 -3 -2 -10 -6 -20c-4 -2 -7 -3 -10 -3c-7 0 -13 1 -16 3c-3 3 -18 23 -43 62c-5 7 -12 18 -22 33c-4 5 -8 8 -13 9c-1 -1 -4 -2 -8 -3c-1 -1 -12 -13 -33 -37c-2 -3 -5 -7 -9 -12c-1 -2 -14 -17 -39 -46c-9 -7 -14 -14 -16 -23c-9 -5 -15 -8 -20 -8
c-7 1 -12 3 -14 6c-6 3 -11 12 -16 25c0 1 0 1 1 2c0 7 3 13 19 36c7 9 15 19 24 31c15 19 33 40 54 64c5 4 10 9 17 16c4 3 8 6 13 11c1 1 4 3 9 5c11 0 19 -2 24 -7c3 -2 7 -4 12 -7c7 -5 14 -12 23 -19c3 -5 7 -10 12 -16l33 -66c5 -9 10 -17 16 -24v-1c2 -3 5 -7 8 -11z
" />
    <glyph glyph-name="idieresis" unicode="&#xef;" horiz-adv-x="235" 
d="M139 266l10 -3l5 3h3l13 -11l6 -3l12 -23l1 -16v-16l-14 -31l-23 -74l-5 -46l-1 -17l10 -3l28 2l38 9l-7 -12v-5l-10 -16l-6 -7l2 -5l-12 -8h-3l-3 -6l-13 -5l-3 -3l-29 -18l-11 -8l-21 -3l-4 -2l-4 3l-20 8l-24 18l-14 18l-7 16l-6 35v44l6 26l19 48l29 50l26 34l18 21z
M127 532h2l8 -3l9 -4l8 1l-1 -7l10 -4l14 -13l6 -7l14 -33l1 -7v-12l-7 -12l-7 -8l-1 -2l-15 -2l-17 -2l-18 7l-8 4l-2 2l-24 17l-11 10l-2 5v13l-2 11l2 13l8 16l18 14zM282 530l22 -7l9 2l12 -15l14 -12l9 -24v-27l-13 -14l-5 -3l-10 -3l-26 4l-20 10l-21 19l-1 15l-4 6
l11 34l10 7l10 3z" />
    <glyph glyph-name="ntilde" unicode="&#xf1;" horiz-adv-x="391" 
d="M329 72l2 -45l6 -22l22 -54l6 -10l-8 -2l-7 -6l-6 7l-10 1v-4l-3 -1l-10 3l-13 3l-36 42l-21 67l2 5l-5 13l3 52l-5 3l8 19l-1 3v5l3 3v29l4 20l1 14l3 19v9l-5 12l-9 8l-17 2l-22 -5l-6 -17l-6 -16l-8 -12l-9 -28l-6 -10l-5 -18l-15 -33l-16 -38l-7 -15l-1 -8l-10 -22
v-7l-5 -8l-11 -29l-3 -4l-7 -11l-9 -3v-5l-10 2h-19l-8 11l-3 3l-7 3l-8 10l-3 5l-7 2l-2 13l5 10l8 40l2 5l15 48l3 12l16 54l14 61l36 101l17 8l22 -1l1 -1l12 3l3 -2l13 -14l-1 -39l39 29l23 7l39 8l53 -20l12 -11l2 -3l13 -17l4 -31l-2 -33l-3 -12l-7 -18l-10 -32
l-7 -25l-5 -27l-4 -8l-2 -6l2 -4l2 -10v-11zM449 512c-2 -5 -4 -8 -6 -11l1 -1c-3 -6 -9 -15 -19 -27c-1 -3 -3 -7 -6 -13l-2 -1v-3c-2 -5 -5 -10 -9 -16v-3c0 -1 0 -2 1 -3c-3 -5 -6 -10 -10 -16c1 1 1 1 1 0c-1 0 -1 -1 -1 -2c-3 -2 -7 -5 -13 -10l-1 -1
c-5 -5 -9 -8 -11 -9c-12 -5 -21 -6 -40 -6c-23 2 -47 10 -71 23c-2 2 -7 5 -14 9c-3 3 -7 5 -12 8c-3 0 -17 8 -18 8c1 -3 -12 1 -14 -23c-6 -16 -20 -16 -22 -16s-5 0 -8 1h-4c-2 1 -4 1 -7 2h-4c-4 1 -6 3 -10 10c-1 1 -3 5 -6 13c1 1 1 2 2 3c-1 1 -1 2 -1 4
c0 4 1 11 4 22c10 22 18 36 25 42c15 13 26 18 35 17c3 1 6 1 10 1c5 -1 13 -2 23 -4c3 -1 6 -3 9 -4c8 -5 17 -11 28 -18c6 -6 13 -13 21 -22c1 -1 2 -3 3 -5v-1c2 -5 5 -11 9 -17l1 -1l6 -2h7c16 3 17 6 24 11c9 11 22 26 39 46c12 13 20 19 24 19c15 0 22 0 21 1
c3 0 6 -1 10 -2c1 -1 3 -2 5 -3z" />
    <glyph glyph-name="oacute" unicode="&#xf3;" horiz-adv-x="472" 
d="M457 232c0 -33 -7 -63 -22 -92c-2 -9 -4 -16 -7 -23c-15 -36 -43 -69 -84 -98c-23 -16 -61 -37 -114 -64c-2 -1 -11 -2 -28 -4c-19 -22 -45 -33 -80 -33c-17 0 -28 2 -32 5l-37 31c-5 -1 -13 1 -23 4c-9 8 -14 20 -17 35c-3 19 -5 30 -7 33c3 5 5 9 5 12c0 4 -6 10 -6 13
c0 12 6 43 6 55c5 1 12 5 21 10c3 3 4 7 4 11s-6 22 -5 25c14 12 26 27 37 45c4 8 12 22 24 42c10 15 36 44 78 86c45 45 72 68 82 68c4 0 13 -3 17 -3c5 0 14 9 27 28c3 -1 10 -7 21 -16l30 -7c8 -4 20 -9 36 -15c7 0 18 -2 33 -5c18 -26 30 -49 35 -70c4 -15 6 -40 6 -73z
M345 245v11c-4 1 -8 4 -11 7c2 3 3 6 3 11c0 12 -8 32 -19 32c-9 0 -30 -14 -63 -43c-25 -22 -41 -37 -48 -44c-40 -46 -73 -85 -98 -117c-3 -3 -7 -13 -13 -30c-5 -17 -8 -27 -8 -32c0 -11 15 -27 26 -27c37 0 79 16 125 47c11 3 23 8 38 16c5 5 15 24 31 55
c8 15 14 39 18 70c3 3 5 5 7 6c0 23 4 35 12 38zM424 588h4l5 -3l1 -4l-4 -1l-3 -8l1 -3l-5 -2l-8 -5v-3l3 -4l-4 -4l2 -8l-4 -3v-3l12 2v-1l-14 -11l-3 -10l-7 -11l-6 -7l-12 -11l-11 -8l-40 -24l-36 -16l-7 -1h-17l-12 4h-8l-6 3v4l-4 4l-5 14l1 5l-2 6l2 4l6 6v2l30 27
l14 10l41 30l30 18l29 7z" />
    <glyph glyph-name="ograve" unicode="&#xf2;" horiz-adv-x="472" 
d="M457 232c0 -33 -7 -63 -22 -92c-2 -9 -4 -16 -7 -23c-15 -36 -43 -69 -84 -98c-23 -16 -61 -37 -114 -64c-2 -1 -11 -2 -28 -4c-19 -22 -45 -33 -80 -33c-17 0 -28 2 -32 5l-37 31c-5 -1 -13 1 -23 4c-9 8 -14 20 -17 35c-3 19 -5 30 -7 33c3 5 5 9 5 12c0 4 -6 10 -6 13
c0 12 6 43 6 55c5 1 12 5 21 10c3 3 4 7 4 11s-6 22 -5 25c14 12 26 27 37 45c4 8 12 22 24 42c10 15 36 44 78 86c45 45 72 68 82 68c4 0 13 -3 17 -3c5 0 14 9 27 28c3 -1 10 -7 21 -16l30 -7c8 -4 20 -9 36 -15c7 0 18 -2 33 -5c18 -26 30 -49 35 -70c4 -15 6 -40 6 -73z
M345 245v11c-4 1 -8 4 -11 7c2 3 3 6 3 11c0 12 -8 32 -19 32c-9 0 -30 -14 -63 -43c-25 -22 -41 -37 -48 -44c-40 -46 -73 -85 -98 -117c-3 -3 -7 -13 -13 -30c-5 -17 -8 -27 -8 -32c0 -11 15 -27 26 -27c37 0 79 16 125 47c11 3 23 8 38 16c5 5 15 24 31 55
c8 15 14 39 18 70c3 3 5 5 7 6c0 23 4 35 12 38zM427 471c-1 -5 -1 -7 -2 -8l-2 -2h-3l-3 -3h-2c-3 -2 -7 -3 -13 -3c-7 0 -16 2 -27 7c-3 1 -11 4 -24 10c-15 7 -32 16 -49 29c-27 20 -42 31 -45 33c-6 5 -13 11 -22 18c-4 5 -9 11 -16 18c-1 1 -4 7 -9 17
c-5 8 -7 15 -7 22l1 1c1 11 5 16 10 16c17 0 24 1 21 2c2 0 5 0 9 -1l6 -2c2 -1 4 -2 7 -3c1 -1 2 -1 3 -2l5 -2c2 -1 4 -3 5 -5c17 -15 43 -37 78 -68c14 -13 28 -25 41 -38c25 -23 38 -35 38 -36z" />
    <glyph glyph-name="ocircumflex" unicode="&#xf4;" horiz-adv-x="472" 
d="M457 232c0 -33 -7 -63 -22 -92c-2 -9 -4 -16 -7 -23c-15 -36 -43 -69 -84 -98c-23 -16 -61 -37 -114 -64c-2 -1 -11 -2 -28 -4c-19 -22 -45 -33 -80 -33c-17 0 -28 2 -32 5l-37 31c-5 -1 -13 1 -23 4c-9 8 -14 20 -17 35c-3 19 -5 30 -7 33c3 5 5 9 5 12c0 4 -6 10 -6 13
c0 12 6 43 6 55c5 1 12 5 21 10c3 3 4 7 4 11s-6 22 -5 25c14 12 26 27 37 45c4 8 12 22 24 42c10 15 36 44 78 86c45 45 72 68 82 68c4 0 13 -3 17 -3c5 0 14 9 27 28c3 -1 10 -7 21 -16l30 -7c8 -4 20 -9 36 -15c7 0 18 -2 33 -5c18 -26 30 -49 35 -70c4 -15 6 -40 6 -73z
M345 245v11c-4 1 -8 4 -11 7c2 3 3 6 3 11c0 12 -8 32 -19 32c-9 0 -30 -14 -63 -43c-25 -22 -41 -37 -48 -44c-40 -46 -73 -85 -98 -117c-3 -3 -7 -13 -13 -30c-5 -17 -8 -27 -8 -32c0 -11 15 -27 26 -27c37 0 79 16 125 47c11 3 23 8 38 16c5 5 15 24 31 55
c8 15 14 39 18 70c3 3 5 5 7 6c0 23 4 35 12 38zM453 465c0 -3 -2 -10 -6 -20c-4 -2 -7 -3 -10 -3c-7 0 -13 1 -16 3c-3 3 -18 23 -43 62c-5 7 -12 18 -22 33c-4 5 -8 8 -13 9c-1 -1 -4 -2 -8 -3c-1 -1 -12 -13 -33 -37c-2 -3 -5 -7 -9 -12c-1 -2 -14 -17 -39 -46
c-9 -7 -14 -14 -16 -23c-9 -5 -15 -8 -20 -8c-7 1 -12 3 -14 6c-6 3 -11 12 -16 25c0 1 0 1 1 2c0 7 3 13 19 36c7 9 15 19 24 31c15 19 33 40 54 64c5 4 10 9 17 16c4 3 8 6 13 11c1 1 4 3 9 5c11 0 19 -2 24 -7c3 -2 7 -4 12 -7c7 -5 14 -12 23 -19c3 -5 7 -10 12 -16
l33 -66c5 -9 10 -17 16 -24v-1c2 -3 5 -7 8 -11z" />
    <glyph glyph-name="odieresis" unicode="&#xf6;" horiz-adv-x="472" 
d="M457 232c0 -33 -7 -63 -22 -92c-2 -9 -4 -16 -7 -23c-15 -36 -43 -69 -84 -98c-23 -16 -61 -37 -114 -64c-2 -1 -11 -2 -28 -4c-19 -22 -45 -33 -80 -33c-17 0 -28 2 -32 5l-37 31c-5 -1 -13 1 -23 4c-9 8 -14 20 -17 35c-3 19 -5 30 -7 33c3 5 5 9 5 12c0 4 -6 10 -6 13
c0 12 6 43 6 55c5 1 12 5 21 10c3 3 4 7 4 11s-6 22 -5 25c14 12 26 27 37 45c4 8 12 22 24 42c10 15 36 44 78 86c45 45 72 68 82 68c4 0 13 -3 17 -3c5 0 14 9 27 28c3 -1 10 -7 21 -16l30 -7c8 -4 20 -9 36 -15c7 0 18 -2 33 -5c18 -26 30 -49 35 -70c4 -15 6 -40 6 -73z
M345 245v11c-4 1 -8 4 -11 7c2 3 3 6 3 11c0 12 -8 32 -19 32c-9 0 -30 -14 -63 -43c-25 -22 -41 -37 -48 -44c-40 -46 -73 -85 -98 -117c-3 -3 -7 -13 -13 -30c-5 -17 -8 -27 -8 -32c0 -11 15 -27 26 -27c37 0 79 16 125 47c11 3 23 8 38 16c5 5 15 24 31 55
c8 15 14 39 18 70c3 3 5 5 7 6c0 23 4 35 12 38zM245 567h2l8 -3l9 -4l8 1l-1 -7l10 -4l14 -13l6 -7l14 -33l1 -7v-12l-7 -12l-7 -8l-1 -2l-15 -2l-17 -2l-18 7l-8 4l-2 2l-24 17l-11 10l-2 5v13l-2 11l2 13l8 16l18 14zM400 565l22 -7l9 2l12 -15l14 -12l9 -24v-27l-13 -14
l-5 -3l-10 -3l-26 4l-20 10l-21 19l-1 15l-4 6l11 34l10 7l10 3z" />
    <glyph glyph-name="otilde" unicode="&#xf5;" horiz-adv-x="472" 
d="M478 601h8l-6 -17l2 -1v-1l-5 -6l-10 -17l-1 -8l-2 -6l-2 -2v-2l2 -1l-9 -20l1 -4v-1l5 -3l-3 -10l-3 -11l6 3v-3l-4 -3v-2l-7 -10l-1 -1l-2 -10l-4 -7l-6 -4l-4 -3l-8 -5l-22 -10l-28 -4l-30 1l-24 9l-16 9l-12 12l-8 14l-10 22l-3 9l-9 -5l-14 -19l-7 -11l-1 -3l-7 -4
l-1 -3l-9 -2l-5 -4h-9l-4 -3h-9l-4 3l-1 3l-5 5l-7 8l3 3l-3 4v4l-1 7l3 15l14 30l12 20l20 16l17 12l11 5l9 -1l18 1l11 -2l32 -19l20 -28l2 -7l-1 -2v-25l1 -1l6 -4h7l17 3l8 7l16 19l24 30l21 24l19 12zM457 232c0 -33 -7 -63 -22 -92c-2 -9 -4 -16 -7 -23
c-15 -36 -43 -69 -84 -98c-23 -16 -61 -37 -114 -64c-2 -1 -11 -2 -28 -4c-19 -22 -45 -33 -80 -33c-17 0 -28 2 -32 5l-37 31c-5 -1 -13 1 -23 4c-9 8 -14 20 -17 35c-3 19 -5 30 -7 33c3 5 5 9 5 12c0 4 -6 10 -6 13c0 12 6 43 6 55c5 1 12 5 21 10c3 3 4 7 4 11
s-6 22 -5 25c14 12 26 27 37 45c4 8 12 22 24 42c10 15 36 44 78 86c45 45 72 68 82 68c4 0 13 -3 17 -3c5 0 14 9 27 28c3 -1 10 -7 21 -16l30 -7c8 -4 20 -9 36 -15c7 0 18 -2 33 -5c18 -26 30 -49 35 -70c4 -15 6 -40 6 -73zM345 245v11c-4 1 -8 4 -11 7c2 3 3 6 3 11
c0 12 -8 32 -19 32c-9 0 -30 -14 -63 -43c-25 -22 -41 -37 -48 -44c-40 -46 -73 -85 -98 -117c-3 -3 -7 -13 -13 -30c-5 -17 -8 -27 -8 -32c0 -11 15 -27 26 -27c37 0 79 16 125 47c11 3 23 8 38 16c5 5 15 24 31 55c8 15 14 39 18 70c3 3 5 5 7 6c0 23 4 35 12 38z" />
    <glyph glyph-name="uacute" unicode="&#xfa;" horiz-adv-x="336" 
d="M392 86c0 -6 -10 -20 -31 -43c-2 -1 -5 -1 -10 -1c-10 0 -28 3 -53 10c-5 1 -12 7 -20 18c-5 8 -10 16 -15 23c-3 1 -7 -1 -10 -6c-32 -60 -58 -99 -77 -116c-3 -2 -14 -7 -35 -14c-21 -8 -32 -12 -35 -12c-9 0 -25 4 -48 12c-8 15 -22 32 -42 50c-16 14 -24 25 -24 34
c0 19 1 44 3 76c1 17 6 35 14 56c6 5 14 15 24 28c3 10 7 24 13 43c2 1 9 12 20 33c1 5 2 10 3 17c5 5 11 13 18 23c-1 9 5 25 19 48c3 7 5 14 8 21c6 13 12 19 18 19c13 0 26 -28 26 -44c0 -5 -9 -27 -9 -32c0 -3 -1 -13 -2 -31c3 -5 6 -13 7 -24c-8 -16 -18 -41 -30 -74
c-2 -1 -5 -2 -8 -4c3 -7 2 -15 -1 -24c-5 -13 -14 -31 -25 -56c-11 -24 -16 -46 -16 -66c0 -4 23 -12 24 -15h6c5 5 15 11 30 19c15 9 25 17 30 24c11 15 20 32 28 51l71 167c4 0 13 3 17 3c3 0 10 -5 20 -14c11 -9 19 -14 25 -14c4 0 7 1 8 2c4 -4 13 -32 13 -39
c0 -6 -3 -26 -9 -59l-10 -57c0 -11 5 -16 16 -16c-3 0 11 5 44 16c3 -12 5 -23 5 -32zM374 613h4l5 -3l1 -4l-4 -1l-3 -8l1 -3l-5 -2l-8 -5v-3l3 -4l-4 -4l2 -8l-4 -3v-3l12 2v-1l-14 -11l-3 -10l-7 -11l-6 -7l-12 -11l-11 -8l-40 -24l-36 -16l-7 -1h-17l-12 4h-8l-6 3v4
l-4 4l-5 14l1 5l-2 6l2 4l6 6v2l30 27l14 10l41 30l30 18l29 7z" />
    <glyph glyph-name="ugrave" unicode="&#xf9;" horiz-adv-x="336" 
d="M392 86c0 -6 -10 -20 -31 -43c-2 -1 -5 -1 -10 -1c-10 0 -28 3 -53 10c-5 1 -12 7 -20 18c-5 8 -10 16 -15 23c-3 1 -7 -1 -10 -6c-32 -60 -58 -99 -77 -116c-3 -2 -14 -7 -35 -14c-21 -8 -32 -12 -35 -12c-9 0 -25 4 -48 12c-8 15 -22 32 -42 50c-16 14 -24 25 -24 34
c0 19 1 44 3 76c1 17 6 35 14 56c6 5 14 15 24 28c3 10 7 24 13 43c2 1 9 12 20 33c1 5 2 10 3 17c5 5 11 13 18 23c-1 9 5 25 19 48c3 7 5 14 8 21c6 13 12 19 18 19c13 0 26 -28 26 -44c0 -5 -9 -27 -9 -32c0 -3 -1 -13 -2 -31c3 -5 6 -13 7 -24c-8 -16 -18 -41 -30 -74
c-2 -1 -5 -2 -8 -4c3 -7 2 -15 -1 -24c-5 -13 -14 -31 -25 -56c-11 -24 -16 -46 -16 -66c0 -4 23 -12 24 -15h6c5 5 15 11 30 19c15 9 25 17 30 24c11 15 20 32 28 51l71 167c4 0 13 3 17 3c3 0 10 -5 20 -14c11 -9 19 -14 25 -14c4 0 7 1 8 2c4 -4 13 -32 13 -39
c0 -6 -3 -26 -9 -59l-10 -57c0 -11 5 -16 16 -16c-3 0 11 5 44 16c3 -12 5 -23 5 -32zM345 392c-1 -5 -1 -7 -2 -8l-2 -2h-3l-3 -3h-2c-3 -2 -7 -3 -13 -3c-7 0 -16 2 -27 7c-3 1 -11 4 -24 10c-15 7 -32 16 -49 29c-27 20 -42 31 -45 33c-6 5 -13 11 -22 18
c-4 5 -9 11 -16 18c-1 1 -4 7 -9 17c-5 8 -7 15 -7 22l1 1c1 11 5 16 10 16c17 0 24 1 21 2c2 0 5 0 9 -1l6 -2c2 -1 4 -2 7 -3c1 -1 2 -1 3 -2l5 -2c2 -1 4 -3 5 -5c17 -15 43 -37 78 -68c14 -13 28 -25 41 -38c25 -23 38 -35 38 -36z" />
    <glyph glyph-name="ucircumflex" unicode="&#xfb;" horiz-adv-x="336" 
d="M392 86c0 -6 -10 -20 -31 -43c-2 -1 -5 -1 -10 -1c-10 0 -28 3 -53 10c-5 1 -12 7 -20 18c-5 8 -10 16 -15 23c-3 1 -7 -1 -10 -6c-32 -60 -58 -99 -77 -116c-3 -2 -14 -7 -35 -14c-21 -8 -32 -12 -35 -12c-9 0 -25 4 -48 12c-8 15 -22 32 -42 50c-16 14 -24 25 -24 34
c0 19 1 44 3 76c1 17 6 35 14 56c6 5 14 15 24 28c3 10 7 24 13 43c2 1 9 12 20 33c1 5 2 10 3 17c5 5 11 13 18 23c-1 9 5 25 19 48c3 7 5 14 8 21c6 13 12 19 18 19c13 0 26 -28 26 -44c0 -5 -9 -27 -9 -32c0 -3 -1 -13 -2 -31c3 -5 6 -13 7 -24c-8 -16 -18 -41 -30 -74
c-2 -1 -5 -2 -8 -4c3 -7 2 -15 -1 -24c-5 -13 -14 -31 -25 -56c-11 -24 -16 -46 -16 -66c0 -4 23 -12 24 -15h6c5 5 15 11 30 19c15 9 25 17 30 24c11 15 20 32 28 51l71 167c4 0 13 3 17 3c3 0 10 -5 20 -14c11 -9 19 -14 25 -14c4 0 7 1 8 2c4 -4 13 -32 13 -39
c0 -6 -3 -26 -9 -59l-10 -57c0 -11 5 -16 16 -16c-3 0 11 5 44 16c3 -12 5 -23 5 -32zM354 467c0 -3 -2 -10 -6 -20c-4 -2 -7 -3 -10 -3c-7 0 -13 1 -16 3c-3 3 -18 23 -43 62c-5 7 -12 18 -22 33c-4 5 -8 8 -13 9c-1 -1 -4 -2 -8 -3c-1 -1 -12 -13 -33 -37
c-2 -3 -5 -7 -9 -12c-1 -2 -14 -17 -39 -46c-9 -7 -14 -14 -16 -23c-9 -5 -15 -8 -20 -8c-7 1 -12 3 -14 6c-6 3 -11 12 -16 25c0 1 0 1 1 2c0 7 3 13 19 36c7 9 15 19 24 31c15 19 33 40 54 64c5 4 10 9 17 16c4 3 8 6 13 11c1 1 4 3 9 5c11 0 19 -2 24 -7c3 -2 7 -4 12 -7
c7 -5 14 -12 23 -19c3 -5 7 -10 12 -16l33 -66c5 -9 10 -17 16 -24v-1c2 -3 5 -7 8 -11z" />
    <glyph glyph-name="udieresis" unicode="&#xfc;" horiz-adv-x="336" 
d="M392 86c0 -6 -10 -20 -31 -43c-2 -1 -5 -1 -10 -1c-10 0 -28 3 -53 10c-5 1 -12 7 -20 18c-5 8 -10 16 -15 23c-3 1 -7 -1 -10 -6c-32 -60 -58 -99 -77 -116c-3 -2 -14 -7 -35 -14c-21 -8 -32 -12 -35 -12c-9 0 -25 4 -48 12c-8 15 -22 32 -42 50c-16 14 -24 25 -24 34
c0 19 1 44 3 76c1 17 6 35 14 56c6 5 14 15 24 28c3 10 7 24 13 43c2 1 9 12 20 33c1 5 2 10 3 17c5 5 11 13 18 23c-1 9 5 25 19 48c3 7 5 14 8 21c6 13 12 19 18 19c13 0 26 -28 26 -44c0 -5 -9 -27 -9 -32c0 -3 -1 -13 -2 -31c3 -5 6 -13 7 -24c-8 -16 -18 -41 -30 -74
c-2 -1 -5 -2 -8 -4c3 -7 2 -15 -1 -24c-5 -13 -14 -31 -25 -56c-11 -24 -16 -46 -16 -66c0 -4 23 -12 24 -15h6c5 5 15 11 30 19c15 9 25 17 30 24c11 15 20 32 28 51l71 167c4 0 13 3 17 3c3 0 10 -5 20 -14c11 -9 19 -14 25 -14c4 0 7 1 8 2c4 -4 13 -32 13 -39
c0 -6 -3 -26 -9 -59l-10 -57c0 -11 5 -16 16 -16c-3 0 11 5 44 16c3 -12 5 -23 5 -32zM155 591h2l8 -3l9 -4l8 1l-1 -7l10 -4l14 -13l6 -7l14 -33l1 -7v-12l-7 -12l-7 -8l-1 -2l-15 -2l-17 -2l-18 7l-8 4l-2 2l-24 17l-11 10l-2 5v13l-2 11l2 13l8 16l18 14zM310 589l22 -7
l9 2l12 -15l14 -12l9 -24v-27l-13 -14l-5 -3l-10 -3l-26 4l-20 10l-21 19l-1 15l-4 6l11 34l10 7l10 3z" />
    <glyph glyph-name="dagger" unicode="&#x2020;" horiz-adv-x="539" 
 />
    <glyph glyph-name="degree" unicode="&#xb0;" horiz-adv-x="0" 
 />
    <glyph glyph-name="cent" unicode="&#xa2;" horiz-adv-x="455" 
d="M276 201l-33 -75l-21 -50c50 6 113 30 149 57c9 7 33 20 46 69l16 -46l-16 -30l-12 -5c-7 -5 -25 -19 -55 -43c-32 -25 -129 -69 -160 -72l-19 -42l-44 -73l-14 -37l-15 -20l-3 1l-14 -14l-6 -7l-11 5l-7 -3l-4 23l-1 9l12 37l39 96l24 62c-3 4 -6 8 -10 13
c-26 28 -83 83 -83 177c0 23 2 41 7 56c0 1 21 16 25 45c17 15 27 39 28 72c14 14 2 -20 59 86c36 2 38 4 43 14c10 -3 47 -2 82 -19c6 -3 22 -10 33 -15l5 13l69 150l18 36l8 11l4 -1l-9 -25l2 -5l-3 -8l-7 -30l3 -6l-5 -20l-1 -12l-2 -15l-17 -51l-10 -30v-6l-4 -21l1 -4
l-2 -8c32 -24 56 -52 75 -71v-17c-4 0 -17 -4 -22 -4c-4 0 -38 14 -75 30l-30 -91zM160 127l73 171l37 83l10 22c-15 6 -25 10 -27 10c-27 0 -55 -38 -85 -114c-25 -65 -38 -108 -38 -129c0 -40 3 -65 16 -80z" />
    <glyph glyph-name="sterling" unicode="&#xa3;" horiz-adv-x="630" 
d="M575 168l26 17c24 -26 36 -52 36 -76c0 -72 -97 -113 -160 -113c-28 0 -87 6 -176 20c-34 5 -64 8 -91 8c-34 0 -63 -4 -85 -12l-86 -20c15 8 30 14 30 30c-10 4 -19 7 -30 7c-15 0 -45 -4 -90 -11c11 3 92 70 132 72l6 35c22 9 42 33 54 69c45 129 25 39 25 69v52
c0 8 2 15 6 22c-10 7 -20 10 -34 10c-17 0 -56 29 -74 29c-28 0 -45 14 -46 48c28 26 151 -11 176 7c6 25 16 95 18 103c15 91 64 145 138 145c65 0 107 -26 123 -68l-28 -89c-26 42 -65 61 -128 70c-1 -7 -18 -13 -18 -68c0 -21 -11 -89 -2 -101l132 -25c-21 5 26 -4 9 -4
c-28 0 12 -2 -3 -17c19 -19 -63 -16 -26 -23l-38 -16c2 -9 13 -15 32 -18l-126 11c3 -12 6 -24 4 -36c-6 -46 -33 -88 -91 -177h8c22 0 79 -16 180 -35c22 -4 42 -6 60 -6c70 0 113 29 137 91z" />
    <glyph glyph-name="bullet" unicode="&#x2022;" horiz-adv-x="350" 
d="M137 427l45 -23h7l2 3v9l15 3l-4 -15l4 -9l3 -5l3 5v9h5l10 -22l8 8l4 -3l11 -26l11 -19l4 9l6 -2l4 -10l16 -24l-2 -12l4 -15h-4v-4l7 -25l-3 -29l3 -14l-7 4v-4l2 -9l-19 -12l-22 -8l-12 -22l-26 3h-6l-36 16l-35 28l-10 18l-13 3l1 6l-7 11v12l-23 17l-14 9l5 11v9
l6 10l12 40l-5 23l5 1h12v8l9 17l12 9z" />
    <glyph glyph-name="paragraph" unicode="&#xb6;" horiz-adv-x="374" 
 />
    <glyph glyph-name="germandbls" unicode="&#xdf;" horiz-adv-x="526" 
d="M293 585l28 -1l45 -11l36 -20l15 -13l19 -20l18 -26l14 -34l5 -18l2 -17l-10 -25l-1 -8l-29 -36l-16 -8l-12 -9l-5 -3l-8 -2l-6 -10l12 -10l35 -23l31 -30l23 -31l10 -24l6 -33l-2 -25l-6 -14l-3 -13l-15 -17l-19 -19l-12 -10l-9 -11l-18 -15l-4 -1l-11 -10l-7 -3l-15 -9
l-24 -11l-28 -10l-28 -3l-10 -3l-19 -2l-21 -4l-5 2l-10 -4l-71 8l-17 12l-3 10l1 10l-3 8l3 5v14h4l1 5l14 -15l16 -11l24 -5h31l32 4l29 4l21 8l20 9l27 15l15 16l10 17l9 17l4 13v20l-5 15l-5 14l-19 18l-15 11l-32 9l-16 1l-52 -14l-14 -3l-20 8l-8 2l-5 3l-17 20l-3 3
l1 7l-7 13l7 14v5l3 3l-2 8l5 4l7 13l5 4l13 7v6l9 4h16l10 1l7 7l7 -1l20 7l13 5l29 30l17 15l6 10l2 22l-12 25l-10 17l-21 12l-24 1l-25 -1l-27 -12l-19 -19l-12 -17l-10 -27l-15 -39l-44 -144l-4 -19l-18 -70l-12 -26l-6 -18l-11 -50l-2 -15l-5 -26l-14 -93l-12 -16
l-13 -28l-1 -3l-19 -4l-5 7l2 3l-4 18l-3 12l14 144l17 109l36 146l51 162l11 24l3 10l11 22l19 20l16 18l14 11l13 7l35 13z" />
    <glyph glyph-name="registered" unicode="&#xae;" horiz-adv-x="601" 
d="M562 477l4 -1c0 -2 0 -4 -1 -8l-3 -14l1 -3c1 0 1 0 2 -1c0 -6 -6 -18 -14 -35c-6 -13 -9 -22 -12 -28c-9 -14 -17 -24 -22 -30c-2 -3 -5 -6 -7 -11c-5 -2 -9 -6 -13 -10l1 -3c-2 -1 -2 -3 -3 -4c-7 -4 -15 -8 -25 -14c-2 -3 -10 -8 -17 -14c-1 -1 -3 -2 -4 -3
c-5 -3 -12 -6 -21 -10c-3 -1 -8 -3 -14 -6c-3 -2 -6 -3 -11 -6c-7 -2 -15 -4 -28 -8c-1 -1 -3 -2 -5 -3c-10 -3 -23 -6 -38 -9c-4 -1 -12 -2 -21 -4l-10 -1c-3 0 -12 -2 -15 -3c-22 0 -47 2 -70 6c-27 5 -57 15 -88 30c-11 6 -26 15 -41 28c-2 1 -9 9 -20 21
c-1 3 -7 11 -15 23c-2 10 -9 25 -15 45c2 -4 4 8 2 37c1 3 3 12 3 15l9 30c4 7 8 16 12 27c7 8 12 20 24 37c8 9 19 25 34 45c13 14 28 29 43 45c3 3 8 5 13 9l9 9c2 1 6 3 11 7c17 13 35 19 54 20l6 4l5 2c1 0 14 5 15 5c3 1 7 1 12 1c6 4 19 7 37 12l2 1l11 1c2 0 4 1 6 1
c3 0 8 0 15 -2l13 1c2 -3 9 -5 17 -8c4 -3 9 -6 15 -9c2 -1 5 -2 9 -2c-2 -1 -1 -3 0 -4c2 -3 5 -6 10 -10c1 -2 3 -5 3 -7c7 -4 15 -8 25 -12c4 -4 7 -7 13 -11c1 -1 3 -2 5 -3l16 -11c4 -4 8 -9 16 -16l6 -6c3 -4 5 -8 9 -12l1 -3c-1 -1 1 -1 2 -2c2 -3 5 -7 9 -13
c3 -2 3 -5 7 -8l4 -8c2 -3 2 -7 2 -12c1 -1 2 -1 3 -1c2 -4 3 -7 5 -9c1 -11 5 -28 9 -51l2 -11s-1 -1 1 -2zM470 485c-1 22 -4 40 -12 53c-4 8 -9 17 -14 27c-4 4 -7 8 -9 13c-7 6 -16 11 -24 18l-26 19c-9 4 -23 9 -40 16c-7 -4 -15 -7 -25 -7l-32 -1
c-10 -1 -29 -18 -52 -35c-9 -4 -24 -20 -46 -47c-5 -5 -7 -11 -9 -18c-3 -3 -7 -6 -9 -10c-3 -8 -9 -16 -15 -26c-10 -14 -19 -33 -27 -56c-1 -13 -1 -22 0 -28c-1 -12 0 -23 4 -32c3 -3 3 -7 6 -12c2 -3 8 -9 17 -19c4 -3 16 -9 37 -19c13 -5 39 -8 77 -7c-1 0 5 2 21 3
c12 1 20 2 25 3s18 5 37 11c5 3 10 6 17 9c11 4 24 11 35 21l26 30c1 1 6 11 17 28c4 6 8 15 15 27v5c5 13 6 24 6 34zM405 380l-1 -1c-2 -2 -8 -2 -11 -5c-2 0 -3 0 -4 1v-2h-4h-1h-2c-4 4 -18 7 -30 14l-8 3c-7 2 -20 9 -38 19l-3 1c-9 4 -20 9 -31 15l-9 3l-4 -1
c-11 -6 -18 -12 -30 -14l-1 -6v-3c-2 -7 -7 -16 -12 -25v-1c0 -2 -7 -20 -7 -20c-4 -7 -4 -9 -12 -18l-4 -3c0 -1 -2 -1 -4 -1c-1 0 -7 3 -12 12v1v7c-1 0 -1 0 -2 2l2 18c1 1 1 2 1 4s2 4 1 5c2 6 3 16 6 25v1c0 3 1 9 5 17c8 22 5 16 9 31c10 23 12 35 25 67v3
c1 1 2 2 3 4v3c2 3 3 8 7 16c4 4 2 9 24 15c2 -1 3 -1 5 -1h5c1 0 3 1 6 1c7 4 46 25 56 25c-1 0 22 4 27 4c6 0 13 -2 19 -4c-2 1 28 -12 24 -43c0 -6 0 -10 -4 -13v-1c-9 -19 -3 -13 -57 -47c1 1 -30 -15 -30 -20v-1l-4 -3c-2 -1 -3 -3 -5 -8v-2c-1 0 -1 -1 -1 -4v-1
c0 -3 26 -14 101 -59c5 -3 3 -11 5 -11v1zM366 557c-1 0 -6 2 -10 3c2 2 -25 -7 -32 -7c-4 -3 -10 -3 -38 -21c-3 -2 -8 -12 -20 -33c-5 -13 -7 -20 -7 -20c9 3 17 5 33 11c6 5 10 -1 55 40c13 10 19 27 19 27z" />
    <glyph glyph-name="copyright" unicode="&#xa9;" horiz-adv-x="622" 
d="M569 476c0 -2 0 -4 -1 -8l-3 -14l1 -3c1 0 1 0 2 -1c0 -6 -6 -18 -14 -35c-6 -13 -9 -22 -12 -28c-9 -14 -17 -24 -22 -30c-2 -3 -5 -6 -7 -11c-5 -2 -9 -6 -13 -10l1 -3c-2 -1 -2 -3 -3 -4c-7 -4 -15 -8 -25 -14c-2 -3 -10 -8 -17 -14c-1 -1 -3 -2 -4 -3
c-5 -3 -12 -6 -21 -10c-3 -1 -8 -3 -14 -6c-3 -2 -6 -3 -11 -6c-7 -2 -15 -4 -28 -8c-1 -1 -3 -2 -5 -3c-10 -3 -23 -6 -38 -9c-4 -1 -12 -2 -21 -4l-10 -1c-3 0 -12 -2 -15 -3c-22 0 -47 2 -70 6c-27 5 -57 15 -88 30c-11 6 -26 15 -41 28c-2 1 -9 9 -20 21
c-1 3 -7 11 -15 23c-2 10 -9 25 -15 45c2 -4 4 8 2 37c1 3 3 12 3 15l9 30c4 7 8 16 12 27c7 8 12 20 24 37c8 9 19 25 34 45c13 14 28 29 43 45c3 3 8 5 13 9l9 9c2 1 6 3 11 7c17 13 35 19 54 20l6 4l5 2c1 0 14 5 15 5c3 1 7 1 12 1c6 4 19 7 37 12l2 1l11 1c2 0 4 1 6 1
c3 0 8 0 15 -2l13 1c2 -3 9 -5 17 -8c4 -3 9 -6 15 -9c2 -1 5 -2 9 -2c-2 -1 -1 -3 0 -4c2 -3 5 -6 10 -10c1 -2 3 -5 3 -7c7 -4 15 -8 25 -12c4 -4 7 -7 13 -11c1 -1 3 -2 5 -3l16 -11c4 -4 8 -9 16 -16l6 -6c3 -4 5 -8 9 -12l1 -3c-1 -1 1 -1 2 -2c2 -3 5 -7 9 -13
c3 -2 3 -5 7 -8l4 -8c2 -3 2 -7 2 -12c1 -1 2 -1 3 -1c2 -4 3 -7 5 -9c1 -11 5 -28 9 -51l2 -11s-1 -1 1 -2zM473 485c-1 22 -4 40 -12 53c-4 8 -9 17 -14 27c-4 4 -7 8 -9 13c-7 6 -16 11 -24 18l-26 19c-9 4 -23 9 -40 16c-7 -4 -15 -7 -25 -7l-32 -1
c-10 -1 -29 -18 -52 -35c-9 -4 -24 -20 -46 -47c-5 -5 -7 -11 -9 -18c-3 -3 -7 -6 -9 -10c-3 -8 -9 -16 -15 -26c-10 -14 -19 -33 -27 -56c-1 -13 -1 -22 0 -28c-1 -12 0 -23 4 -32c3 -3 3 -7 6 -12c2 -3 8 -9 17 -19c4 -3 16 -9 37 -19c13 -5 39 -8 77 -7c-1 0 5 2 21 3
c12 1 20 2 25 3s18 5 37 11c5 3 10 6 17 9c11 4 24 11 35 21l26 30c1 1 6 11 17 28c4 6 8 15 15 27v5c5 13 6 24 6 34zM399 398l-7 -3c-4 -3 -14 -10 -33 -23c-20 -14 -80 -38 -95 -38c-14 0 -20 0 -38 27c-12 14 -40 43 -36 93c2 12 3 22 8 30c0 0 11 8 16 23
c9 8 17 21 19 39c8 7 -1 -11 38 45c20 1 21 2 26 8c12 -6 34 -17 59 -43l-2 -9c-2 0 -9 -2 -12 -2c-4 0 -15 4 -19 4c-16 0 -33 -20 -54 -60c-18 -34 -19 -55 -19 -66c-4 -39 1 -44 35 -44c29 0 62 11 87 27c5 4 22 6 31 32l7 -25z" />
    <glyph glyph-name="trademark" unicode="&#x2122;" horiz-adv-x="607" 
d="M544 623c9 -7 5 -6 11 -30v-19c-1 -8 -3 -22 -3 -38l-1 -2c-3 -14 -7 -36 -11 -64c-5 -16 -2 -30 -9 -44v-5c0 -1 0 -3 -1 -5v-6c-2 -2 1 -11 -5 -29c1 -1 1 -2 1 -3l-1 -2c2 5 -4 -18 -4 -33c0 -2 0 -2 1 -4c-1 -1 -1 -2 -1 -3v-6v-4l-1 -3c0 -12 -7 -18 -8 -18v-1
c-1 -1 -2 -4 -5 -7l-1 -1l2 -1l-2 -3v-4l-3 -4l-1 -8l-3 -2h1l-1 -1l-2 -1v-5l-2 -2v-3c-1 0 -2 -1 -3 -1v4c-1 2 -1 4 -2 8l-1 4c0 1 0 6 -1 12v2s0 2 -1 3v5l-1 2c1 1 1 2 1 4l-1 22l1 138c0 8 -1 11 -2 17c0 6 0 13 1 21v3c2 6 2 11 2 14l1 2c-2 0 -3 -2 -5 -3
c-2 0 -8 -4 -16 -12l-9 -17c-1 -1 -1 -2 -2 -3l-4 -7c-4 -7 -6 -13 -8 -16l-3 -2c-1 -3 -1 -9 -6 -14v-2l-5 -9c-1 -3 -3 -6 -6 -11l-1 -3c-1 0 -7 -13 -10 -13c0 0 -13 -15 -14 -15c-1 -1 -3 -2 -4 -3c-12 3 -25 17 -31 18c-15 7 -28 22 -32 51v19c1 4 1 8 1 12
c-1 0 -1 -2 -2 -3l-2 -4l-3 -5c-1 0 0 -7 -10 -26c-2 0 -5 -7 -12 -25c0 0 -6 -13 -13 -44l-4 -16c-1 -2 -1 -3 -1 -5c-3 -18 3 23 -12 -56c-3 -8 4 -4 -14 -31l-1 1c0 -1 0 -2 -1 -2h-2l-3 2c-1 0 -2 1 -4 2h1l-2 2v1c-4 12 -6 21 -6 31c0 1 0 5 1 11c11 33 -14 -28 34 168
c5 11 9 31 20 53v1c1 2 3 5 5 7l2 2c0 2 1 5 2 7c1 0 2 4 6 9c-5 -1 -9 -3 -15 -6h-11l-3 -2h-1c-1 0 -2 0 -3 1c-1 0 -3 0 -5 -1l-2 -1c-1 0 -3 1 -5 2c-1 -1 -4 -1 -6 -2l-3 -1c-3 0 -7 0 -11 -1h-3h-12c-2 0 -4 0 -6 -1h-3c-6 -6 -9 -21 -30 -105c-3 -15 -16 -74 -21 -93
c-1 -4 -6 -17 -6 -24v-10v-2c0 -2 -1 -7 -3 -13v-3c-1 -4 -3 -7 -3 -7c-1 -1 -11 -9 -11 -9h-1c-1 -1 -3 -2 -5 -3h-2h-1h-1c-2 3 -3 29 -3 32c0 1 0 2 1 3c0 2 -1 4 -1 5v14c0 4 1 11 2 18c-1 0 -1 1 -1 2c1 14 2 24 4 37v3c0 2 1 4 2 7c0 1 0 2 -1 3c1 4 2 9 3 16l1 2
c1 13 3 16 9 52c3 7 0 7 14 60c-2 0 -3 10 -5 10c-2 7 -4 5 -12 6h-3h-13c-20 0 -66 0 -74 28c0 3 8 9 12 9c1 0 2 -1 4 -2c4 2 12 3 23 3h9c2 1 5 1 8 2h2h4c1 -1 3 -2 6 -2c2 0 4 0 8 1l22 -2c12 1 24 2 35 2s17 -1 36 -2c1 0 8 1 22 2c0 0 5 -1 14 -1h14h17
c5 0 19 -4 25 -4c1 0 14 -10 14 -11l-2 -2c2 0 5 -1 9 -2c5 -1 10 2 27 -21c4 -8 7 -7 9 -38v-26c-1 -6 -1 -10 -1 -13v-31c0 -3 1 -10 2 -22c0 0 8 19 22 33l10 18l2 2l5 9c5 10 9 19 27 48l8 13c2 3 6 9 10 17c3 5 14 16 25 35c1 5 6 4 19 23l3 2c2 2 5 4 10 4
s12 -3 21 -10z" />
    <glyph glyph-name="acute" unicode="&#xb4;" horiz-adv-x="333" 
d="M256 854h4l5 -3l1 -4l-4 -1l-3 -8l1 -3l-5 -2l-8 -5v-3l3 -4l-4 -4l2 -8l-4 -3v-3l12 2v-1l-14 -11l-3 -10l-7 -11l-6 -7l-12 -11l-11 -8l-40 -24l-36 -16l-7 -1h-17l-12 4h-8l-6 3v4l-4 4l-5 14l1 5l-2 6l2 4l6 6v2l30 27l14 10l41 30l30 18l29 7z" />
    <glyph glyph-name="dieresis" unicode="&#xa8;" horiz-adv-x="398" 
d="M110 839h2l8 -3l9 -4l8 1l-1 -7l10 -4l14 -13l6 -7l14 -33l1 -7v-12l-7 -12l-7 -8l-1 -2l-15 -2l-17 -2l-18 7l-8 4l-2 2l-24 17l-11 10l-2 5v13l-2 11l2 13l8 16l18 14zM265 837l22 -7l9 2l12 -15l14 -12l9 -24v-27l-13 -14l-5 -3l-10 -3l-26 4l-20 10l-21 19l-1 15
l-4 6l11 34l10 7l10 3z" />
    <glyph glyph-name="notequal" unicode="&#x2260;" horiz-adv-x="488" 
d="M517 40c-3 -7 -8 -19 -13 -35c-5 -5 -13 -10 -23 -13c-3 0 -8 0 -15 -1c-20 -7 -29 -10 -27 -10c-15 0 -26 2 -31 5c-39 24 -59 47 -59 70c0 3 1 6 3 9c0 -3 -3 11 -8 41c1 1 0 2 -4 2c-7 0 -12 -3 -16 -9c-7 -9 -11 -15 -14 -18c-1 1 -4 3 -8 6c-11 -11 -26 -28 -45 -49
c-15 -12 -36 -31 -63 -58c-3 -7 -8 -17 -15 -30h-11c-5 0 -14 7 -29 22c-15 14 -23 24 -24 29v18c-1 2 -4 4 -8 5c-4 8 -8 20 -13 37c-3 21 -4 39 -3 52c-1 1 -3 1 -5 1s-7 -3 -16 -10c-9 -6 -14 -9 -15 -9c-1 1 -3 2 -6 4c-2 -1 -5 -4 -8 -11c-1 -2 -3 -5 -7 -10
c-3 1 -5 2 -8 2s-11 -5 -26 -16c-5 3 -9 7 -14 12c1 12 5 22 13 29c13 9 38 31 73 66c7 5 16 12 27 21c5 5 12 14 21 25c-1 5 -1 12 0 22c3 5 6 12 10 21c-1 3 -2 8 -3 14l16 62c7 25 15 45 25 62c1 2 1 6 0 13s-2 12 -2 15c0 5 5 14 15 28c2 7 6 16 13 29c4 3 10 9 17 17
c-1 3 -1 8 -1 14c3 12 21 46 53 101c11 8 24 20 41 35c5 1 11 2 18 5c3 0 6 -3 8 -8h9l13 10l12 -6c7 11 13 17 16 17s9 -4 19 -11c11 -7 17 -10 19 -10c4 0 2 2 6 2c11 0 19 -11 26 -33c5 -15 7 -27 7 -36c-17 -29 -41 -68 -72 -119c-5 -3 -11 -7 -20 -12
c-1 -3 -3 -8 -6 -13c-1 -1 -7 -4 -17 -8c-1 -3 9 -8 9 -9c-2 -1 -4 -1 -5 -1s-3 0 -4 1c-9 -5 -13 -14 -10 -26c-9 1 -28 -13 -28 -22c0 -2 1 -4 2 -5h-18c-1 -5 -3 -13 -6 -23c-5 -5 -12 -13 -20 -24c-6 -15 -24 -41 -53 -80c-24 -32 -38 -58 -41 -79l-15 -100
c-1 -4 -1 -21 0 -51c0 -7 5 -11 16 -11c16 0 38 18 65 53c10 13 25 33 44 60c3 2 8 6 14 11c9 13 21 31 36 54c10 9 24 21 41 37c1 3 5 8 10 15c9 7 17 10 24 10c3 0 11 -3 25 -8s22 -9 24 -11c-3 -15 -8 -36 -15 -65c-8 -23 -14 -40 -17 -50c-5 -17 -8 -32 -9 -45
c-1 -20 8 -30 28 -30c5 0 12 1 21 3c1 2 4 5 8 9c13 14 26 27 40 40c3 -12 6 -26 9 -41zM355 564c-9 -2 -18 -6 -28 -13c-7 -12 -22 -29 -45 -51s-37 -39 -43 -52c1 -4 1 -7 0 -10c-7 -13 -25 -63 -54 -150c19 22 56 74 112 157c2 5 5 11 10 20c5 3 10 6 16 11
c15 39 25 68 32 88z" />
    <glyph glyph-name="AE" unicode="&#xc6;" horiz-adv-x="689" 
d="M753 529c0 -3 -1 -5 -4 -6l-48 -12c-7 -3 -19 -5 -34 -6c-7 -2 -16 -5 -29 -8c-1 1 -3 1 -4 1c-21 -3 -43 -6 -66 -9c-10 0 -17 -1 -20 -2c-1 -1 -2 -1 -3 -1s-2 0 -3 1c-3 -1 -8 -1 -15 -2c-4 -1 -9 -2 -15 -3h-16c-2 -1 -4 -1 -6 -1c-3 1 -6 1 -9 2
c-7 -7 -22 -19 -38 -39c-5 -3 -11 -8 -16 -14c-3 -14 -6 -35 -10 -64c-1 -5 -1 -9 -1 -14c1 -3 3 -6 6 -9c2 0 5 -6 10 -18c5 -11 8 -17 11 -17c1 0 4 -11 5 -11c1 -5 4 -10 8 -15c6 1 20 2 41 5c1 0 15 3 42 9c2 1 7 1 15 2l4 2c7 0 12 0 15 -1c2 0 4 0 6 1c3 -1 5 -2 7 -2
c1 1 3 1 5 1c4 0 9 -2 14 -7c2 0 5 -2 8 -7c-1 -1 -1 -2 -1 -3c3 -1 5 -4 8 -10c-3 -5 -8 -10 -14 -15c0 -1 -15 -4 -46 -10c-16 -4 -40 -12 -60 -13c-1 -1 -3 -1 -5 -2c-12 -1 -30 -3 -55 -6c-6 -7 -14 -14 -25 -21c-3 -5 -8 -10 -13 -15l-3 -3c-1 -44 -3 -64 -4 -60
c1 -11 0 -28 13 -49c5 -8 10 -14 15 -18c23 -14 49 -21 76 -21c3 -1 6 -1 10 -2c13 -1 22 0 28 1c2 0 5 0 8 1c1 -1 2 -1 3 -1c2 1 5 3 10 5h8c1 -1 2 -2 4 -2c1 1 2 1 4 2c1 -1 2 -1 3 -1l-4 -2c0 1 0 1 -1 2c-1 0 -1 0 0 1c-1 -3 -1 -6 0 -11c5 -3 7 -12 7 -27v-4l-5 -4
l-5 -5l-41 -12c-4 -3 -16 -6 -37 -9c-8 -1 -24 -3 -47 -4c-2 0 -6 1 -12 3c-1 -1 -2 -1 -3 -2c-7 0 -22 6 -53 19c-5 3 -12 6 -21 11c-7 7 -16 15 -27 24c-1 3 -3 5 -6 8c-3 8 -8 17 -13 27c-3 9 -7 19 -12 31c-2 14 -5 35 -9 64c-7 2 -13 6 -20 13l-1 1c-6 3 -12 8 -17 14
h-22c-3 -1 -7 -1 -11 -2c-5 -4 -10 -8 -16 -12c-3 -4 -14 -15 -33 -32c-8 -8 -20 -19 -37 -33c-6 -7 -13 -13 -20 -20c-3 -5 -7 -10 -10 -17c-1 -3 -5 -12 -12 -25c-3 -7 -7 -14 -11 -22c-4 -3 -8 -8 -13 -13c-1 -1 -6 -5 -14 -10c-3 0 -6 0 -9 -1h-1c-1 1 -1 2 -1 1h-1l2 4
c1 4 2 6 3 5v1c0 -3 -4 -5 -11 -5c-3 1 -4 7 -4 20c1 13 0 21 -1 23c1 -3 2 4 2 19c0 -3 8 16 25 59c3 7 5 15 6 24c1 6 2 15 3 27c1 3 1 6 2 10c1 1 3 2 4 4v6c2 3 4 8 6 14c3 2 5 4 7 7h3c3 1 5 3 8 6c13 30 26 59 39 86c2 5 6 12 11 21c0 1 0 3 1 5l16 28
c1 3 17 34 47 92c5 9 12 24 23 45c1 2 4 6 7 12c5 9 13 25 24 46c3 7 13 24 29 51c1 1 3 3 7 5c11 8 20 11 26 8c4 0 9 -1 16 -3c1 1 2 1 3 0c7 -2 13 -6 20 -11c3 -1 7 -4 12 -9v-3c2 -1 4 -3 7 -5c3 -5 7 -10 11 -16c4 -11 8 -23 13 -37c1 0 1 0 2 1c2 -2 5 -3 8 -3
c-3 1 -10 -9 -10 -6h1c2 5 6 7 12 7h7c4 1 6 1 7 1s2 0 3 -1c3 1 6 3 11 4c2 0 4 0 7 1c7 0 14 0 23 1c4 1 8 2 13 3c11 1 30 3 56 5c5 1 12 1 22 2l38 1l4 -2h9l4 2c1 1 3 1 5 2c4 -1 10 -1 17 -1c3 1 6 2 10 3c3 -1 7 -1 11 -1l2 1c6 1 17 1 32 1c9 0 17 -1 23 -4
c1 -2 5 -4 12 -5c3 -1 7 -3 13 -6c0 0 2 -3 5 -10zM287 467c-5 0 -17 -21 -35 -64c-3 -9 -9 -21 -16 -36c-14 -31 -27 -61 -39 -92c-2 -6 -5 -16 -10 -29c17 4 42 10 75 17c7 9 18 18 31 27v41c1 28 1 42 1 43c1 5 1 12 1 19c0 6 0 14 -1 24c1 9 2 19 2 31c-1 4 -3 9 -4 14z
" />
    <glyph glyph-name="Oslash" unicode="&#xd8;" horiz-adv-x="549" 
d="M472 588c7 -2 13 -7 16 -16c1 -4 3 -10 6 -19v-11c1 -7 -2 -19 -8 -35c-1 -5 -9 -16 -22 -33v-5c-1 -5 0 -12 2 -19c-1 -6 -1 -12 -1 -19c3 -5 7 -9 11 -9c4 -7 9 -14 14 -21c3 -7 7 -14 12 -23c3 -2 5 -5 8 -8c2 -7 4 -16 7 -26c1 0 2 -1 3 -2c2 -9 4 -19 7 -31
c1 -1 1 -2 1 -3c1 -8 4 -20 7 -36c1 -7 3 -13 6 -30c0 -3 0 -7 -1 -10c1 -2 1 -7 0 -15c-1 -17 0 -14 -4 -23c-1 -4 -2 -6 -2 -7c-1 -5 -2 -11 -3 -17c-3 -7 -6 -16 -9 -26c-1 -3 -3 -9 -7 -20c-4 -3 -6 -7 -10 -19c-3 -3 -6 -7 -9 -12v-4c-1 -1 -1 -3 -2 -4
c-3 -2 -5 -4 -8 -6c-7 -9 -16 -20 -31 -33c-6 -4 -13 -9 -20 -15c-8 -7 -20 -14 -37 -23c-25 -22 -52 -33 -79 -33c-7 0 -13 0 -19 1l-9 -4l-10 -1l-7 -3l-6 -1h-5l-6 -3l-20 2l-17 4l-11 4l-12 -24l-7 -9c-3 -9 -7 -19 -11 -31c-2 -4 -4 -9 -6 -14l-2 -2
c-3 -13 -8 -18 -15 -17c-13 4 -14 10 -15 19c1 6 2 13 3 22c2 14 3 29 3 46c-1 2 2 13 9 32c-3 1 -6 3 -9 5c-11 7 -22 16 -41 31c-5 7 -12 15 -19 24c-4 7 -9 16 -15 25c-3 9 -8 20 -13 33c-1 6 -2 13 -4 20c-1 12 -2 26 -3 42c1 7 1 16 1 25c-1 2 0 8 2 19c3 11 4 17 4 19
c0 3 3 11 8 24c5 14 8 22 8 24c3 6 7 13 10 21c1 5 7 18 20 39s20 34 21 37c10 14 21 30 34 48c4 5 8 10 13 16c3 2 6 4 9 7c1 2 4 6 9 12c5 3 10 8 17 15c5 1 10 7 21 15c0 0 7 4 20 11c9 3 20 6 33 11c3 1 6 2 14 3c1 1 3 1 6 2h12c8 1 11 1 10 1c1 -1 5 -3 12 -7
c3 -3 7 -6 11 -9c3 -1 6 -4 13 -7c0 0 4 -6 7 -6l1 -1c15 11 32 22 51 33c5 11 12 26 19 43c1 3 21 17 25 17h9zM460 250c0 41 -6 70 -19 88c-6 11 -15 25 -27 40c-1 2 -4 5 -7 8c-3 -9 -14 -32 -33 -67s-30 -55 -31 -60c-13 -19 -27 -42 -42 -71c-2 -6 -4 -13 -7 -20
c-2 -3 -4 -7 -7 -12c-7 -15 -16 -34 -25 -57c-5 -12 -10 -27 -17 -45c-1 -5 -3 -11 -6 -18l20 -1l4 1l8 2c11 0 21 1 31 2c13 2 28 8 46 18c7 3 14 8 21 13c11 7 26 17 42 37c1 2 8 14 19 35c3 7 8 17 13 32c1 5 3 10 5 16c3 4 5 9 8 14c0 2 0 4 -1 7c3 15 5 28 5 38z
M353 434c-3 3 -7 5 -8 8c-7 -5 -15 -8 -26 -8h-31c-3 0 -15 -7 -38 -22c-7 -10 -16 -21 -26 -33c-7 -8 -19 -25 -34 -50c-2 -3 -4 -6 -7 -10c-2 -6 -5 -13 -9 -21c-2 -4 -4 -8 -7 -13c-3 -8 -7 -17 -11 -27c-1 -1 -1 -2 -2 -4c-9 -17 -18 -39 -27 -67c-2 -25 -3 -37 -3 -34
c0 -36 7 -62 22 -77c13 -12 24 -19 33 -22c5 11 10 22 15 35c11 27 25 61 41 103c15 30 33 67 53 111c20 37 42 81 65 131z" />
    <glyph glyph-name="_271" horiz-adv-x="489" 
 />
    <glyph glyph-name="plusminus" unicode="&#xb1;" horiz-adv-x="461" 
 />
    <glyph glyph-name="lessequal" unicode="&#x2264;" horiz-adv-x="455" 
 />
    <glyph glyph-name="greaterequal" unicode="&#x2265;" horiz-adv-x="533" 
 />
    <glyph glyph-name="yen" unicode="&#xa5;" horiz-adv-x="585" 
d="M613 625l-4 -14h3l-8 -18l-9 -12v-6l-6 -11l-11 -8l-1 -10l5 -5l9 2l4 -5l-50 -56l-14 -20l-13 -27l-28 -39l-22 -26l-4 -8l-27 -33l-11 -12l-5 -8l-15 -14l3 -5h84l33 -2l37 -8l3 -3l20 -6l15 -5l-3 -5l4 -7l-5 -4l-7 -2h-12l-3 -2l1 -8l-21 2l-5 -2l-1 -8l5 -3l-1 -3
l-8 -3v-4l-28 -3l-25 -5l-25 -1l-35 -2l-5 -3l-32 -3l-51 -8l-35 -8l-9 -15l-9 -23l-4 -4l1 -5l-5 -10l-6 -14l16 3l43 5l53 8l78 9h19l6 -3l1 -5l-12 -5l-2 -6l-4 -1l-14 -10l-1 -7l-9 -6l-6 -7l-6 -5l-25 -11l-14 -7l-3 -4l-9 -7l-1 -5l-28 -11l-50 -15l-43 -11l-31 -10
l-2 -5l-5 -24l-12 -23l-12 -24l-3 -2l-5 -16l-4 -3l-5 -13l-6 -19l-4 -25l-3 -12l-2 -17l-4 -14l-5 -5l-2 -6l-7 -5l-6 8l-9 19v11l-5 13l1 45l9 78l4 24l-4 -1l-40 10l-19 -6l-11 5l-1 5l-9 8l-4 3l-1 17l-3 7l8 19l3 6l18 8l48 12l38 10l22 74l-81 -18l-35 -4l-23 1l-11 2
l-17 6l-12 10l-8 11v12l6 12l20 13l65 26l78 26l-9 34l-7 40v47l1 25l9 57l8 42l21 40l18 13l10 5l6 1l12 -1l3 -5h3l14 -8l9 -10l11 -42l4 -30l-5 -36l1 -16l-10 -84l8 -5l14 12l48 45l258 250l9 -5z" />
    <glyph glyph-name="mu" unicode="&#xb5;" horiz-adv-x="389" 
d="M387 117c3 -12 5 -23 5 -32c0 6 -12 -44 -41 -44c-10 0 -28 3 -53 10c-10 2 -30 41 -36 41c-3 0 -6 -2 -9 -6c-32 -60 -58 -99 -77 -116c-2 -1 -68 -26 -70 -26c-9 0 -25 4 -48 12c-3 5 -8 12 -14 19c-5 -12 -11 -26 -18 -41c1 -3 2 -7 2 -12c0 -2 -1 -4 -1 -6v3
c0 6 -2 15 -7 29c-3 0 -5 -13 -7 -39c-32 -56 -26 -126 -69 -126c-13 0 -19 10 -19 30c0 7 5 29 8 36c7 20 8 60 17 111c-1 4 -1 10 -1 19c25 106 63 225 112 357c9 14 21 31 31 62c2 9 5 16 9 16c13 0 57 -38 57 -54c0 -5 -9 -27 -9 -32c0 -3 -1 -10 -2 -24l10 -19
c-1 -3 -3 -6 -4 -9c1 -1 1 -2 1 -3c-1 -2 -3 -5 -4 -8c-4 -14 -8 -31 -14 -49c-6 -15 -18 -28 -24 -49l-17 -51s-8 -12 -17 -33c-2 -12 -4 -23 -4 -34c0 -4 23 -12 24 -15h6c5 6 15 11 30 19c38 22 45 45 58 75l71 167c4 0 13 3 17 3s36 -28 45 -28c4 0 7 1 8 2
c4 -4 13 -32 13 -39c0 -6 -3 -26 -9 -59l-10 -57c0 -11 5 -16 16 -16c0 1 14 6 44 16z" />
    <glyph glyph-name="mu" unicode="&#x3bc;" horiz-adv-x="389" 
d="M387 117c3 -12 5 -23 5 -32c0 6 -12 -44 -41 -44c-10 0 -28 3 -53 10c-10 2 -30 41 -36 41c-3 0 -6 -2 -9 -6c-32 -60 -58 -99 -77 -116c-2 -1 -68 -26 -70 -26c-9 0 -25 4 -48 12c-3 5 -8 12 -14 19c-5 -12 -11 -26 -18 -41c1 -3 2 -7 2 -12c0 -2 -1 -4 -1 -6v3
c0 6 -2 15 -7 29c-3 0 -5 -13 -7 -39c-32 -56 -26 -126 -69 -126c-13 0 -19 10 -19 30c0 7 5 29 8 36c7 20 8 60 17 111c-1 4 -1 10 -1 19c25 106 63 225 112 357c9 14 21 31 31 62c2 9 5 16 9 16c13 0 57 -38 57 -54c0 -5 -9 -27 -9 -32c0 -3 -1 -10 -2 -24l10 -19
c-1 -3 -3 -6 -4 -9c1 -1 1 -2 1 -3c-1 -2 -3 -5 -4 -8c-4 -14 -8 -31 -14 -49c-6 -15 -18 -28 -24 -49l-17 -51s-8 -12 -17 -33c-2 -12 -4 -23 -4 -34c0 -4 23 -12 24 -15h6c5 6 15 11 30 19c38 22 45 45 58 75l71 167c4 0 13 3 17 3s36 -28 45 -28c4 0 7 1 8 2
c4 -4 13 -32 13 -39c0 -6 -3 -26 -9 -59l-10 -57c0 -11 5 -16 16 -16c0 1 14 6 44 16z" />
    <glyph glyph-name="partialdiff" unicode="&#x2202;" horiz-adv-x="453" 
 />
    <glyph glyph-name="summation" unicode="&#x2211;" horiz-adv-x="610" 
 />
    <glyph glyph-name="product" unicode="&#x220f;" horiz-adv-x="563" 
 />
    <glyph glyph-name="pi" unicode="&#x3c0;" horiz-adv-x="565" 
 />
    <glyph glyph-name="integral" unicode="&#x222b;" horiz-adv-x="566" 
 />
    <glyph glyph-name="ordfeminine" unicode="&#xaa;" horiz-adv-x="343" 
 />
    <glyph glyph-name="ordmasculine" unicode="&#xba;" horiz-adv-x="353" 
 />
    <glyph glyph-name="Omega" unicode="&#x3a9;" horiz-adv-x="517" 
 />
    <glyph glyph-name="Omega" unicode="&#x2126;" horiz-adv-x="517" 
 />
    <glyph glyph-name="ae" unicode="&#xe6;" horiz-adv-x="804" 
d="M657 2c45 21 82 53 88 53c3 0 5 -1 7 -2c-1 -9 -4 -21 -9 -34c-5 -5 -86 -113 -204 -113c-44 0 -102 61 -131 97c-15 20 -26 45 -32 69c-3 -13 -6 -28 -9 -46l-13 -84c-1 -4 -1 -10 -1 -15c0 -7 0 -16 2 -24c-3 4 -10 13 -21 24c-21 21 -24 33 -24 67c0 28 3 48 7 59
c-3 4 -6 5 -9 5c-11 0 -23 -19 -88 -74c-7 -21 -25 -32 -93 -67c-13 -15 -26 -24 -41 -24c-2 0 -31 14 -39 39c-11 38 -37 48 -37 87c0 10 3 28 10 52c8 4 17 11 28 21c4 25 6 24 62 112c23 17 17 32 56 67c55 73 98 122 133 122c11 0 24 -7 41 -24c24 0 14 -14 65 -28
c-1 2 44 -17 44 -42c0 -4 -8 -18 -8 -22v-2l14 12c10 13 26 31 49 54l31 17c11 5 17 13 19 23h8c4 0 17 -14 22 -15c45 -7 69 -11 70 -11c44 -11 106 -60 106 -97c0 -122 -160 -135 -175 -135c-51 0 -83 6 -98 18c-25 -41 -38 -73 -38 -95c0 -6 5 -15 14 -28
c18 -25 19 -25 55 -29c5 -3 16 -15 45 -15c21 0 53 9 94 28zM585 267c-51 -29 -66 -63 -97 -104c13 -4 20 -6 21 -6c7 0 23 8 50 25c66 42 66 68 73 91c-8 8 -14 12 -18 12zM300 218c12 31 19 46 20 46c0 7 -3 11 -10 11c-5 0 -16 -7 -31 -19c-23 -14 -51 -46 -130 -139
c-8 -11 -65 -94 -65 -110c0 -6 2 -9 7 -9c15 0 44 38 87 73c7 11 18 18 71 71c0 10 34 63 51 76zM333 275c1 2 2 5 3 7c-1 0 -8 -2 -9 -2c1 -2 3 -3 6 -5z" />
    <glyph glyph-name="oslash" unicode="&#xf8;" horiz-adv-x="547" 
d="M472 588c7 -2 13 -7 16 -16c1 -4 3 -10 6 -19v-11c1 -7 -2 -19 -8 -35c-1 -5 -9 -16 -22 -33v-5c-1 -5 0 -12 2 -19c-1 -6 -1 -12 -1 -19c3 -5 7 -9 11 -9c4 -7 9 -14 14 -21c3 -7 7 -14 12 -23c3 -2 5 -5 8 -8c2 -7 4 -16 7 -26c1 0 2 -1 3 -2c2 -9 4 -19 7 -31
c1 -1 1 -2 1 -3c1 -8 4 -20 7 -36c1 -7 3 -13 6 -30c0 -3 0 -7 -1 -10c1 -2 1 -7 0 -15c-1 -17 0 -14 -4 -23c-1 -4 -2 -6 -2 -7c-1 -5 -2 -11 -3 -17c-3 -7 -6 -16 -9 -26c-1 -3 -3 -9 -7 -20c-4 -3 -6 -7 -10 -19c-3 -3 -6 -7 -9 -12v-4c-1 -1 -1 -3 -2 -4
c-3 -2 -5 -4 -8 -6c-7 -9 -16 -20 -31 -33c-6 -4 -13 -9 -20 -15c-8 -7 -20 -14 -37 -23c-25 -22 -52 -33 -79 -33c-7 0 -13 0 -19 1l-9 -4l-10 -1l-7 -3l-6 -1h-5l-6 -3l-20 2l-17 4l-11 4l-12 -24l-7 -9c-3 -9 -7 -19 -11 -31c-2 -4 -4 -9 -6 -14l-2 -2
c-3 -13 -8 -18 -15 -17c-13 4 -14 10 -15 19c1 6 2 13 3 22c2 14 3 29 3 46c-1 2 2 13 9 32c-3 1 -6 3 -9 5c-11 7 -22 16 -41 31c-5 7 -12 15 -19 24c-4 7 -9 16 -15 25c-3 9 -8 20 -13 33c-1 6 -2 13 -4 20c-1 12 -2 26 -3 42c1 7 1 16 1 25c-1 2 0 8 2 19c3 11 4 17 4 19
c0 3 3 11 8 24c5 14 8 22 8 24c3 6 7 13 10 21c1 5 7 18 20 39s20 34 21 37c10 14 21 30 34 48c4 5 8 10 13 16c3 2 6 4 9 7c1 2 4 6 9 12c5 3 10 8 17 15c5 1 10 7 21 15c0 0 7 4 20 11c9 3 20 6 33 11c3 1 6 2 14 3c1 1 3 1 6 2h12c8 1 11 1 10 1c1 -1 5 -3 12 -7
c3 -3 7 -6 11 -9c3 -1 6 -4 13 -7c0 0 4 -6 7 -6l1 -1c15 11 32 22 51 33c5 11 12 26 19 43c1 3 21 17 25 17h9zM460 250c0 41 -6 70 -19 88c-6 11 -15 25 -27 40c-1 2 -4 5 -7 8c-3 -9 -14 -32 -33 -67s-30 -55 -31 -60c-13 -19 -27 -42 -42 -71c-2 -6 -4 -13 -7 -20
c-2 -3 -4 -7 -7 -12c-7 -15 -16 -34 -25 -57c-5 -12 -10 -27 -17 -45c-1 -5 -3 -11 -6 -18l20 -1l4 1l8 2c11 0 21 1 31 2c13 2 28 8 46 18c7 3 14 8 21 13c11 7 26 17 42 37c1 2 8 14 19 35c3 7 8 17 13 32c1 5 3 10 5 16c3 4 5 9 8 14c0 2 0 4 -1 7c3 15 5 28 5 38z
M353 434c-3 3 -7 5 -8 8c-7 -5 -15 -8 -26 -8h-31c-3 0 -15 -7 -38 -22c-7 -10 -16 -21 -26 -33c-7 -8 -19 -25 -34 -50c-2 -3 -4 -6 -7 -10c-2 -6 -5 -13 -9 -21c-2 -4 -4 -8 -7 -13c-3 -8 -7 -17 -11 -27c-1 -1 -1 -2 -2 -4c-9 -17 -18 -39 -27 -67c-2 -25 -3 -37 -3 -34
c0 -36 7 -62 22 -77c13 -12 24 -19 33 -22c5 11 10 22 15 35c11 27 25 61 41 103c15 30 33 67 53 111c20 37 42 81 65 131z" />
    <glyph glyph-name="questiondown" unicode="&#xbf;" horiz-adv-x="475" 
d="M32 0c-6 11 -9 21 -10 32c0 12 2 24 6 36c0 2 1 6 2 10c2 5 4 10 5 16c8 9 18 22 29 37c4 5 11 12 22 20c3 3 6 7 10 12c11 11 21 20 30 29c7 9 15 17 24 25c53 45 109 89 137 149c9 20 43 56 66 56c7 0 12 -3 12 -13c0 -1 0 -4 -1 -7c2 -1 4 -4 4 -4
c1 -5 -13 -29 -19 -41c-25 -50 -50 -89 -80 -126c-30 -36 -93 -96 -102 -135v-2c0 -14 2 -24 4 -31c2 -3 3 -6 5 -8c3 -3 6 -4 9 -4c2 -3 4 -10 12 -9c-1 -3 0 -5 1 -5l4 2c0 -1 1 -1 2 -1c2 -2 4 -5 5 -8c6 -2 13 -3 20 -3c49 0 87 51 126 54c12 0 19 -12 19 -21h5
c6 0 11 -1 11 -7c0 -3 -1 -5 -4 -10c1 -1 1 -3 1 -3c0 -21 -55 -70 -86 -85c-50 -23 -91 -43 -141 -43c-54 0 -111 35 -128 88zM317 528c0 1 0 1 -1 2l-4 18c0 2 1 4 2 6c4 15 10 30 20 46c10 6 23 14 40 28c2 1 8 2 16 2h3c10 -2 16 -5 19 -8c4 -4 10 -10 17 -15
c2 -4 4 -8 7 -13c1 -1 2 -3 3 -5l-2 -6c5 -4 9 -10 14 -15c-2 -6 -9 -17 -23 -34c0 -3 -1 -6 -4 -11c-2 -1 -6 -2 -10 -4l-1 -3c-4 -4 -9 -8 -16 -14c-4 -3 -9 -5 -15 -9c-2 -1 -9 0 -19 1c-2 0 -7 3 -17 6l-4 -3c-1 1 -1 1 -2 1l-6 9c-1 -1 -3 -1 -5 -1c-6 7 -8 15 -8 23
c-2 -1 -3 -1 -4 -1z" />
    <glyph glyph-name="exclamdown" unicode="&#xa1;" horiz-adv-x="328" 
d="M200 570c4 10 2 12 11 23v5l3 3c0 1 0 3 -1 5v4c1 1 6 3 7 4v2c3 3 5 6 8 11l1 1c2 1 4 3 5 4c6 -1 12 0 18 1l4 2v5c3 1 5 2 7 3c1 4 4 6 11 6c1 -1 3 -3 6 -4l1 1c0 1 0 1 1 2h4l7 -7c1 0 1 0 2 1h2c1 0 2 0 3 -1c5 -9 9 -16 11 -21c1 1 2 1 3 1c1 -1 7 -15 7 -18
c-1 -4 -1 -9 -2 -15v-10c-1 -5 -3 -13 -6 -24c-5 -5 -13 -13 -22 -25c-4 -1 -9 -2 -14 -4c-1 1 -8 1 -20 1c-1 1 -8 5 -22 11c-4 1 -10 6 -18 14c0 1 0 3 -1 4c-3 3 -7 6 -10 9c-2 1 -4 3 -6 6zM242 374c0 -8 -2 -14 -5 -17c-3 -11 -8 -26 -13 -46c-1 -7 -2 -16 -3 -26
c0 -5 -2 -16 -5 -31c-1 -1 -3 -2 -4 -4v-8c-1 -1 -2 -4 -3 -10c-15 -61 -28 -115 -40 -162c1 -1 1 -3 1 -5c-4 -21 -10 -49 -19 -86s-13 -54 -13 -52l-6 -12c-1 -1 -3 -2 -4 -3c-3 -3 -10 -5 -22 -5c-3 0 -9 3 -18 8s-13 9 -13 10c-2 5 -4 10 -5 16v21c6 19 12 46 18 80
c7 39 13 66 16 80c9 39 25 90 46 153c5 15 14 40 26 75c3 8 9 21 16 39c6 13 12 21 19 24c2 1 5 2 8 3c5 -2 11 -8 19 -19c1 -5 1 -11 1 -18c1 -1 2 -3 3 -5z" />
    <glyph glyph-name="logicalnot" unicode="&#xac;" horiz-adv-x="701" 
 />
    <glyph glyph-name="radical" unicode="&#x221a;" horiz-adv-x="539" 
 />
    <glyph glyph-name="florin" unicode="&#x192;" horiz-adv-x="562" 
d="M503 618l22 2l18 -10l11 -8l7 -10l6 -9l8 -16h-6l-2 -10l5 -6l-2 -5h-3l-3 5h-5l-3 -4l-11 5l-2 -6l-10 -3l-1 4h-8l-7 8l-14 2h-18l-7 -2l-1 -6l-13 -24l-11 -31l-3 -5l-9 -25l-41 -112l1 -4l45 -2l45 -8l39 -13l10 -5l1 -6l4 -3v-2l-13 -5l-16 -10l-2 -3l6 -8l-12 -5
l-38 -3l-9 -3l-79 -11l-8 -4l-2 -6l-5 -23l-4 -3l-25 -90l-21 -57l-3 -3l-11 -25l-13 -21l-23 -41l-14 -14l-13 -18l-10 -11l-9 -12l-18 -16l-8 -8l-13 -9l-18 -15h-4l-18 -10l-3 -3l-36 -13l-14 -1l-5 -5l-10 2l-5 -5l-13 3l-13 8h-4l-21 13l-10 22l-6 104l-2 -12l2 20
l6 37l11 30l18 24l8 5l10 5l3 -5v-16h6v-3l-9 -16l-2 -28l-3 -3l2 -5h-4l2 -4l7 -18l7 -26l1 -13l4 -21l4 -5l8 -9l9 -2l16 -3l20 8l6 3l19 21l20 18l29 45l20 33l17 42l24 69l19 64l5 27h-38l-42 8l-17 7l-4 13l6 11l5 5l10 5l1 4l32 10l13 3l41 12h9l3 4l13 50l29 74
l28 54l32 40l44 39l27 14z" />
    <glyph glyph-name="approxequal" unicode="&#x2248;" horiz-adv-x="464" 
 />
    <glyph glyph-name="approxequal" unicode="&#x22f2;" horiz-adv-x="464" 
 />
    <glyph glyph-name="increment" unicode="&#x394;" horiz-adv-x="323" 
 />
    <glyph glyph-name="increment" unicode="&#x2206;" horiz-adv-x="323" 
 />
    <glyph glyph-name="guillemotleft" unicode="&#xab;" horiz-adv-x="480" 
d="M273 374h1l14 -5l10 -5l5 -17l-2 -16l-3 -6l-33 -30l-54 -42l-59 -53l-10 -16v-7l5 -9l65 -62l10 -11l6 -16l2 -17l-2 -5l-8 -8l-12 -2l-7 2l-11 -8h-13l-19 8l-57 41l-14 16l-14 17l-13 31v14l3 20l10 19l20 32l72 65l47 37l40 25l6 3zM403 368l17 -7l5 -1l8 -13l6 -22
l-2 -11l-11 -21l-14 -14l-6 -11l-39 -31l-49 -45l16 -19l8 -11l29 -34l6 -11l5 -13l5 -15v-8l-11 -2l-24 -16l-16 -3l-22 14l-5 2l-5 -3l-24 12l-41 45l-13 28l-3 21l8 32l11 22l42 44l60 53l46 34z" />
    <glyph glyph-name="guillemotright" unicode="&#xbb;" horiz-adv-x="480" 
d="M50 47l-18 7l-12 14l-7 22l2 11l11 21l14 14l7 11l44 30l59 39l-32 26l-8 11l-28 34l-7 11l-5 13l-4 15v8l11 2l24 16l15 3l23 -14l4 -2l5 3l23 -25l36 -37l34 -48l5 -24l-16 -27l-29 -17l-32 -26l-61 -53l-46 -35zM264 372l14 -2l7 -5l4 -3h4l9 -11l82 -53l30 -34
l17 -28l4 -10v-4l4 -7l-1 -10l2 -4l-2 -26l-2 -12l-3 -2l-7 -8l-25 -21l-32 -16l-13 -9l-5 -1l-9 -1l-9 5l-8 -3l-2 -7l-10 -1l-3 -4l-9 -2l-26 -5l-10 -3h-4l-11 -2l-9 -2l-17 -6l-24 -14l-3 3l-22 -13l-21 -7l-5 -3h-11v14l4 20l13 23l20 15l36 20l111 44l11 8l-41 34
l-25 26l-12 22l-9 14l-8 12l-4 25l-3 9v8l5 11l7 13l5 3z" />
    <glyph glyph-name="ellipsis" unicode="&#x2026;" horiz-adv-x="740" 
d="M489 126l30 -13l7 2v5l11 2l-3 -9l5 -7l2 2v5h3l7 -11l6 4l3 -2l7 -14l6 -10h1l4 5l3 -2l4 -5l9 -11l2 -2l-2 -7l5 -23l-2 -16l2 -7l-5 2v-2l2 -5l-13 -7l-16 -4l-9 -12l-17 2h-4l-25 8l-24 16l-8 9l-8 2l1 3l-5 6v7l-16 9l-11 5l2 6h2v5l4 5l-2 7l3 4h6l-4 7l5 3l-3 13
l3 1l8 -1l1 1v4l7 9l7 5zM281 126l31 -13h5l2 2v5l10 2l-3 -9l3 -5l2 -2l2 2v5h3l8 -11l5 4l3 -2l8 -14l7 -10l3 5l4 -2l3 -5l11 -13l-2 -7l4 -7h-4v-3l5 -13l-1 -16l1 -7l-5 2v-2l2 -5l-13 -7l-15 -4l-9 -12l-18 2h-4l-25 8l-24 16l-7 9l-9 2l1 3l-5 6v7l-16 9l-10 5l3 6v5
l4 5l9 21l-4 13l4 1h8v4l7 9l8 5zM52 126l30 -13h5l2 2v5l10 2l-3 -9l3 -5h4v5h4l7 -11l5 4l4 -2l7 -14l7 -10l3 5l4 -2l3 -5l11 -13l-2 -7l2 -10l4 -13l-2 -16l-2 -12l-12 -7l-16 -4l-9 -12l-18 2h-4l-24 8l-25 16l-7 9l-9 2l2 3l-6 6v7l-16 9l-10 5l3 6v5l4 5l-2 7l4 4h5
l-4 7l6 3l-4 13l4 1h9v4l7 9l7 5z" />
    <glyph glyph-name="nbspace" unicode="&#xa0;" horiz-adv-x="200" 
 />
    <glyph glyph-name="Agrave" unicode="&#xc0;" horiz-adv-x="399" 
d="M287 609c11 0 23 -2 37 -7c1 -1 4 -3 9 -4c5 -3 11 -7 18 -11c11 -13 18 -24 21 -33c2 -5 4 -10 6 -16c0 -3 0 -8 1 -14c0 -3 1 -6 2 -9v-36c-1 -6 -1 -15 -1 -28c-1 -5 -1 -11 -1 -18c-2 -11 -3 -27 -4 -48c-1 -11 -3 -23 -5 -38c0 -3 0 -7 -1 -12c-2 -7 -4 -16 -5 -26
c-3 -7 -4 -21 -5 -40c-1 -3 -1 -7 -1 -10l-1 -1c-1 -2 -2 -6 -3 -13c1 -1 1 -2 1 -3s-1 -3 -2 -6l-2 -6c0 -1 1 -3 3 -5c5 -5 8 -9 8 -12c-1 -3 -1 -5 -1 -6c1 0 1 0 1 -1c-1 -5 -4 -9 -7 -13c-1 -1 -2 -3 -3 -4c1 -5 1 -8 1 -11c-1 -1 -1 -3 -2 -5c0 -3 0 -5 1 -8
c-1 -4 -1 -9 -1 -16c0 -1 -1 -3 -3 -5c1 -5 1 -10 2 -15c0 -1 0 -2 1 -4c-1 -3 -1 -6 -1 -10c1 -2 1 -5 2 -8c-1 -1 -1 -2 -1 -3c0 -2 0 -4 1 -7c-1 -3 -1 -6 -1 -11c1 -13 3 -29 5 -47c1 -3 1 -6 1 -10v-5c1 -5 1 -11 2 -17c0 -1 0 -4 -1 -7v-6c0 -5 -2 -21 -2 -26
c1 -2 1 -5 1 -8c-1 -1 -1 -2 -2 -3c-1 -5 -2 -10 -5 -16c0 -6 -12 -17 -11 -18c-3 -1 -5 0 -7 2l-1 -5l2 -10c-1 -1 -3 -2 -4 -1c-4 12 -9 30 -15 55v3c-3 13 -7 27 -11 44c-1 5 -1 10 -2 16c-3 14 -6 28 -8 43c-1 5 -1 11 -2 18l-9 6c-3 5 -8 10 -13 15c-6 8 -13 15 -20 22
c-3 4 -9 10 -17 17c-3 -1 -6 -2 -10 -3c-6 -1 -13 -2 -21 -3c-1 0 -1 0 -1 -1h-1c-16 -1 -35 -4 -57 -7c-5 -11 -9 -21 -10 -31c-8 -20 -16 -41 -23 -63l-3 -9c-1 -1 -1 -3 -2 -6l-4 -13c-1 -3 -2 -7 -5 -14l-7 -17c-3 -7 -6 -17 -9 -31c-2 -2 -4 -5 -6 -8
c-12 -9 -21 -13 -28 -13c-6 0 -12 3 -19 10c-10 10 -15 21 -15 32s3 23 9 38c4 14 10 35 19 62l17 53c1 4 3 10 6 18c3 4 5 9 6 15c-1 5 -2 11 -3 18c1 5 3 11 5 17c1 2 3 8 6 17v1c5 4 11 9 18 15c2 5 5 12 8 19c1 3 8 21 22 54c1 1 3 7 7 19c1 0 2 2 4 6
c26 55 50 108 71 157c1 1 2 2 3 5l4 9c2 4 10 20 23 49c1 3 3 6 6 9c7 15 17 32 30 50c3 1 4 1 5 2c5 3 8 5 10 5zM275 472c-4 0 -15 -23 -33 -68c-3 -5 -11 -26 -25 -63c-3 -5 -10 -24 -23 -57c-5 -12 -9 -25 -14 -40c-1 -4 -2 -9 -3 -14h22c15 1 40 2 76 5c1 1 1 2 2 3
c0 12 1 32 2 59c3 48 4 83 4 104c0 3 0 14 -1 33c0 4 0 11 -1 22c-5 10 -7 15 -6 16zM417 570c-1 -5 -1 -7 -2 -8l-2 -2h-3l-3 -3h-2c-3 -2 -7 -3 -13 -3c-7 0 -16 2 -27 7c-3 1 -11 4 -24 10c-15 7 -32 16 -49 29c-27 20 -42 31 -45 33c-6 5 -13 11 -22 18
c-4 5 -9 11 -16 18c-1 1 -4 7 -9 17c-5 8 -7 15 -7 22l1 1c1 11 5 16 10 16c17 0 24 1 21 2c2 0 5 0 9 -1l6 -2c2 -1 4 -2 7 -3c1 -1 2 -1 3 -2l5 -2c2 -1 4 -3 5 -5c17 -15 43 -37 78 -68c14 -13 28 -25 41 -38c25 -23 38 -35 38 -36z" />
    <glyph glyph-name="Atilde" unicode="&#xc3;" horiz-adv-x="399" 
d="M287 609c11 0 23 -2 37 -7c1 -1 4 -3 9 -4c5 -3 11 -7 18 -11c11 -13 18 -24 21 -33c2 -5 4 -10 6 -16c0 -3 0 -8 1 -14c0 -3 1 -6 2 -9v-36c-1 -6 -1 -15 -1 -28c-1 -5 -1 -11 -1 -18c-2 -11 -3 -27 -4 -48c-1 -11 -3 -23 -5 -38c0 -3 0 -7 -1 -12c-2 -7 -4 -16 -5 -26
c-3 -7 -4 -21 -5 -40c-1 -3 -1 -7 -1 -10l-1 -1c-1 -2 -2 -6 -3 -13c1 -1 1 -2 1 -3s-1 -3 -2 -6l-2 -6c0 -1 1 -3 3 -5c5 -5 8 -9 8 -12c-1 -3 -1 -5 -1 -6c1 0 1 0 1 -1c-1 -5 -4 -9 -7 -13c-1 -1 -2 -3 -3 -4c1 -5 1 -8 1 -11c-1 -1 -1 -3 -2 -5c0 -3 0 -5 1 -8
c-1 -4 -1 -9 -1 -16c0 -1 -1 -3 -3 -5c1 -5 1 -10 2 -15c0 -1 0 -2 1 -4c-1 -3 -1 -6 -1 -10c1 -2 1 -5 2 -8c-1 -1 -1 -2 -1 -3c0 -2 0 -4 1 -7c-1 -3 -1 -6 -1 -11c1 -13 3 -29 5 -47c1 -3 1 -6 1 -10v-5c1 -5 1 -11 2 -17c0 -1 0 -4 -1 -7v-6c0 -5 -2 -21 -2 -26
c1 -2 1 -5 1 -8c-1 -1 -1 -2 -2 -3c-1 -5 -2 -10 -5 -16c0 -6 -12 -17 -11 -18c-3 -1 -5 0 -7 2l-1 -5l2 -10c-1 -1 -3 -2 -4 -1c-4 12 -9 30 -15 55v3c-3 13 -7 27 -11 44c-1 5 -1 10 -2 16c-3 14 -6 28 -8 43c-1 5 -1 11 -2 18l-9 6c-3 5 -8 10 -13 15c-6 8 -13 15 -20 22
c-3 4 -9 10 -17 17c-3 -1 -6 -2 -10 -3c-6 -1 -13 -2 -21 -3c-1 0 -1 0 -1 -1h-1c-16 -1 -35 -4 -57 -7c-5 -11 -9 -21 -10 -31c-8 -20 -16 -41 -23 -63l-3 -9c-1 -1 -1 -3 -2 -6l-4 -13c-1 -3 -2 -7 -5 -14l-7 -17c-3 -7 -6 -17 -9 -31c-2 -2 -4 -5 -6 -8
c-12 -9 -21 -13 -28 -13c-6 0 -12 3 -19 10c-10 10 -15 21 -15 32s3 23 9 38c4 14 10 35 19 62l17 53c1 4 3 10 6 18c3 4 5 9 6 15c-1 5 -2 11 -3 18c1 5 3 11 5 17c1 2 3 8 6 17v1c5 4 11 9 18 15c2 5 5 12 8 19c1 3 8 21 22 54c1 1 3 7 7 19c1 0 2 2 4 6
c26 55 50 108 71 157c1 1 2 2 3 5l4 9c2 4 10 20 23 49c1 3 3 6 6 9c7 15 17 32 30 50c3 1 4 1 5 2c5 3 8 5 10 5zM275 472c-4 0 -15 -23 -33 -68c-3 -5 -11 -26 -25 -63c-3 -5 -10 -24 -23 -57c-5 -12 -9 -25 -14 -40c-1 -4 -2 -9 -3 -14h22c15 1 40 2 76 5c1 1 1 2 2 3
c0 12 1 32 2 59c3 48 4 83 4 104c0 3 0 14 -1 33c0 4 0 11 -1 22c-5 10 -7 15 -6 16zM506 817c-2 -5 -4 -8 -6 -11l1 -1c-3 -6 -9 -15 -19 -27c-1 -3 -3 -7 -6 -13l-2 -1v-3c-2 -5 -5 -10 -9 -16v-3c0 -1 0 -2 1 -3c-3 -5 -6 -10 -10 -16c1 1 1 1 1 0c-1 0 -1 -1 -1 -2
c-3 -2 -7 -5 -13 -10l-1 -1c-5 -5 -9 -8 -11 -9c-12 -5 -21 -6 -40 -6c-23 2 -47 10 -71 23c-2 2 -7 5 -14 9c-3 3 -7 5 -12 8c-3 0 -17 8 -18 8c1 -3 -12 1 -14 -23c-6 -16 -20 -16 -22 -16s-5 0 -8 1h-4c-2 1 -4 1 -7 2h-4c-4 1 -6 3 -10 10c-1 1 -3 5 -6 13c1 1 1 2 2 3
c-1 1 -1 2 -1 4c0 4 1 11 4 22c10 22 18 36 25 42c15 13 26 18 35 17c3 1 6 1 10 1c5 -1 13 -2 23 -4c3 -1 6 -3 9 -4c8 -5 17 -11 28 -18c6 -6 13 -13 21 -22c1 -1 2 -3 3 -5v-1c2 -5 5 -11 9 -17l1 -1l6 -2h7c16 3 17 6 24 11c9 11 22 26 39 46c12 13 20 19 24 19
c15 0 22 0 21 1c3 0 6 -1 10 -2c1 -1 3 -2 5 -3z" />
    <glyph glyph-name="Otilde" unicode="&#xd5;" horiz-adv-x="586" 
d="M539 234c0 -2 0 -5 -1 -9l-3 -18v-3c1 0 1 0 2 -1c-1 -8 -6 -23 -14 -44c-5 -15 -9 -26 -13 -33c-8 -17 -15 -29 -21 -37c-2 -3 -5 -7 -8 -13c-3 -3 -7 -7 -11 -12v-4c-1 -1 -2 -3 -3 -5c-5 -4 -13 -9 -23 -16c-3 -4 -9 -10 -16 -17c-1 -1 -3 -2 -4 -4
c-5 -3 -12 -6 -19 -11c-3 -1 -8 -4 -14 -7c-3 -2 -6 -4 -11 -7c-7 -2 -15 -5 -26 -9c-1 -1 -3 -2 -5 -3c-10 -4 -22 -7 -37 -10c-4 -1 -11 -3 -20 -5h-9c-3 0 -10 -3 -13 -3c-21 0 -44 3 -67 9c-25 7 -52 20 -81 40c-11 8 -24 20 -38 36c-2 2 -8 11 -18 27
c-1 3 -6 13 -13 28c-3 13 -7 32 -12 57c1 -6 2 9 2 45c0 4 3 15 3 19l9 36c4 9 8 20 13 33c5 10 12 25 23 45c7 11 19 30 34 55c12 16 26 34 41 54c3 3 8 6 13 11l8 10c2 1 6 4 11 9c16 15 33 22 51 22l6 5l5 2c1 0 12 6 13 6c3 1 7 1 12 1c6 4 18 8 36 13l2 2h9
c1 1 3 1 5 2c3 0 8 -1 16 -3h10c4 -3 10 -6 17 -10c4 -4 8 -8 13 -12c2 -1 5 -2 8 -3c0 -1 1 -3 2 -4c1 -4 4 -8 8 -13c1 -3 2 -6 4 -9c6 -5 13 -10 22 -16c3 -4 7 -9 12 -14c1 -1 3 -2 5 -3l15 -15c3 -5 7 -11 13 -20l7 -7c2 -5 4 -10 7 -15v-4c1 -1 3 -2 4 -3
c1 -4 4 -9 7 -16c2 -3 4 -6 7 -10l3 -10c1 -4 1 -9 2 -15c1 -1 2 -1 3 -2c1 -4 2 -8 3 -11c2 -14 5 -35 8 -63v-13c0 -1 1 -2 3 -3zM449 249c0 27 -3 49 -10 66c-3 10 -7 21 -12 34c-3 5 -6 10 -9 16c-6 7 -13 14 -22 23l-24 24c-8 5 -20 12 -35 21c-7 -5 -15 -8 -25 -8h-30
c-9 0 -28 -21 -49 -41c-9 -5 -24 -24 -46 -57c-3 -6 -6 -13 -9 -21c-3 -4 -5 -8 -8 -13c-3 -9 -8 -19 -15 -31c-9 -17 -18 -40 -27 -68c-1 -17 -2 -28 -2 -35c0 -15 1 -28 4 -40c2 -4 4 -9 6 -15c1 -3 6 -11 15 -24c3 -4 14 -12 34 -24c12 -7 36 -11 72 -11c-1 0 5 1 20 2
c11 1 19 2 24 3s17 6 34 13c5 3 10 6 17 10c11 5 22 13 34 25l24 36c1 1 7 13 18 34c3 7 8 18 14 33v6c5 16 7 30 7 42zM550 817c-2 -5 -4 -8 -6 -11l1 -1c-3 -6 -9 -15 -19 -27c-1 -3 -3 -7 -6 -13l-2 -1v-3c-2 -5 -5 -10 -9 -16v-3c0 -1 0 -2 1 -3c-3 -5 -6 -10 -10 -16
c1 1 1 1 1 0c-1 0 -1 -1 -1 -2c-3 -2 -7 -5 -13 -10l-1 -1c-5 -5 -9 -8 -11 -9c-12 -5 -21 -6 -40 -6c-23 2 -47 10 -71 23c-2 2 -7 5 -14 9c-3 3 -7 5 -12 8c-3 0 -17 8 -18 8c1 -3 -12 1 -14 -23c-6 -16 -20 -16 -22 -16s-5 0 -8 1h-4c-2 1 -4 1 -7 2h-4c-4 1 -6 3 -10 10
c-1 1 -3 5 -6 13c1 1 1 2 2 3c-1 1 -1 2 -1 4c0 4 1 11 4 22c10 22 18 36 25 42c15 13 26 18 35 17c3 1 6 1 10 1c5 -1 13 -2 23 -4c3 -1 6 -3 9 -4c8 -5 17 -11 28 -18c6 -6 13 -13 21 -22c1 -1 2 -3 3 -5v-1c2 -5 5 -11 9 -17l1 -1l6 -2h7c16 3 17 6 24 11
c9 11 22 26 39 46c12 13 20 19 24 19c15 0 22 0 21 1c3 0 6 -1 10 -2c1 -1 3 -2 5 -3z" />
    <glyph glyph-name="OE" unicode="&#x152;" horiz-adv-x="812" 
d="M40 147v1v-1zM761 275h1v0h-1zM822 512c0 4 105 -3 123 -21v-6c-12 -12 -41 -14 -53 -15c-7 -3 -17 1 -29 -5c-1 1 -3 1 -4 1l-10 -6c-6 -6 -7 -4 -15 -6c-1 0 -3 0 -5 1c0 -1 -6 -2 -19 -6l-14 -4l-9 -2c-1 1 -3 1 -4 1c-4 -4 -22 -3 -32 -4h-4c-3 0 -11 -4 -12 -4
c-48 -10 1 23 -90 -44c-1 -1 -20 -12 -33 -28c-4 -12 -34 -56 -34 -90c0 -2 1 -4 2 -5l32 2c11 1 24 1 41 2c7 0 13 -1 21 -1c7 0 15 1 23 1c9 -2 16 -2 34 -2l4 -2l27 6c8 0 13 -1 16 -4v-2c1 -1 1 -7 1 -19l-11 -7l-8 -3l-3 -3l-14 -3c-1 -1 -6 -4 -14 -7l-14 -6
c-4 -4 -23 -8 -75 -17c-12 -14 -43 -44 -57 -54c-3 -7 -8 -15 -14 -22c-7 -2 -32 -1 -32 -14c0 -47 15 -63 51 -65l1 -12l5 -4h21l31 4l39 7l18 5l37 9l1 -3c1 -1 1 -2 1 -3c-1 -3 -1 -5 -1 -6l1 -1v-2c0 -2 0 -3 1 -5c-2 -2 -4 -4 -5 -6l-1 2c0 -2 0 -4 1 -6
c-5 0 1 -8 -10 -19v-2c-2 -5 0 -8 -12 -22v-4c-39 -19 -45 -22 -95 -26h-13s-1 -1 -3 -1c-3 0 -9 1 -19 3c-29 5 -18 -6 -66 23l-5 6c-14 15 -25 20 -41 72c-2 -2 -3 -4 -5 -6v-4c-14 -14 -13 -16 -65 -53c-23 -8 -9 -18 -113 -41h-9c-3 0 -10 -3 -13 -3
c-45 0 -92 10 -148 49c-18 13 -30 21 -56 63c-3 8 -13 26 -25 84h1c-3 0 4 22 4 65l9 36c9 18 10 33 36 78c12 20 40 72 88 120l8 10c2 1 6 4 11 9c16 15 33 22 51 22l11 7c12 0 2 4 61 20l2 2h9c1 1 3 1 5 2c3 0 8 -1 16 -3h10c7 -5 18 -12 30 -22c7 -3 18 -27 44 -45
c4 -5 9 -13 17 -17l15 -15c3 -5 7 -11 13 -20l7 -7c2 -5 4 -10 7 -15v-4c4 -4 6 -10 11 -19c2 6 4 13 5 20l-3 6c-4 8 -7 18 -10 30c3 2 5 4 8 7v3l5 5c-1 1 -1 3 -1 4c2 7 8 16 17 28h2l7 7c7 7 20 16 27 26c-2 1 -3 6 -3 15c29 19 36 13 46 13c3 -1 6 -1 9 -2h3
c7 -1 10 -1 10 -1c11 0 30 3 57 3h35c6 -1 12 -1 19 -2h68c5 -1 10 -1 15 -1zM441 195c5 16 7 30 7 42c0 56 -10 96 -53 139l-24 24c-8 5 -20 12 -35 21c-7 -5 -15 -8 -25 -8h-30c-9 0 -28 -21 -49 -41c-15 -8 -28 -32 -63 -91c-6 -19 -44 -76 -44 -134c0 -27 -9 -30 25 -79
c4 -5 23 -35 106 -35c-7 0 35 3 44 5c7 1 47 10 85 48l24 36c2 2 14 21 32 67v6z" />
    <glyph glyph-name="oe" unicode="&#x153;" horiz-adv-x="784" 
d="M638 28c45 21 82 53 88 53c3 0 5 -1 7 -2c-1 -9 -4 -21 -9 -34c-5 -5 -86 -113 -204 -113c-44 0 -102 61 -131 97c-4 5 -8 11 -11 18c-31 -27 -78 -54 -151 -91c-1 -1 -11 -2 -28 -4c-18 -22 -45 -33 -80 -33c-16 0 -28 2 -32 5l-36 31h-3c-42 0 -39 65 -45 72
c3 5 6 9 6 12c0 4 -6 10 -6 13c0 12 6 43 6 55c4 1 25 8 25 21c0 4 -6 22 -6 25c27 22 27 31 62 87c15 25 146 154 160 154c4 0 12 -3 16 -3c6 0 14 9 27 28c4 -1 11 -7 21 -16l31 -7c8 -4 19 -9 36 -15c36 0 54 -24 64 -57c10 11 23 26 40 43l31 17c11 5 17 13 19 23h8
c4 0 17 -14 22 -15c45 -7 69 -11 70 -11c44 -11 106 -60 106 -97c0 -122 -160 -135 -175 -135c-51 0 -83 6 -98 18c-25 -41 -38 -73 -38 -95c0 -6 5 -15 14 -28c18 -25 19 -25 55 -29c5 -3 16 -15 45 -15c21 0 53 9 94 28zM566 293c-51 -29 -66 -63 -97 -104
c13 -4 20 -6 21 -6c7 0 23 8 50 25c66 42 66 68 73 91c-8 8 -14 12 -18 12zM342 246v11c-3 1 -7 4 -10 7c1 3 3 6 3 11c0 12 -9 32 -20 32c-8 0 -29 -14 -63 -43c-78 -69 -109 -115 -145 -161c-4 -4 -21 -55 -21 -62c0 -11 15 -27 25 -27c38 0 80 16 126 47c11 3 22 8 38 16
c4 5 15 24 31 55c4 8 15 71 25 76c0 23 4 35 11 38z" />
    <glyph glyph-name="endash" unicode="&#x2013;" horiz-adv-x="525" 
d="M328 236l54 2h78l19 -2l6 -4v-5l-13 -4l-2 -5l-4 -1l-15 -8l-2 -7l-10 -5l-6 -6l-7 -5l-26 -8l-15 -5l-3 -4l-10 -6l-2 -4l-29 -8l-52 -15l-44 -8l-39 -1l-31 -3l-28 1l-25 -1l-39 14l-19 -4l-11 7v5l-8 9l-4 3l1 17l-2 7l10 18l4 6l19 6l49 6l75 12l88 6h43z" />
    <glyph glyph-name="emdash" unicode="&#x2014;" horiz-adv-x="1080" 
d="M796 253l182 -8l60 -10l2 -6l-11 -6l-17 -6l-13 -2l2 -5l-11 1l-3 -4h-18l-17 -7l-1 -5h-5l-1 -3l-44 -2l-10 -2h-4l-3 -4l-23 -3l-18 2l-1 -4l-34 -1l-17 -2l-163 -6l-13 -3l-9 -3l-20 -2l-5 1l-13 -1l-12 -2l-9 2l-8 -1l-17 -2l-7 1l-16 -7h-11l-11 -3h-18l-17 -5h-17
l-23 -2l-19 -3l-46 -8l-41 -5h-98l-55 1l-49 7l-16 -11l-6 3l-11 3l-10 8l-2 9l-9 17l2 11l-1 9l14 13l6 11l10 3l7 -1l67 16l47 8l59 -1l37 6l27 2l34 6l38 1l13 2l10 -1l16 1h48l10 2l13 -2l5 -1l19 1h43z" />
    <glyph glyph-name="quotedblleft" unicode="&#x201c;" horiz-adv-x="392" 
d="M383 677l17 3l23 -1l3 -3h6l5 -3l7 -14l-6 -31l-15 -16l-20 -17l-35 -31l-21 -26l29 -8l7 -19l-3 -11l-9 -14l-9 -9l-8 -7l-2 -7l-10 1l-15 -16l-1 -4l-9 -3l-7 -3l-4 1l-10 -4h-2l-13 -1l-9 2l-6 5l-3 7l-8 10l-6 12l-6 16v17l2 19l7 25l25 39l30 35l35 31l22 16z
M256 663l12 -2h5l11 -6l1 -10l-1 -13l-19 -12l-13 -15l-27 -32l-35 -46l-7 -20l10 -3l5 -2l6 -18l-2 -5l-10 -18l-19 -20l-7 1l-13 -4l-22 -2l-13 3l-7 14l-2 14v31l8 27l15 28l15 21l33 38l35 29l32 19z" />
    <glyph glyph-name="quotedblright" unicode="&#x201d;" horiz-adv-x="332" 
d="M264 680l23 -3l3 1l11 -9l10 -10l16 -34l5 -19l-2 -34l-8 -26l-9 -27l-8 -10l-5 -9l-5 -2l-18 -26l-19 -14l-8 -12l-13 -4l-6 -7l-10 7l-8 -4h-5l13 45l10 38l9 77l-17 8l-7 8l-3 13l3 14l5 8v2l11 11l10 2l10 11zM113 656l42 -2l24 -11l6 -5l12 -18l8 -29v-38l-4 -18
l-6 -11l-3 -11l-7 -10l-25 -24l-12 -4l-8 -8l-1 2l-13 -2l-7 2l-5 -7l-8 -6l-13 -6l-4 1l-20 -14h-1l-2 1l-16 -3l7 24l28 41l32 80l-16 13l-11 2l-16 1l-3 15l2 11l4 13l8 10l13 9z" />
    <glyph glyph-name="quoteleft" unicode="&#x2018;" horiz-adv-x="258" 
d="M236 677l17 3l23 -1l3 -3h6l4 -3l8 -14l-6 -31l-16 -16l-19 -17l-36 -31l-20 -26l29 -8l6 -19l-3 -11l-8 -14l-9 -9l-9 -7l-1 -7l-10 1l-15 -16l-1 -4l-9 -3l-7 -3l-5 1l-10 -4h-1l-13 -1l-9 2l-6 5l-3 7l-9 10l-5 12l-6 16v17l1 19l8 25l24 39l31 35l35 31l21 16z" />
    <glyph glyph-name="quoteright" unicode="&#x2019;" horiz-adv-x="169" 
d="M204 669l21 -7h4l9 -11l7 -12l9 -36l2 -20l-9 -33l-13 -24l-14 -24l-10 -8l-6 -8l-6 -1l-23 -22l-21 -10l-10 -10l-14 -2l-7 -6l-8 9l-9 -2l-5 1l22 42l21 33l24 74l-19 13l-6 9v13l6 13l6 7l1 2l13 9h10l12 9z" />
    <glyph glyph-name="divide" unicode="&#xf7;" horiz-adv-x="0" 
 />
    <glyph glyph-name="lozenge" unicode="&#x25ca;" horiz-adv-x="411" 
d="M409 263c0 -15 -4 -33 -12 -53c-9 -23 -20 -37 -31 -44c-9 -7 -22 -14 -40 -23c-54 -15 -88 -22 -101 -22c-53 0 -87 6 -103 19c-27 -43 -40 -77 -40 -100c0 -7 5 -16 14 -29s17 -21 24 -24c4 -3 16 -5 35 -7c3 -1 10 -6 23 -13c3 -2 11 -3 24 -3c22 0 55 10 99 30
c45 19 74 37 87 54c2 1 4 1 6 1c3 0 5 -1 7 -2c-1 -9 -5 -21 -10 -36c-8 -10 -33 -34 -74 -71c-15 -13 -36 -24 -65 -33c-28 -9 -53 -14 -75 -14c-17 0 -32 5 -45 14c-35 24 -66 53 -93 88c-13 17 -23 34 -28 52c-11 39 -17 69 -17 92c5 8 10 23 15 46c0 4 5 11 15 20
c1 2 4 9 7 22c3 2 7 6 12 11c1 7 5 15 10 25c8 7 20 17 35 31c11 14 28 33 52 56c16 8 26 14 31 17c13 9 21 17 22 25h8c4 1 18 -14 23 -15c43 -7 68 -11 74 -12c22 -6 44 -18 67 -35c29 -23 44 -45 44 -67zM274 279c-8 8 -14 12 -19 12c-1 -1 -5 -3 -13 -8
c-29 -17 -50 -32 -62 -47s-31 -39 -57 -73c13 -5 21 -7 22 -7c7 0 25 9 53 27s44 30 48 37c15 25 24 44 28 59z" />
    <glyph glyph-name="ydieresis" unicode="&#xff;" horiz-adv-x="392" 
d="M440 318c0 -4 -8 -15 -8 -22c0 -3 -3 -27 -10 -70c-1 -10 -3 -27 -8 -52c-5 -21 -16 -61 -34 -119c-5 -11 -13 -27 -24 -50c-2 -10 -6 -25 -13 -46c-3 -3 -6 -9 -10 -18c1 -8 0 -19 -3 -34c-6 -10 -14 -25 -24 -46c-1 -4 -2 -10 -4 -18c-3 -4 -8 -10 -14 -19
c1 -2 1 -6 1 -11c-5 -11 -14 -31 -26 -62c-1 -1 -1 -2 -2 -2s-5 10 -6 10c-3 0 -7 -2 -11 -6c-5 -6 -8 -9 -9 -10c2 -5 3 -9 3 -11c0 -4 -10 -6 -11 -13c2 -3 3 -6 3 -9c0 -5 -6 -8 -17 -10c-11 -3 -16 -6 -16 -11c0 -3 4 -6 11 -9c0 -2 -4 -8 -11 -17c-1 -4 -3 -10 -6 -19
c-5 -5 -10 -11 -17 -18c2 -3 4 -9 6 -18c-6 -8 -10 -22 -13 -41c-2 -1 -14 -1 -37 -1c-9 0 -20 7 -31 21c-5 5 -7 14 -7 27c0 2 1 5 3 8l3 7c2 17 6 41 12 73c9 19 22 47 37 85c1 3 2 5 5 5s9 -4 12 -4s6 6 7 19c4 5 12 22 23 53c7 11 14 27 21 48c9 25 15 42 19 50l22 72
c5 2 14 6 25 12v6c-3 1 -8 5 -14 10c3 3 6 8 10 16c2 7 3 14 3 23c0 4 -1 7 -3 10h-7c-21 -21 -42 -39 -61 -54c-45 -34 -74 -51 -87 -51c-4 0 -12 -2 -24 -5c-36 31 -66 67 -89 106c-3 5 -5 14 -5 26c0 3 6 6 6 9c4 19 5 38 3 55c4 2 10 7 18 14c-1 4 -2 10 -1 17
c9 15 25 39 48 72c5 5 19 20 40 45c1 2 8 5 19 10c12 5 20 7 25 7c17 0 36 -24 36 -43c0 -7 -3 -13 -9 -19c-9 -10 -14 -16 -15 -17c-6 -6 -13 -15 -21 -27c0 -3 0 -8 -1 -14c-14 -27 -30 -65 -48 -114c-1 -7 -11 -19 -11 -30s3 -17 10 -17c5 0 20 7 46 22s42 25 48 30
s15 13 26 23l2 5c1 3 3 6 4 7c5 5 13 12 24 21l10 10c3 3 7 4 11 3c2 9 9 20 21 35c14 17 22 28 25 33c5 7 10 20 15 38c5 16 10 28 16 35c5 5 17 7 37 7c9 -1 13 -2 12 -2c5 -2 18 -8 40 -18v-8zM171 537h2l8 -3l9 -4l8 1l-1 -7l10 -4l14 -13l6 -7l14 -33l1 -7v-12l-7 -12
l-7 -8l-1 -2l-15 -2l-17 -2l-18 7l-8 4l-2 2l-24 17l-11 10l-2 5v13l-2 11l2 13l8 16l18 14zM326 535l22 -7l9 2l12 -15l14 -12l9 -24v-27l-13 -14l-5 -3l-10 -3l-26 4l-20 10l-21 19l-1 15l-4 6l11 34l10 7l10 3z" />
    <glyph glyph-name="Ydieresis" unicode="&#x178;" horiz-adv-x="410" 
d="M241 839h2l7 -3l9 -4l8 1l-2 -7l10 -4l12 -13l5 -7l10 -33v-7l-1 -12l-9 -12l-8 -8l-1 -2l-15 -2l-17 -2l-17 7l-8 4l-2 2l-22 17l-9 10l-2 5l2 13l-1 11l4 13l10 16l19 14zM396 837l21 -7l9 2l10 -15l13 -12l6 -24l-4 -27l-14 -14l-6 -3l-10 -3l-26 4l-18 10l-19 19
l1 15l-3 6l15 34l11 7l10 3zM482 630l9 7l14 7l1 -9l-14 -24l-6 -14l-20 -30l-7 -14l-143 -212l-5 -12l-17 -28l-7 -8l-9 -17v-3l-4 -3l-6 -10l-11 -19v-5l-12 -77l-4 -8l-8 -66l1 -9l-8 -49l-3 -6l-1 -12l-4 -14l-6 -15l1 -7l-4 -8l-11 -8l-36 -4l-24 8l-12 26l-6 30v69
l4 49l7 32l14 73l3 27l-47 61l-23 41l-19 29l-9 27l-4 45l8 15l19 18l9 -5l4 -5l6 7l22 -8l13 -13l33 -41l17 -25l32 -54l11 -25l13 15l16 30l20 28l3 2l7 12l55 67l64 73l27 26l29 26l17 8z" />
    <glyph glyph-name="fraction" unicode="&#x2044;" horiz-adv-x="252" 
d="M346 556c-11 -26 -21 -49 -30 -72c-29 -65 -170 -344 -218 -440c-33 -61 -54 -104 -65 -125c-4 -14 -7 -24 -9 -36c-8 -18 -21 -25 -46 -18c-30 10 -43 26 -38 48c15 36 30 71 44 103c33 76 60 137 89 180l32 55c40 66 47 74 98 188c8 20 21 52 38 95c14 29 24 43 26 48
c2 6 8 27 10 29c4 11 23 21 48 13c22 -7 43 -29 36 -43c-4 -12 -14 -22 -15 -25z" />
    <glyph glyph-name="currency" unicode="&#xa4;" horiz-adv-x="299" 
 />
    <glyph glyph-name="guilsinglleft" unicode="&#x2039;" horiz-adv-x="384" 
d="M337 454l22 -5l7 -6l10 -3v-11l8 -7l-3 -16l-3 -5l-8 -6l-10 -9l-36 -25l-12 -11l4 -4v-3l-49 -35l-5 -6l-49 -36l-8 -9l3 -4l-55 -53l-5 -3l-15 -13l-1 -6l5 -15l30 -33l106 -79l24 -24l30 -38v-4l-8 -2l-3 -6h-6l-4 -5h-1l-20 -10l-8 -2l-7 2l-29 15h-14l-36 20l-17 4
l-1 2l-43 23l-36 29l-28 25l-24 36l-12 21l-6 17l-2 10l2 30l16 44l11 15l61 55l120 86l87 55z" />
    <glyph glyph-name="guilsinglright" unicode="&#x203a;" horiz-adv-x="455" 
d="M192 445l20 -3l10 -7l7 -5h6l11 -15l119 -77l43 -49l24 -40l6 -14v-6l6 -10l-1 -14l3 -6v-18l-3 -20l-3 -18l-3 -2l-5 -12h-6l-15 -10l-2 -10l-6 2l-6 -6l-8 -6l-2 -2l-14 -6l-6 -4l-4 5l-20 -16l-19 -13l-6 -1l-15 -1l-26 -8l-13 -2l-5 -5l-14 -3l-10 -3l-41 -8h-7
l-16 -6l-8 -4l-4 4l-24 -9l-34 -20l-4 4l-34 -18l-30 -11l-6 -4h-15v21l6 28l17 33l28 21l53 29l159 64l18 12l-62 48l-33 38l-18 31l-15 21l-9 17l-11 49v12l4 14l2 1l11 18l8 5z" />
    <glyph glyph-name="fi" unicode="&#xf001;" horiz-adv-x="528" 
d="M135 -55l3 1l3 -7h-3zM395 247v0v0zM270 251c0 5 1 9 4 10c2 -1 3 -4 3 -8c-3 -1 -5 -2 -7 -2zM455 706h1h-1v0zM570 552c1 -7 14 -28 14 -35c0 -4 -13 -24 -14 -29c-23 -21 -39 -32 -48 -32c-18 0 -46 71 -46 97c0 9 3 25 7 40c-2 4 -7 9 -14 15c-20 -9 -30 -20 -30 -31
c0 1 -40 -55 -40 -58c0 -2 3 -5 3 -6c-13 -13 -14 -13 -27 -26c1 -1 2 -2 2 -5c0 -5 0 -11 -5 -20c-12 -2 -12 -2 -34 -27c5 -3 10 -4 15 -4c-12 -12 -11 -14 -40 -56l10 -5v-7c-5 -2 -11 -5 -20 -10c1 -2 1 -5 1 -9c-1 -1 -3 -2 -6 -5c1 -1 2 -3 2 -6c0 -8 -12 -22 -25 -36
c1 -2 2 -5 2 -9c0 -3 -35 -44 -35 -52c0 -1 3 -4 9 -8c5 1 9 3 12 8c0 0 6 -3 6 -5s-1 -4 -4 -6l4 -3c5 2 12 5 22 9c6 17 29 17 33 29c-2 0 48 29 48 49c0 2 -1 3 -3 5c29 -26 28 -27 28 -49c0 -8 -1 -14 -2 -18c0 1 -1 0 -2 -3c3 1 5 2 7 2c3 0 29 -14 78 -42v-9
c0 -40 -14 -47 -47 -99c-17 -67 -4 -46 -76 -185c-29 0 -66 67 -72 107c-2 12 -16 9 -16 38c0 25 17 20 26 60c5 15 7 25 11 33c-10 9 3 28 -16 28c-5 0 -21 -8 -49 -24c-64 -36 -42 -30 -57 -67c-20 -10 -5 -47 -40 -77c1 -1 1 -3 1 -4c0 -3 -3 -10 -10 -21
c5 -1 11 -4 20 -8v-5c-47 -8 -60 -104 -77 -181c-20 -12 -35 -34 -45 -65c-2 -1 -4 -2 -7 -2c-9 0 -13 2 -13 7c0 12 21 98 21 123c0 59 -8 115 -24 166c-1 4 -15 12 -41 24c-5 10 -13 13 -44 34c1 9 9 26 22 49c5 -6 10 -9 16 -9c4 0 19 5 24 5c4 0 2 -2 6 -2
c7 0 33 12 49 17c13 4 78 10 105 34v3c0 4 0 8 1 13c19 34 26 55 26 67c19 6 19 39 28 79c5 4 27 20 27 33c0 8 -2 15 -2 17c0 0 24 18 24 42c0 4 -3 10 -7 11c18 18 30 44 56 103c11 4 17 11 17 20c0 2 0 4 -1 7c20 31 46 77 78 140c5 3 14 9 26 16c17 -11 27 -17 32 -17h3
c0 1 1 1 2 1c0 -3 22 -11 73 -23l-10 -54c1 -4 4 -6 8 -6h2c-2 -5 -5 -10 -9 -15c20 -17 50 -49 51 -56zM84 7c-1 2 -2 4 -2 6c0 10 15 22 28 72h-9c-23 -4 -49 -23 -49 -43c0 -2 0 -4 1 -5c-2 -4 -4 -6 -5 -6c1 -11 1 -41 1 -49c0 -10 -10 -5 -10 -33c0 -15 3 -26 10 -33
c9 7 14 26 25 54v19c0 7 3 13 10 18zM256 224c-2 -2 -5 -5 -9 -8c1 0 3 0 6 1h6c0 3 -1 5 -3 7z" />
    <glyph glyph-name="fl" unicode="&#xf002;" horiz-adv-x="573" 
d="M270 251c0 5 1 9 4 10c2 -1 3 -4 3 -8c-3 -1 -5 -2 -7 -2zM455 706h1h-1v0zM395 247v0v0zM138 -61l-3 6l3 1l3 -7h-3zM722 552c1 -7 2 -15 2 -23c0 -17 -2 -35 -7 -55v-5c0 -8 -2 -20 -6 -36c-72 -129 -138 -223 -197 -283c-19 -39 -65 -62 -71 -95
c-2 -3 -23 -30 -23 -45c-1 -5 4 -14 10 -28l10 -24c0 -23 23 -34 70 -34c12 0 70 24 81 24c18 0 29 -10 33 -30c0 -3 0 -6 -1 -8l-1 -4c-9 7 -19 10 -32 10c-6 0 -28 -5 -67 -15c-28 -13 -55 -19 -81 -19c-41 0 -80 1 -102 53c-18 35 -42 15 -46 18
c-38 -15 -180 -86 -191 -90h-11c-6 -24 -11 -50 -16 -73c-20 -12 -35 -34 -45 -65c-2 -1 -4 -2 -7 -2c-9 0 -13 2 -13 7c0 12 21 98 21 123c0 59 -8 115 -24 166c-1 4 -15 12 -41 24c-5 10 -13 13 -44 34c1 9 9 26 22 49c5 -6 10 -9 16 -9c4 0 19 5 24 5c4 0 2 -2 6 -2
c7 0 33 12 49 17c13 4 78 10 105 34v3c0 4 0 8 1 13c19 34 26 55 26 67c19 6 19 39 28 79c5 4 27 20 27 33c0 8 -2 15 -2 17c0 0 24 18 24 42c0 4 -3 10 -7 11c18 18 30 44 56 103c11 4 17 11 17 20c0 2 0 4 -1 7c20 31 46 77 78 140c5 3 14 9 26 16c17 -11 27 -17 32 -17h3
c0 1 1 1 2 1c0 -3 22 -11 73 -23l-10 -54c1 -4 4 -6 8 -6h2c-8 -16 -24 -31 -47 -45c3 3 4 5 4 8c0 6 -5 13 -16 22c-20 -9 -30 -20 -30 -31c0 1 -40 -55 -40 -58c0 -2 3 -5 3 -6c-13 -13 -14 -13 -27 -26c1 -1 2 -2 2 -5c0 -5 0 -11 -5 -20c-12 -2 -12 -2 -34 -27
c5 -3 10 -4 15 -4c-12 -12 -11 -14 -40 -56l10 -5v-7c-5 -2 -11 -5 -20 -10c1 -2 1 -5 1 -9c-1 -1 -3 -2 -6 -5c1 -1 2 -3 2 -6c0 -8 -12 -22 -25 -36c1 -2 2 -5 2 -9c0 -3 -35 -44 -35 -52c0 -1 3 -4 9 -8c5 1 9 3 12 8c0 0 6 -3 6 -5s-1 -4 -4 -6l4 -3c5 2 12 5 22 9
c6 17 29 17 33 29c-2 0 48 29 48 49c0 2 -1 3 -3 5c29 -26 28 -27 28 -49c0 -8 -1 -14 -2 -18c1 5 -65 -106 -90 -111c0 7 2 10 5 10c-21 7 -1 31 -22 31c-5 0 -21 -8 -49 -24c-64 -36 -42 -30 -57 -67c-20 -10 -5 -47 -40 -77c1 -1 1 -3 1 -4c0 -3 -3 -10 -10 -21
c5 -1 11 -4 20 -8v-5c-26 -5 -42 -37 -53 -77c52 26 149 74 177 87v-1c5 7 17 19 36 35c45 40 48 51 85 153l7 13c4 6 6 11 6 15c0 3 -1 5 -3 8c31 64 116 252 205 344c26 9 48 13 67 13c20 0 34 -3 42 -9zM340 185c-16 -13 -24 -23 -24 -28c0 -1 0 -2 1 -3c5 7 13 18 23 31
zM256 224c-2 -2 -5 -5 -9 -8c1 0 3 0 6 1h6c0 3 -1 5 -3 7zM84 7c-1 2 -2 4 -2 6c0 10 15 22 28 72h-9c-23 -4 -49 -23 -49 -43c0 -2 0 -4 1 -5c-2 -4 -4 -6 -5 -6c1 -11 1 -41 1 -49c0 -10 -10 -5 -10 -33c0 -15 3 -26 10 -33c9 7 14 26 25 54v19c0 7 3 13 10 18zM616 358
c33 49 45 78 45 84c-3 21 -9 32 -18 32c-3 0 -60 -65 -68 -77c-15 -23 -75 -130 -77 -139c-1 -6 -62 -145 -62 -146c14 4 107 113 112 128c25 2 37 36 68 118z" />
    <glyph glyph-name="daggerdbl" unicode="&#x2021;" horiz-adv-x="0" 
 />
    <glyph glyph-name="middot" unicode="&#xb7;" horiz-adv-x="211" 
d="M75 310l26 -8l29 -5l7 -11l5 4l3 -2l8 -14l5 -10h2l3 5l4 -2l3 -5l9 -11l5 -32l-1 -16l1 -7l-5 2v-2l2 -5l-13 -7l-15 -4l-9 -12l-18 2h-4l-24 8l-25 16l-7 9l-9 2l2 3l-6 6v7l-16 9l-11 5l3 6h1v5l4 5l-2 7l4 4h5l3 18l22 24z" />
    <glyph glyph-name="middot" unicode="&#x2219;" horiz-adv-x="211" 
d="M75 310l26 -8l29 -5l7 -11l5 4l3 -2l8 -14l5 -10h2l3 5l4 -2l3 -5l9 -11l5 -32l-1 -16l1 -7l-5 2v-2l2 -5l-13 -7l-15 -4l-9 -12l-18 2h-4l-24 8l-25 16l-7 9l-9 2l2 3l-6 6v7l-16 9l-11 5l3 6h1v5l4 5l-2 7l4 4h5l3 18l22 24z" />
    <glyph glyph-name="quotesinglbase" unicode="&#x201a;" horiz-adv-x="419" 
d="M277 588h5l8 -7l5 -6l2 -31l-10 -29l-10 -17l-9 -25l-15 -27l-24 -58l-11 -22l-7 -20l-11 -26l-5 -11l-3 -9l48 25l33 11l11 5l19 -1l16 -8l10 -7l5 -14l-3 -28l-10 -14l-2 -8l-25 -18l-15 -10l-29 -21l-10 -4l-14 -8l-20 -15l-51 -27l163 -97l53 -37l5 -6l16 -12l27 -19
l26 -19l10 -12l3 -6l1 -8l-6 -2l5 -6v-7l-13 5l-8 -1l-11 6l-15 3l-46 20l-160 77l-65 40l-19 13l-3 -8l-8 -21l-15 -47l-1 -13l-3 -4v-21l-2 -4l-3 -19l-4 -2v-9l-22 -7v-9l-13 -7l-6 3l-15 2l-3 10l-13 13l-2 14l5 13l11 53l4 8l3 16l5 20l5 16l1 1l5 25l13 40l3 6l5 28
l11 25l3 13l9 23l11 29l6 21l3 3l12 29l37 84l11 18l31 59l45 68l16 18z" />
    <glyph glyph-name="quotedblbase" unicode="&#x201e;" horiz-adv-x="392" 
d="M286 119l22 -3l4 1l11 -9l9 -10l17 -34l4 -19l-1 -34l-8 -26l-10 -27l-8 -10l-5 -9l-5 -2l-17 -26l-20 -14l-8 -12l-13 -4l-6 -7l-10 7l-8 -4h-5l50 106l-17 54l-18 8l-7 8l-3 13l3 14l5 9v1l12 11l9 2l10 11zM132 95l42 -2l24 -11l6 -5l12 -17l8 -30v-38l-4 -18l-6 -11
l-3 -11l-7 -10l-25 -24l-12 -4l-8 -8l-1 2l-13 -2l-7 2l-5 -6l-8 -7l-13 -6l-4 1l-20 -14h-1l-2 1l-16 -3l7 24l67 83l-7 38l-16 13l-11 2l-16 1l-3 15l2 11l4 13l8 10l13 9z" />
    <glyph glyph-name="perthousand" unicode="&#x2030;" horiz-adv-x="802" 
d="M178 543l14 -3l18 -10l9 -4l17 -13l3 -6v-2l8 -10l3 -13l3 -10l8 -19v-24l4 -21l-5 -14l-8 -36l-5 -9l-10 -11l-12 -7l-28 -13l-13 -3l-12 -4h-5l-5 -4l-13 2l-1 -2l-8 -3l-11 3l-13 6l-11 2l-11 10l-10 7l-20 24l-6 12l-3 13l-2 15l4 33l8 24l9 16l20 22l26 21l31 20z
M469 536h4l4 -7l-4 -10l3 -2l-9 -18l-6 -9l-17 -20l-7 -6l-4 -5l-17 -27l-8 -10l-9 -13l-15 -18l-12 -20l-15 -22l-12 -14l-4 -8l-7 -8l-7 -13l-16 -23v-2l-7 -6l-11 -16l-2 -4l-6 -3l-16 -28l-10 -14l-5 -6l-9 -16l-15 -24l-9 -12l-13 -24l-3 -8l-12 -21l-20 -44l-6 -11v-2
l-8 -23l-10 -30l-8 -33v-6l-6 -12l-4 -11l1 -5l-3 -6l-10 -7l-8 -9l-3 2l4 35l12 58l18 59l25 63l28 60l57 108l37 58l19 25l61 77l36 38l19 17l21 20zM409 249l2 -1l15 -6l1 -4l6 -1l2 -7l24 -20l8 -6l4 -17l6 -9l4 -4l-6 -23v-22l6 -12l-5 -8l-2 -5l2 -4v-5l-5 -11l-3 -9
l-1 -11l-9 -10l-10 -17l-19 -16l-5 -8l-14 -12l-21 -11l-11 -3l-4 -3l-12 -3l-30 -10l-28 2l-16 9l-14 9v4l-9 10l-9 14l-3 17l-3 26l4 21l10 28l3 10l38 60l27 29l36 22l16 8h8l11 6zM193 463l-16 -26l-6 -7l-20 -32l-12 -23l6 -3l23 6l13 7l9 22l4 31l2 25h-3zM402 170v-5
l-10 -11l-13 -16l-6 -10l-9 -13l-4 -3l-4 -10l-19 -25l-2 -10l-7 -4v-8l-7 -4l1 -6l-4 -4v-5l-1 -5l27 8l26 21l21 24l15 32l2 28v6l-3 10v8zM670 249l17 -7l1 -4l6 -1l2 -7l32 -26l-1 -8l5 1l2 -6l-1 -4l6 -9l1 -20l-4 -29l6 -12l-4 -8l-3 -5l3 -4v-5l-5 -11l-14 -30
l-16 -27l-10 -6h-3l-4 -8l-15 -12l-20 -11l-28 -9l-29 -10l-29 2l-16 9l-6 8l-7 1v4l-10 10l-8 14l-4 17l-2 26l3 21l10 28l5 11l9 18l-9 4h-4l7 13l37 35l24 18l35 22l14 7l21 7zM672 184l-13 -19l-8 -16l-7 -4l-7 -12l-11 -15l-5 -4l-12 -19l-16 -16l4 -1v-4l-4 -2l-1 -12
l-9 -5l-7 -21l-5 -5l-4 -11l2 -1l33 10l31 24l25 30l19 38l1 40l-3 13v10z" />
    <glyph glyph-name="Acircumflex" unicode="&#xc2;" horiz-adv-x="399" 
d="M287 609c11 0 23 -2 37 -7c1 -1 4 -3 9 -4c5 -3 11 -7 18 -11c11 -13 18 -24 21 -33c2 -5 4 -10 6 -16c0 -3 0 -8 1 -14c0 -3 1 -6 2 -9v-36c-1 -6 -1 -15 -1 -28c-1 -5 -1 -11 -1 -18c-2 -11 -3 -27 -4 -48c-1 -11 -3 -23 -5 -38c0 -3 0 -7 -1 -12c-2 -7 -4 -16 -5 -26
c-3 -7 -4 -21 -5 -40c-1 -3 -1 -7 -1 -10l-1 -1c-1 -2 -2 -6 -3 -13c1 -1 1 -2 1 -3s-1 -3 -2 -6l-2 -6c0 -1 1 -3 3 -5c5 -5 8 -9 8 -12c-1 -3 -1 -5 -1 -6c1 0 1 0 1 -1c-1 -5 -4 -9 -7 -13c-1 -1 -2 -3 -3 -4c1 -5 1 -8 1 -11c-1 -1 -1 -3 -2 -5c0 -3 0 -5 1 -8
c-1 -4 -1 -9 -1 -16c0 -1 -1 -3 -3 -5c1 -5 1 -10 2 -15c0 -1 0 -2 1 -4c-1 -3 -1 -6 -1 -10c1 -2 1 -5 2 -8c-1 -1 -1 -2 -1 -3c0 -2 0 -4 1 -7c-1 -3 -1 -6 -1 -11c1 -13 3 -29 5 -47c1 -3 1 -6 1 -10v-5c1 -5 1 -11 2 -17c0 -1 0 -4 -1 -7v-6c0 -5 -2 -21 -2 -26
c1 -2 1 -5 1 -8c-1 -1 -1 -2 -2 -3c-1 -5 -2 -10 -5 -16c0 -6 -12 -17 -11 -18c-3 -1 -5 0 -7 2l-1 -5l2 -10c-1 -1 -3 -2 -4 -1c-4 12 -9 30 -15 55v3c-3 13 -7 27 -11 44c-1 5 -1 10 -2 16c-3 14 -6 28 -8 43c-1 5 -1 11 -2 18l-9 6c-3 5 -8 10 -13 15c-6 8 -13 15 -20 22
c-3 4 -9 10 -17 17c-3 -1 -6 -2 -10 -3c-6 -1 -13 -2 -21 -3c-1 0 -1 0 -1 -1h-1c-16 -1 -35 -4 -57 -7c-5 -11 -9 -21 -10 -31c-8 -20 -16 -41 -23 -63l-3 -9c-1 -1 -1 -3 -2 -6l-4 -13c-1 -3 -2 -7 -5 -14l-7 -17c-3 -7 -6 -17 -9 -31c-2 -2 -4 -5 -6 -8
c-12 -9 -21 -13 -28 -13c-6 0 -12 3 -19 10c-10 10 -15 21 -15 32s3 23 9 38c4 14 10 35 19 62l17 53c1 4 3 10 6 18c3 4 5 9 6 15c-1 5 -2 11 -3 18c1 5 3 11 5 17c1 2 3 8 6 17v1c5 4 11 9 18 15c2 5 5 12 8 19c1 3 8 21 22 54c1 1 3 7 7 19c1 0 2 2 4 6
c26 55 50 108 71 157c1 1 2 2 3 5l4 9c2 4 10 20 23 49c1 3 3 6 6 9c7 15 17 32 30 50c3 1 4 1 5 2c5 3 8 5 10 5zM275 472c-4 0 -15 -23 -33 -68c-3 -5 -11 -26 -25 -63c-3 -5 -10 -24 -23 -57c-5 -12 -9 -25 -14 -40c-1 -4 -2 -9 -3 -14h22c15 1 40 2 76 5c1 1 1 2 2 3
c0 12 1 32 2 59c3 48 4 83 4 104c0 3 0 14 -1 33c0 4 0 11 -1 22c-5 10 -7 15 -6 16zM457 716c0 -3 -2 -10 -6 -20c-4 -2 -7 -3 -10 -3c-7 0 -13 1 -16 3c-3 3 -18 23 -43 62c-5 7 -12 18 -22 33c-4 5 -8 8 -13 9c-1 -1 -4 -2 -8 -3c-1 -1 -12 -13 -33 -37
c-2 -3 -5 -7 -9 -12c-1 -2 -14 -17 -39 -46c-9 -7 -14 -14 -16 -23c-9 -5 -15 -8 -20 -8c-7 1 -12 3 -14 6c-6 3 -11 12 -16 25c0 1 0 1 1 2c0 7 3 13 19 36c7 9 15 19 24 31c15 19 33 40 54 64c5 4 10 9 17 16c4 3 8 6 13 11c1 1 4 3 9 5c11 0 19 -2 24 -7c3 -2 7 -4 12 -7
c7 -5 14 -12 23 -19c3 -5 7 -10 12 -16l33 -66c5 -9 10 -17 16 -24v-1c2 -3 5 -7 8 -11z" />
    <glyph glyph-name="Ecircumflex" unicode="&#xca;" horiz-adv-x="528" 
d="M552 528c-1 -1 -2 -3 -3 -5c-19 -5 -36 -9 -50 -10c-2 -1 -4 -1 -7 -2c-5 0 -10 0 -17 -1c-1 -1 -3 -1 -5 -2c-1 1 -3 1 -4 1l-10 -6c-1 -1 -2 -3 -3 -4c-3 -1 -7 -1 -12 -2c-1 0 -3 0 -5 1c0 -1 -6 -3 -19 -6l-14 -4h-5l-4 -2c-1 1 -3 1 -4 1c-1 -1 -3 -1 -5 -2
c-9 -1 -18 -1 -27 -2h-4c-3 0 -11 -4 -12 -4c-5 -1 -10 -1 -17 -1c-5 -2 -13 -4 -22 -5c-1 -2 -3 -4 -5 -6c-8 -4 -23 -15 -46 -32c-2 -2 -9 -8 -21 -17c-4 -3 -8 -6 -12 -11c-1 -3 -3 -5 -6 -8c-5 -11 -10 -24 -15 -38c-2 -7 -4 -16 -7 -25c0 -3 -6 -15 -6 -19
c0 -2 1 -4 2 -5h3l29 2c11 1 24 1 41 2c13 -1 27 -1 44 0c5 -1 12 -1 19 -1c3 -1 8 -1 15 -1l4 -2c20 4 29 6 26 6c8 0 14 -1 17 -4v-2c1 -1 1 -7 1 -19l-11 -7l-5 -3h-3l-3 -3l-14 -3c-1 -1 -6 -4 -14 -7l-14 -6c-2 -2 -17 -6 -44 -12c-4 -1 -14 -2 -31 -5
c-7 -8 -17 -16 -28 -25c-2 -2 -5 -4 -8 -5c-7 -11 -14 -19 -21 -24c-3 -7 -8 -15 -14 -22c-8 -2 -19 -4 -32 -6c-1 -23 2 -40 7 -51c8 -14 23 -21 44 -22v-5l1 -7l5 -3l8 -1h13l31 4l11 3l28 4l18 5l16 3l21 6l1 -3c1 -1 1 -2 1 -3c-1 -3 -1 -5 -1 -6l1 -1c-1 -3 0 -5 1 -7
c-2 -2 -4 -4 -5 -6l-1 2c0 -2 0 -4 1 -6c-1 1 -4 -5 -8 -18c-1 0 -1 0 -2 -1v-2c-1 -3 -2 -7 -5 -13c-1 -1 -3 -4 -7 -9v-4c-8 -4 -16 -8 -25 -13c-3 -1 -7 -2 -12 -4c-1 0 -2 0 -3 -1c-10 -2 -21 -4 -34 -7c-2 0 -9 0 -21 -1h-13c-2 -1 -9 0 -22 2s-20 3 -22 3
s-13 4 -32 13c-3 1 -7 4 -12 7l-5 6c-5 5 -11 12 -20 21c-2 3 -4 7 -7 11c-1 1 -2 1 -3 2c-3 7 -7 17 -12 30c-2 11 -5 25 -10 41c0 3 0 7 -1 11c1 3 1 6 1 10c0 1 0 2 -1 3c0 5 0 11 -1 17c1 7 2 15 2 24c1 7 2 15 2 24c3 14 5 30 8 48c0 4 5 18 5 21c0 4 2 11 2 14
c2 5 4 10 5 17c1 3 2 9 3 17c5 13 10 30 16 52c1 0 1 0 1 1c2 6 4 13 6 21l-3 6c-4 8 -7 18 -10 30c3 2 5 4 8 7v3l5 5c-1 1 -1 3 -1 4c2 7 8 16 17 28h2l7 7c6 6 13 12 21 19c2 2 4 4 6 7c-2 1 -3 6 -3 15c23 15 23 11 34 12c5 1 9 1 12 1c3 -1 6 -1 9 -2h3
c8 -1 11 -1 10 -1c11 1 30 2 57 3h35c6 -1 12 -1 19 -2h68c5 -1 10 -1 16 -1c-5 -1 14 -1 57 -1c5 0 14 -1 26 -4c13 -3 20 -5 22 -8c5 -2 9 -4 14 -7c1 0 2 0 3 -1v-6zM508 716c0 -3 -2 -10 -6 -20c-4 -2 -7 -3 -10 -3c-7 0 -13 1 -16 3c-3 3 -18 23 -43 62
c-5 7 -12 18 -22 33c-4 5 -8 8 -13 9c-1 -1 -4 -2 -8 -3c-1 -1 -12 -13 -33 -37c-2 -3 -5 -7 -9 -12c-1 -2 -14 -17 -39 -46c-9 -7 -14 -14 -16 -23c-9 -5 -15 -8 -20 -8c-7 1 -12 3 -14 6c-6 3 -11 12 -16 25c0 1 0 1 1 2c0 7 3 13 19 36c7 9 15 19 24 31
c15 19 33 40 54 64c5 4 10 9 17 16c4 3 8 6 13 11c1 1 4 3 9 5c11 0 19 -2 24 -7c3 -2 7 -4 12 -7c7 -5 14 -12 23 -19c3 -5 7 -10 12 -16l33 -66c5 -9 10 -17 16 -24v-1c2 -3 5 -7 8 -11z" />
    <glyph glyph-name="Aacute" unicode="&#xc1;" horiz-adv-x="399" 
d="M287 609c11 0 23 -2 37 -7c1 -1 4 -3 9 -4c5 -3 11 -7 18 -11c11 -13 18 -24 21 -33c2 -5 4 -10 6 -16c0 -3 0 -8 1 -14c0 -3 1 -6 2 -9v-36c-1 -6 -1 -15 -1 -28c-1 -5 -1 -11 -1 -18c-2 -11 -3 -27 -4 -48c-1 -11 -3 -23 -5 -38c0 -3 0 -7 -1 -12c-2 -7 -4 -16 -5 -26
c-3 -7 -4 -21 -5 -40c-1 -3 -1 -7 -1 -10l-1 -1c-1 -2 -2 -6 -3 -13c1 -1 1 -2 1 -3s-1 -3 -2 -6l-2 -6c0 -1 1 -3 3 -5c5 -5 8 -9 8 -12c-1 -3 -1 -5 -1 -6c1 0 1 0 1 -1c-1 -5 -4 -9 -7 -13c-1 -1 -2 -3 -3 -4c1 -5 1 -8 1 -11c-1 -1 -1 -3 -2 -5c0 -3 0 -5 1 -8
c-1 -4 -1 -9 -1 -16c0 -1 -1 -3 -3 -5c1 -5 1 -10 2 -15c0 -1 0 -2 1 -4c-1 -3 -1 -6 -1 -10c1 -2 1 -5 2 -8c-1 -1 -1 -2 -1 -3c0 -2 0 -4 1 -7c-1 -3 -1 -6 -1 -11c1 -13 3 -29 5 -47c1 -3 1 -6 1 -10v-5c1 -5 1 -11 2 -17c0 -1 0 -4 -1 -7v-6c0 -5 -2 -21 -2 -26
c1 -2 1 -5 1 -8c-1 -1 -1 -2 -2 -3c-1 -5 -2 -10 -5 -16c0 -6 -12 -17 -11 -18c-3 -1 -5 0 -7 2l-1 -5l2 -10c-1 -1 -3 -2 -4 -1c-4 12 -9 30 -15 55v3c-3 13 -7 27 -11 44c-1 5 -1 10 -2 16c-3 14 -6 28 -8 43c-1 5 -1 11 -2 18l-9 6c-3 5 -8 10 -13 15c-6 8 -13 15 -20 22
c-3 4 -9 10 -17 17c-3 -1 -6 -2 -10 -3c-6 -1 -13 -2 -21 -3c-1 0 -1 0 -1 -1h-1c-16 -1 -35 -4 -57 -7c-5 -11 -9 -21 -10 -31c-8 -20 -16 -41 -23 -63l-3 -9c-1 -1 -1 -3 -2 -6l-4 -13c-1 -3 -2 -7 -5 -14l-7 -17c-3 -7 -6 -17 -9 -31c-2 -2 -4 -5 -6 -8
c-12 -9 -21 -13 -28 -13c-6 0 -12 3 -19 10c-10 10 -15 21 -15 32s3 23 9 38c4 14 10 35 19 62l17 53c1 4 3 10 6 18c3 4 5 9 6 15c-1 5 -2 11 -3 18c1 5 3 11 5 17c1 2 3 8 6 17v1c5 4 11 9 18 15c2 5 5 12 8 19c1 3 8 21 22 54c1 1 3 7 7 19c1 0 2 2 4 6
c26 55 50 108 71 157c1 1 2 2 3 5l4 9c2 4 10 20 23 49c1 3 3 6 6 9c7 15 17 32 30 50c3 1 4 1 5 2c5 3 8 5 10 5zM275 472c-4 0 -15 -23 -33 -68c-3 -5 -11 -26 -25 -63c-3 -5 -10 -24 -23 -57c-5 -12 -9 -25 -14 -40c-1 -4 -2 -9 -3 -14h22c15 1 40 2 76 5c1 1 1 2 2 3
c0 12 1 32 2 59c3 48 4 83 4 104c0 3 0 14 -1 33c0 4 0 11 -1 22c-5 10 -7 15 -6 16zM450 854h4l5 -3l1 -4l-4 -1l-3 -8l1 -3l-5 -2l-8 -5v-3l3 -4l-4 -4l2 -8l-4 -3v-3l12 2v-1l-14 -11l-3 -10l-7 -11l-6 -7l-12 -11l-11 -8l-40 -24l-36 -16l-7 -1h-17l-12 4h-8l-6 3v4
l-4 4l-5 14l1 5l-2 6l2 4l6 6v2l30 27l14 10l41 30l30 18l29 7z" />
    <glyph glyph-name="Edieresis" unicode="&#xcb;" horiz-adv-x="528" 
d="M552 528c-1 -1 -2 -3 -3 -5c-19 -5 -36 -9 -50 -10c-2 -1 -4 -1 -7 -2c-5 0 -10 0 -17 -1c-1 -1 -3 -1 -5 -2c-1 1 -3 1 -4 1l-10 -6c-1 -1 -2 -3 -3 -4c-3 -1 -7 -1 -12 -2c-1 0 -3 0 -5 1c0 -1 -6 -3 -19 -6l-14 -4h-5l-4 -2c-1 1 -3 1 -4 1c-1 -1 -3 -1 -5 -2
c-9 -1 -18 -1 -27 -2h-4c-3 0 -11 -4 -12 -4c-5 -1 -10 -1 -17 -1c-5 -2 -13 -4 -22 -5c-1 -2 -3 -4 -5 -6c-8 -4 -23 -15 -46 -32c-2 -2 -9 -8 -21 -17c-4 -3 -8 -6 -12 -11c-1 -3 -3 -5 -6 -8c-5 -11 -10 -24 -15 -38c-2 -7 -4 -16 -7 -25c0 -3 -6 -15 -6 -19
c0 -2 1 -4 2 -5h3l29 2c11 1 24 1 41 2c13 -1 27 -1 44 0c5 -1 12 -1 19 -1c3 -1 8 -1 15 -1l4 -2c20 4 29 6 26 6c8 0 14 -1 17 -4v-2c1 -1 1 -7 1 -19l-11 -7l-5 -3h-3l-3 -3l-14 -3c-1 -1 -6 -4 -14 -7l-14 -6c-2 -2 -17 -6 -44 -12c-4 -1 -14 -2 -31 -5
c-7 -8 -17 -16 -28 -25c-2 -2 -5 -4 -8 -5c-7 -11 -14 -19 -21 -24c-3 -7 -8 -15 -14 -22c-8 -2 -19 -4 -32 -6c-1 -23 2 -40 7 -51c8 -14 23 -21 44 -22v-5l1 -7l5 -3l8 -1h13l31 4l11 3l28 4l18 5l16 3l21 6l1 -3c1 -1 1 -2 1 -3c-1 -3 -1 -5 -1 -6l1 -1c-1 -3 0 -5 1 -7
c-2 -2 -4 -4 -5 -6l-1 2c0 -2 0 -4 1 -6c-1 1 -4 -5 -8 -18c-1 0 -1 0 -2 -1v-2c-1 -3 -2 -7 -5 -13c-1 -1 -3 -4 -7 -9v-4c-8 -4 -16 -8 -25 -13c-3 -1 -7 -2 -12 -4c-1 0 -2 0 -3 -1c-10 -2 -21 -4 -34 -7c-2 0 -9 0 -21 -1h-13c-2 -1 -9 0 -22 2s-20 3 -22 3
s-13 4 -32 13c-3 1 -7 4 -12 7l-5 6c-5 5 -11 12 -20 21c-2 3 -4 7 -7 11c-1 1 -2 1 -3 2c-3 7 -7 17 -12 30c-2 11 -5 25 -10 41c0 3 0 7 -1 11c1 3 1 6 1 10c0 1 0 2 -1 3c0 5 0 11 -1 17c1 7 2 15 2 24c1 7 2 15 2 24c3 14 5 30 8 48c0 4 5 18 5 21c0 4 2 11 2 14
c2 5 4 10 5 17c1 3 2 9 3 17c5 13 10 30 16 52c1 0 1 0 1 1c2 6 4 13 6 21l-3 6c-4 8 -7 18 -10 30c3 2 5 4 8 7v3l5 5c-1 1 -1 3 -1 4c2 7 8 16 17 28h2l7 7c6 6 13 12 21 19c2 2 4 4 6 7c-2 1 -3 6 -3 15c23 15 23 11 34 12c5 1 9 1 12 1c3 -1 6 -1 9 -2h3
c8 -1 11 -1 10 -1c11 1 30 2 57 3h35c6 -1 12 -1 19 -2h68c5 -1 10 -1 16 -1c-5 -1 14 -1 57 -1c5 0 14 -1 26 -4c13 -3 20 -5 22 -8c5 -2 9 -4 14 -7c1 0 2 0 3 -1v-6zM232 761h2l8 -3l9 -4l8 1l-1 -7l10 -4l14 -13l6 -7l14 -33l1 -7v-12l-7 -12l-7 -8l-1 -2l-15 -2l-17 -2
l-18 7l-8 4l-2 2l-24 17l-11 10l-2 5v13l-2 11l2 13l8 16l18 14zM387 759l22 -7l9 2l12 -15l14 -12l9 -24v-27l-13 -14l-5 -3l-10 -3l-26 4l-20 10l-21 19l-1 15l-4 6l11 34l10 7l10 3z" />
    <glyph glyph-name="Egrave" unicode="&#xc8;" horiz-adv-x="528" 
d="M552 528c-1 -1 -2 -3 -3 -5c-19 -5 -36 -9 -50 -10c-2 -1 -4 -1 -7 -2c-5 0 -10 0 -17 -1c-1 -1 -3 -1 -5 -2c-1 1 -3 1 -4 1l-10 -6c-1 -1 -2 -3 -3 -4c-3 -1 -7 -1 -12 -2c-1 0 -3 0 -5 1c0 -1 -6 -3 -19 -6l-14 -4h-5l-4 -2c-1 1 -3 1 -4 1c-1 -1 -3 -1 -5 -2
c-9 -1 -18 -1 -27 -2h-4c-3 0 -11 -4 -12 -4c-5 -1 -10 -1 -17 -1c-5 -2 -13 -4 -22 -5c-1 -2 -3 -4 -5 -6c-8 -4 -23 -15 -46 -32c-2 -2 -9 -8 -21 -17c-4 -3 -8 -6 -12 -11c-1 -3 -3 -5 -6 -8c-5 -11 -10 -24 -15 -38c-2 -7 -4 -16 -7 -25c0 -3 -6 -15 -6 -19
c0 -2 1 -4 2 -5h3l29 2c11 1 24 1 41 2c13 -1 27 -1 44 0c5 -1 12 -1 19 -1c3 -1 8 -1 15 -1l4 -2c20 4 29 6 26 6c8 0 14 -1 17 -4v-2c1 -1 1 -7 1 -19l-11 -7l-5 -3h-3l-3 -3l-14 -3c-1 -1 -6 -4 -14 -7l-14 -6c-2 -2 -17 -6 -44 -12c-4 -1 -14 -2 -31 -5
c-7 -8 -17 -16 -28 -25c-2 -2 -5 -4 -8 -5c-7 -11 -14 -19 -21 -24c-3 -7 -8 -15 -14 -22c-8 -2 -19 -4 -32 -6c-1 -23 2 -40 7 -51c8 -14 23 -21 44 -22v-5l1 -7l5 -3l8 -1h13l31 4l11 3l28 4l18 5l16 3l21 6l1 -3c1 -1 1 -2 1 -3c-1 -3 -1 -5 -1 -6l1 -1c-1 -3 0 -5 1 -7
c-2 -2 -4 -4 -5 -6l-1 2c0 -2 0 -4 1 -6c-1 1 -4 -5 -8 -18c-1 0 -1 0 -2 -1v-2c-1 -3 -2 -7 -5 -13c-1 -1 -3 -4 -7 -9v-4c-8 -4 -16 -8 -25 -13c-3 -1 -7 -2 -12 -4c-1 0 -2 0 -3 -1c-10 -2 -21 -4 -34 -7c-2 0 -9 0 -21 -1h-13c-2 -1 -9 0 -22 2s-20 3 -22 3
s-13 4 -32 13c-3 1 -7 4 -12 7l-5 6c-5 5 -11 12 -20 21c-2 3 -4 7 -7 11c-1 1 -2 1 -3 2c-3 7 -7 17 -12 30c-2 11 -5 25 -10 41c0 3 0 7 -1 11c1 3 1 6 1 10c0 1 0 2 -1 3c0 5 0 11 -1 17c1 7 2 15 2 24c1 7 2 15 2 24c3 14 5 30 8 48c0 4 5 18 5 21c0 4 2 11 2 14
c2 5 4 10 5 17c1 3 2 9 3 17c5 13 10 30 16 52c1 0 1 0 1 1c2 6 4 13 6 21l-3 6c-4 8 -7 18 -10 30c3 2 5 4 8 7v3l5 5c-1 1 -1 3 -1 4c2 7 8 16 17 28h2l7 7c6 6 13 12 21 19c2 2 4 4 6 7c-2 1 -3 6 -3 15c23 15 23 11 34 12c5 1 9 1 12 1c3 -1 6 -1 9 -2h3
c8 -1 11 -1 10 -1c11 1 30 2 57 3h35c6 -1 12 -1 19 -2h68c5 -1 10 -1 16 -1c-5 -1 14 -1 57 -1c5 0 14 -1 26 -4c13 -3 20 -5 22 -8c5 -2 9 -4 14 -7c1 0 2 0 3 -1v-6zM439 610c-1 -5 -1 -7 -2 -8l-2 -2h-3l-3 -3h-2c-3 -2 -7 -3 -13 -3c-7 0 -16 2 -27 7
c-3 1 -11 4 -24 10c-15 7 -32 16 -49 29c-27 20 -42 31 -45 33c-6 5 -13 11 -22 18c-4 5 -9 11 -16 18c-1 1 -4 7 -9 17c-5 8 -7 15 -7 22l1 1c1 11 5 16 10 16c17 0 24 1 21 2c2 0 5 0 9 -1l6 -2c2 -1 4 -2 7 -3c1 -1 2 -1 3 -2l5 -2c2 -1 4 -3 5 -5c17 -15 43 -37 78 -68
c14 -13 28 -25 41 -38c25 -23 38 -35 38 -36z" />
    <glyph glyph-name="Iacute" unicode="&#xcd;" horiz-adv-x="246" 
d="M228 561h7l14 -6l8 -11l3 -24l-3 -50l-13 -29l-14 -30l-36 -103l-33 -90l-8 -30l-8 -16l-3 -17l-7 -15l-4 -17l-10 -60l-7 -30l-6 -33l-14 -36l-13 -14l-16 -9l-11 6l-3 46l2 6l-2 8v29l2 23l-2 5l-1 49l1 36l6 28l7 39l7 22l13 61l6 12l11 37l18 53l1 14l9 14l9 21
l13 22l1 7l21 36l5 3l9 17l20 18zM389 854h4l5 -3l1 -4l-4 -1l-3 -8l1 -3l-5 -2l-8 -5v-3l3 -4l-4 -4l2 -8l-4 -3v-3l12 2v-1l-14 -11l-3 -10l-7 -11l-6 -7l-12 -11l-11 -8l-40 -24l-36 -16l-7 -1h-17l-12 4h-8l-6 3v4l-4 4l-5 14l1 5l-2 6l2 4l6 6v2l30 27l14 10l41 30
l30 18l29 7z" />
    <glyph glyph-name="Icircumflex" unicode="&#xce;" horiz-adv-x="246" 
d="M228 561h7l14 -6l8 -11l3 -24l-3 -50l-13 -29l-14 -30l-36 -103l-33 -90l-8 -30l-8 -16l-3 -17l-7 -15l-4 -17l-10 -60l-7 -30l-6 -33l-14 -36l-13 -14l-16 -9l-11 6l-3 46l2 6l-2 8v29l2 23l-2 5l-1 49l1 36l6 28l7 39l7 22l13 61l6 12l11 37l18 53l1 14l9 14l9 21
l13 22l1 7l21 36l5 3l9 17l20 18zM395 716c0 -3 -2 -10 -6 -20c-4 -2 -7 -3 -10 -3c-7 0 -13 1 -16 3c-3 3 -18 23 -43 62c-5 7 -12 18 -22 33c-4 5 -8 8 -13 9c-1 -1 -4 -2 -8 -3c-1 -1 -12 -13 -33 -37c-2 -3 -5 -7 -9 -12c-1 -2 -14 -17 -39 -46c-9 -7 -14 -14 -16 -23
c-9 -5 -15 -8 -20 -8c-7 1 -12 3 -14 6c-6 3 -11 12 -16 25c0 1 0 1 1 2c0 7 3 13 19 36c7 9 15 19 24 31c15 19 33 40 54 64c5 4 10 9 17 16c4 3 8 6 13 11c1 1 4 3 9 5c11 0 19 -2 24 -7c3 -2 7 -4 12 -7c7 -5 14 -12 23 -19c3 -5 7 -10 12 -16l33 -66c5 -9 10 -17 16 -24
v-1c2 -3 5 -7 8 -11z" />
    <glyph glyph-name="Idieresis" unicode="&#xcf;" horiz-adv-x="246" 
d="M228 561h7l14 -6l8 -11l3 -24l-3 -50l-13 -29l-14 -30l-36 -103l-33 -90l-8 -30l-8 -16l-3 -17l-7 -15l-4 -17l-10 -60l-7 -30l-6 -33l-14 -36l-13 -14l-16 -9l-11 6l-3 46l2 6l-2 8v29l2 23l-2 5l-1 49l1 36l6 28l7 39l7 22l13 61l6 12l11 37l18 53l1 14l9 14l9 21
l13 22l1 7l21 36l5 3l9 17l20 18zM174 839h2l8 -3l9 -4l8 1l-1 -7l10 -4l14 -13l6 -7l14 -33l1 -7v-12l-7 -12l-7 -8l-1 -2l-15 -2l-17 -2l-18 7l-8 4l-2 2l-24 17l-11 10l-2 5v13l-2 11l2 13l8 16l18 14zM329 837l22 -7l9 2l12 -15l14 -12l9 -24v-27l-13 -14l-5 -3l-10 -3
l-26 4l-20 10l-21 19l-1 15l-4 6l11 34l10 7l10 3z" />
    <glyph glyph-name="Igrave" unicode="&#xcc;" horiz-adv-x="246" 
d="M228 561h7l14 -6l8 -11l3 -24l-3 -50l-13 -29l-14 -30l-36 -103l-33 -90l-8 -30l-8 -16l-3 -17l-7 -15l-4 -17l-10 -60l-7 -30l-6 -33l-14 -36l-13 -14l-16 -9l-11 6l-3 46l2 6l-2 8v29l2 23l-2 5l-1 49l1 36l6 28l7 39l7 22l13 61l6 12l11 37l18 53l1 14l9 14l9 21
l13 22l1 7l21 36l5 3l9 17l20 18zM354 570c-1 -5 -1 -7 -2 -8l-2 -2h-3l-3 -3h-2c-3 -2 -7 -3 -13 -3c-7 0 -16 2 -27 7c-3 1 -11 4 -24 10c-15 7 -32 16 -49 29c-27 20 -42 31 -45 33c-6 5 -13 11 -22 18c-4 5 -9 11 -16 18c-1 1 -4 7 -9 17c-5 8 -7 15 -7 22l1 1
c1 11 5 16 10 16c17 0 24 1 21 2c2 0 5 0 9 -1l6 -2c2 -1 4 -2 7 -3c1 -1 2 -1 3 -2l5 -2c2 -1 4 -3 5 -5c17 -15 43 -37 78 -68c14 -13 28 -25 41 -38c25 -23 38 -35 38 -36z" />
    <glyph glyph-name="Oacute" unicode="&#xd3;" horiz-adv-x="586" 
d="M539 234c0 -2 0 -5 -1 -9l-3 -18v-3c1 0 1 0 2 -1c-1 -8 -6 -23 -14 -44c-5 -15 -9 -26 -13 -33c-8 -17 -15 -29 -21 -37c-2 -3 -5 -7 -8 -13c-3 -3 -7 -7 -11 -12v-4c-1 -1 -2 -3 -3 -5c-5 -4 -13 -9 -23 -16c-3 -4 -9 -10 -16 -17c-1 -1 -3 -2 -4 -4
c-5 -3 -12 -6 -19 -11c-3 -1 -8 -4 -14 -7c-3 -2 -6 -4 -11 -7c-7 -2 -15 -5 -26 -9c-1 -1 -3 -2 -5 -3c-10 -4 -22 -7 -37 -10c-4 -1 -11 -3 -20 -5h-9c-3 0 -10 -3 -13 -3c-21 0 -44 3 -67 9c-25 7 -52 20 -81 40c-11 8 -24 20 -38 36c-2 2 -8 11 -18 27
c-1 3 -6 13 -13 28c-3 13 -7 32 -12 57c1 -6 2 9 2 45c0 4 3 15 3 19l9 36c4 9 8 20 13 33c5 10 12 25 23 45c7 11 19 30 34 55c12 16 26 34 41 54c3 3 8 6 13 11l8 10c2 1 6 4 11 9c16 15 33 22 51 22l6 5l5 2c1 0 12 6 13 6c3 1 7 1 12 1c6 4 18 8 36 13l2 2h9
c1 1 3 1 5 2c3 0 8 -1 16 -3h10c4 -3 10 -6 17 -10c4 -4 8 -8 13 -12c2 -1 5 -2 8 -3c0 -1 1 -3 2 -4c1 -4 4 -8 8 -13c1 -3 2 -6 4 -9c6 -5 13 -10 22 -16c3 -4 7 -9 12 -14c1 -1 3 -2 5 -3l15 -15c3 -5 7 -11 13 -20l7 -7c2 -5 4 -10 7 -15v-4c1 -1 3 -2 4 -3
c1 -4 4 -9 7 -16c2 -3 4 -6 7 -10l3 -10c1 -4 1 -9 2 -15c1 -1 2 -1 3 -2c1 -4 2 -8 3 -11c2 -14 5 -35 8 -63v-13c0 -1 1 -2 3 -3zM449 249c0 27 -3 49 -10 66c-3 10 -7 21 -12 34c-3 5 -6 10 -9 16c-6 7 -13 14 -22 23l-24 24c-8 5 -20 12 -35 21c-7 -5 -15 -8 -25 -8h-30
c-9 0 -28 -21 -49 -41c-9 -5 -24 -24 -46 -57c-3 -6 -6 -13 -9 -21c-3 -4 -5 -8 -8 -13c-3 -9 -8 -19 -15 -31c-9 -17 -18 -40 -27 -68c-1 -17 -2 -28 -2 -35c0 -15 1 -28 4 -40c2 -4 4 -9 6 -15c1 -3 6 -11 15 -24c3 -4 14 -12 34 -24c12 -7 36 -11 72 -11c-1 0 5 1 20 2
c11 1 19 2 24 3s17 6 34 13c5 3 10 6 17 10c11 5 22 13 34 25l24 36c1 1 7 13 18 34c3 7 8 18 14 33v6c5 16 7 30 7 42zM432 746h4l5 -3l1 -4l-4 -1l-3 -8l1 -3l-5 -2l-8 -5v-3l3 -4l-4 -4l2 -8l-4 -3v-3l12 2v-1l-14 -11l-3 -10l-7 -11l-6 -7l-12 -11l-11 -8l-40 -24
l-36 -16l-7 -1h-17l-12 4h-8l-6 3v4l-4 4l-5 14l1 5l-2 6l2 4l6 6v2l30 27l14 10l41 30l30 18l29 7z" />
    </font>
</defs>
</svg>
